<svg xmlns="http://www.w3.org/2000/svg" width="254" height="114" viewBox="0 0 254 114"><g><g><path d="M242.286 35.027c-.04 2.774.397 3.508 2.658 4.391.255.1.545.23.714.465.55.761 1.052 6.795 1.86 8.032.895.08 2.162.519 1.71 3.096l-11.053 4.848 5.232 9.74c-4.03 3.638-8.766.617-13.692 1.815l2.258 6.641 3.471 8.51c-1.678-.095-3.232-.18-4.785-.271-.175-.01-.466.018-.505-.086-.89-2.41-2.678-1.172-4.048-1.616-.419-.136-.8-.46-1.191-.718-.452-.296-.882-.65-1.345-.913-.89-.502-1.775-1.043-2.702-1.404-.683-.265-1.431-.267-2.217-.397-.314 1.912-.078 3.32.444 5.074.76 2.547.826 5.574-.33 8.953-.775-.589-1.466-1.165-2.197-1.646-.388-.255-.872-.283-1.267-.528-.424-.264-.801-.654-1.188-1.008-.085-.078-.108-.31-.192-.344-1.947-.766-3.87-1.785-5.864-2.111-.648-.107-1.973 1.487-2.137 2.516-.409 2.574-1.301 4.545-2.744 6.41-.918 1.187-1.35 2.963-2.21 4.965-.901-.752-1.945-1.611-2.977-2.492a23.946 23.946 0 0 1-1.352-1.255c-.815-.814-1.606-1.667-2.43-2.463-.38-.367-.861-.953-1.217-.874-.429.093-.953.705-1.112 1.243-.213.722-.085 1.593-.158 2.392-.09.992.14 1.917-.936 2.712-.616.454-.471 2.529-.626 3.58l-1.51 1.649c-.844-.474-1.589-.81-2.27-1.29-1.248-.878-2.45-1.857-3.685-2.762-1.138-.834-2.27-1.693-3.45-2.416-.986-.604-2.04-1.029-3.173-1.587-.181.662-.311 1.053-.394 1.459-.262 1.285-.044 2.588-1.376 3.537-1.698 1.21-1.658 4.647-3.87 5.584-.206.088-.213.912-.373 1.698-1.214-.76-2.939-1.137-3.328-2.25-.56-1.601-1.468-2.58-2.313-3.727-.721-.979-1.607-1.767-2.339-2.737-.237-.314-.216-.935-.324-1.475-1.84-.42-2.823.765-3.764 2.553-.647 1.226-1.776 2.049-2.677 3.07-.517.584-.977 1.253-1.52 1.793-.875.87-1.798 1.666-2.984 2.754l-.605-2.698c-2.299-1.444-4.11-3.683-5.655-6.382-.352-.613-1.346-.647-2.205-1.017-.602 5.091-3.457 7.794-6.107 10.863-1.134-2.061-3.736-2.15-4.412-5.019-2.117.233-2.558-2.89-4.325-3.424-.318-.097-.515-.817-.78-1.27-1.674.719-2.245 2.285-2.102 4.473.027.422-.35.89-.548 1.33-.386.864-.776 1.725-1.148 2.55-.782.749-1.774 1.383-2.403 2.377-.836 1.32-1.595.615-2.172.024-1.272-1.305-2.461-2.76-3.571-4.286-.913-1.254-1.622-2.742-2.5-4.042-.505-.746-1.168-1.326-1.883-2.117l-1.577 1.376.295.124c-1.191 2.269-2.175 4.79-3.65 6.717-.948 1.239-2.383-.17-2.87-1.303-.855-1.995-2.277-3.17-3.417-4.74-1.194-1.643-2.307-3.377-3.418-5.015-1.259 1.46-2.582 2.696-3.599 4.247-1.439 2.193-3.798 3.022-4.915 5.803-.438 1.092-2.086 1.419-3.186 2.095l-2.47-5.641.043-.05c-.559-1.38-1.108-2.767-1.677-4.14-.414-.994-.854-1.97-1.391-3.202h-1.82l-.298 2.12-7.137 7.948-2.766-6.21c-.072-2.22-1.971-4.832-3.713-4.951-1.874 1.616-3.303 2.838-4.722 4.077-.499.436-.96.942-1.466 1.366-1.15.967-2.294 1.955-3.486 2.832-.782.576-1.646.974-2.473 1.452-.922-3.047-2.09-5.861-1.311-9.269.158-.69-1.033-1.864-1.45-2.563-1.38.812-2.596 1.538-3.822 2.239-.25.144-.76.162-.771.292-.203 2.262-1.491.846-2.134 1.458l-4.166 2.729c-.052-1.468-.173-2.707-.12-3.935.06-1.446.103-2.951.463-4.3.406-1.524 1.142-2.914 1.76-4.342.338-.783.73-1.53 1.156-2.414-2.408-1.203-3.782.825-5.433 1.457-1.94.744-3.667 2.579-6.466 1.732.529-1.198 1.001-2.148 1.379-3.154.67-1.79 1.283-3.611 1.782-5.764-3.662 1.148-7.232 1.999-11.092.591.061-1.375.126-2.878.197-4.38.067-1.449.158-2.896.206-4.346.066-1.986.083-3.961-1.89-4.119-1.013.14-2.025.376-3.041.399-2.207.048-4.469-.868-6.57.826-.38.307-1 .147-2.177.274.552-1.397.808-2.381 1.278-3.164.888-1.476 1.202-3.389 2.6-4.532.764-.625 1.41-2.069 1.492-3.212.057-.807-.846-1.836-1.466-2.571-.526-.623-1.251-.992-1.908-1.425-.284-.187-.627-.228-.93-.376-1.227-.6-2.474-1.157-3.648-1.892-.167-.104-.164-1.334.082-1.654 1.104-1.441 2.303-7.99 3.512-9.297.516-.556 1.095-1.147 1.725-1.386 1.488-.566.963-1.813.853-2.795-3.16-1.463-4.503-5.207-7.075-8.026 4.271-1.48 8.334.492 12.713-.264-1.694-4.345-1.314-8.76-.72-13.353 1.068.69 2.244 1.21 3.183 2.113 1.32 1.272 2.446 2.855 3.69 4.256.64.721 2.236-.015 2.586-1.235.695-2.413 1.318-4.858 1.995-7.377 1.943-.824 3.004 1.26 4.267 2.477 1.337 1.288 2.42 2.987 3.703 4.376.532.577 1.299.815 1.68 1.042 2.892-4.565 5.51-8.699 8.075-12.745.572.555 1.395 1.137 1.983 1.978.79 1.13 1.326 2.537 2.1 3.686.88 1.306 1.908 2.45 2.854 3.685.216.28.303.775.55.949.38.268 1.069.652 1.24.456 1.44-1.647 2.758-3.46 4.178-5.135 1.299-1.533 2.6-3.11 4.084-4.312.324-.263 1.441.944 2.152 1.549.238.202.292.73.524.952.749.72 1.615 1.267 2.302 2.063 1.385 1.608 2.7 3.312 3.998 5.032.24.317.256.898.523 1.921 1.29-1.13 2.39-2.089 3.486-3.056.389-.342.784-.68 1.144-1.067 1.6-1.725 3.43-3.228 4.715-5.269 1.348-2.141 2.1-.315 2.742.377 1.116 1.203 1.906 2.868 2.914 4.245.758 1.035 1.79 1.676 2.021 3.346.084.606 1.113 1.006 1.877 1.639 1.163-1.381 3.112-2.115 3.343-4.937.043-.515.913-.848 1.228-1.416.907-1.63 1.635-3.427 2.622-4.968.39-.608 1.524-.302 1.603-1.604.244.12.545.169.718.38.191.235.2.785.402.911 1.224.763 2.489 1.422 3.718 2.171.307.188.571.545.794.886 1.173 1.794 2.832 2.41 4.529 2.624.52.066 1.185-.875 1.68-1.488.728-.9 1.337-1.951 2.044-2.88 1.457-1.917 2.914-3.839 4.454-5.645.251-.294 1.152-.258 1.38.054a42.772 42.772 0 0 1 3.068 4.793c.338.622.28 1.586.37 2.186.42.844.914 1.524 1.12 2.321.424 1.656 1.202 2.914 2.577 2.929.638.007 1.278-1.004 1.93-1.53 1.016-.82 1.987-1.775 3.08-2.387 1.352-.755 2.81-1.218 4.076-1.746 2.42 3.391 4.64 6.5 7.267 10.183.793-.452 2.397-.732 3.048-1.87 1.234-2.16 3.122-3.23 4.453-5.126.28-.397.431-.956.744-1.289.24-.254.853-.49.936-.361 1.153 1.77 3.13 2.14 4.191 4.265.601 1.205 2.188 1.67 3.375 2.35.283.16.957-.003 1.08-.278.84-1.88 2.298-2.892 3.496-4.277 1.272-1.472 2.247-3.34 3.418-4.96.343-.473.89-.844 1.388-.954.264-.059.638.518.928.855.152.179.203.624.348.665 2.086.569 2.848 3 4.19 4.61.481.578 1.02 1.08 1.42 1.813 2.395 1.19 3.283-1.876 4.868-3.084 1.631-1.244 2.887-3.26 4.56-5.237 1.225-.201 2.24.746 2.878 2.734.242.754 1.03 1.206 1.474 1.892.408.629.655 1.418 1.034 2.08.304.531.644 1.233 1.074 1.383.367.13.909-.365 1.33-.676 1.032-.764 2.1-1.481 3.038-2.401 1.13-1.108 2.127-2.427 3.209-3.615.622-.683 1.289-1.303 1.951-1.922.29-.27.634-.45.933-.707.941-.81 1.696-1.354 2.673.232 1.528 2.48 3.336 4.687 4.978 7.06.736 1.065 1.358 2.253 2.255 3.76 3.276-1.2 4.78-5.403 7.69-7.282l-.222-.537 2.152.489c-.203 1.538-.485 3.11.933 4.006.153.096.233.746.14 1.033-.688 2.104.457 2.456 1.773 2.914.307-1.795 1.243-2.138 2.5-1.688.176.063.54-.001.573-.119.694-2.36 2.141-.803 3.425-1.296.702-2.35 2.398-1.14 3.814-.955 1.358.18 1.133 1.643 1.326 2.863.327 2.076.877 4.096 1.459 6.697 1.211-.382 2.516-.857 3.843-1.187.605-.15 1.292-.183 1.878.02 2.018.702 4.008 1.531 6.193 2.384.68 1.91-.981 2.772-1.88 3.702-1.506 1.557-2.709 3.275-3.596 5.429-.168.408-.715.57-1.241.961zM54.776 13.088c-.43 0-1.04.175-1.542-.043a4.78 4.78 0 0 1-1.793-1.382c-.328-.416-1.599-3.238-1.985-3.69-.925-1.085-1.895-2.116-2.76-3.272-1.657-2.215-2.78-2.026-3.76.655-.475 1.293-.973 2.607-1.647 3.738-.351.59-2.222 2.48-2.262 2.985-.143 1.821-1.442 2.286-2.399 2.903-.557.359-1.652.051-2.236-.45-.891-.768-1.528-1.988-2.31-2.968-.936-1.17-2.331-2.082-2.769-3.48-.637-2.035-1.55-1.084-2.147-1.145l-3.597 9c-3.611-.826-5.768-4.375-8.416-7.021l-1.853.216c-.159 3.098-.342 6.063-.432 9.031-.014.471.526.942.572 1.447.117 1.289.258 2.638.05 3.874-.072.428-1.126.707-1.76.841-.488.104-1.02-.17-1.536-.193-1.746-.08-3.493-.133-5.24-.18-.864-.024-3.451.972-4.315 1.65-.079.061-.107.228-.269.596 1.122 0 1.437.653.993 1.412l6.948 9.63c-1.792 1.602-3.803 8.426-5.622 10.32-1.022 1.062-2.735 1.86-2.113 4.345l5.96 2.603.038.769c1.389.824 3.903-.842 3.588 2.966-1.803.644-5.42 8.56-5.38 10.908 1.717.173 3.449.55 5.167.466 1.757-.087 3.532-.471 5.242-1.012 1.654-.522 3.931.224 4.015 2.012.152 3.213.946 6.677-1.24 9.71.588.714 1.11 1.908 1.756 2.026 2.055.372 4.157.352 6.242.466.561.031 1.126.005 2.066.005-1.741 2.961-2.69 5.765-1.595 8.989l9.574-3.824.464.61c-.51 1.242-1.306 2.428-1.474 3.74-.359 2.793-.423 5.65-.523 8.484-.016.458.345 1.263.628 1.34.524.14 1.59-.06 1.611-.26.255-2.3 1.575-.975 2.39-1.15.463-1.45 5.974-4.28 7.228-4.008l1.543 3.612c.034.634-.196 1.981.185 2.36.984.981 1.11 1.965.862 3.355-.064.359.365 1.147.674 1.254.506.176 1.203.178 1.639-.138 1.53-1.114 2.999-2.368 4.46-3.628.534-.461.924-1.203 1.477-1.61 1.43-1.058 2.904-2.03 4.384-2.98.807-.518 1.662-.922 2.58-1.425.13 1.414.046 2.277.3 2.935.59 1.528 1.365 2.943 2.023 4.433.496 1.122.79 2.437 1.442 3.37.33.474 1.415.66 1.873.337.935-.659 1.714-1.704 2.494-2.672 1.517-1.883 2.919-3.928 4.538-5.658.362-.387 1.88-.044 2.082.46 1.387 3.437 2.565 7.006 3.915 10.826 1.552 1.174 2.45-1.352 3.83-1.901 1.104-.44 1.973-1.802 2.948-2.752.917-.894 1.19-2.392 2.626-2.977 1.311-.533 2.242-2.538 3.334-3.888 1.422 1.757 2.698 3.314 3.956 4.894.912 1.144 2.165 2.132 2.61 3.522.677 2.113 1.554 3.088 3.435 2.597.087-.303.15-1.088.357-1.154 2.058-.657 2.649-3.137 3.56-4.93.753-1.484 1.7-1.115 2.106-.746 1.135 1.033 2.025 2.486 3.021 3.76.681.873 1.414 1.686 2.06 2.596.63.886 1.178 1.86 2.066 3.28.445-.279 1.203-.607 1.821-1.174 1.192-1.092 2.397-2.206 3.418-3.53.758-.983 1.18-2.362 1.85-3.469.47-.772 1.084-1.423 1.702-2.014.074-.07.56.642.902.894 1.136.843 2.294 1.64 3.473 2.478-.057 1.786 4.103 5.118 5.776 4.764.775-1.473 1.441-2.796 2.157-4.075.379-.676.798-1.337 1.28-1.896.677-.786 1.48-1.407 2.135-2.216.898-1.107 1.802-.751 2.45.134 1.593 2.178 3.021 4.544 4.6 6.74.23.317 1.05.362 1.38.101 2.608-2.054 4.135-5.839 7.23-7.154.17-.071.318-.45.363-.716.31-1.826 1.29-1.96 2.178-1.735.84 1.335 1.49 2.421 2.186 3.457.587.872 1.321 1.608 1.823 2.545.824 1.54 1.487 3.215 2.3 4.765.084.158.823 0 1.103-.268 1.199-1.147 2.393-2.32 3.484-3.621.73-.871 1.467-1.87 1.879-2.998 1.145-3.136 3.015-4.884 5.132-4.313 1.255.338 1.978 2.326 3.526 1.922.029-.008.073.293.155.358 1.273.988 2.518 2.045 3.844 2.906.841.548 1.805.801 3.15 1.371.988-.462 1.654-1.79 1.463-3.841-.042-.46.145-1.003.332-1.436.446-1.03.955-2.017 1.438-3.022l-.223-.137 2.425-2.148v1.925l.393-.493 5.325 5.423 7.381-14.89c.652.1 1.843-.015 1.941.343.72 2.622 3.007 1.197 4.37 2.93 1.378 1.748 4.23 1.67 6.117 2.287l1.414-1.984c-.255-.884-.68-1.625-.628-2.307.193-2.497.673-4.957-.603-7.3-.251-.462.014-1.365.027-1.692.936.482 1.625.985 2.365 1.18 1.013.265 2.683-.138 2.975.517.688 1.541 1.628 1.068 2.512 1.297.84.22 1.751.281 2.492.754 2.086 1.33 4.26 1.541 6.507 1.447.142-2.664-1.019-5.945-1.958-6.407-.554-2.538-1.062-4.878-1.585-7.213-.023-.104-.23-.13-.276-.242-.23-.55-.437-1.115-.652-1.676.478-.107.969-.36 1.43-.291.912.134 1.836.7 2.454-.745.093-.217.478-.328.73-.33 2.535-.025 5.071-.015 7.97-.015.324-5.008-2.77-7.985-4.403-11.815l11.356-5.728c.157-2.624.156-2.622-1.698-3.543-.202-.101-.415-.212-.577-.386-1.385-1.494-2.779-8.196-4.13-9.738-.629-.719-1.169-1.56-1.559-2.089.826-1.545 1.656-3.151 2.532-4.715.431-.772.87-1.587 1.444-2.169.997-1.012 2.354-1.578 2.403-3.592.006-.25.158-.686.284-.712 1.8-.366.73-1.961.987-3.065l-14.16-1.044-2.643-11.07-.659-.023-.942 1.502c-.83.119-2.051.013-2.135.353-.435 1.74-1.355 1.196-2.243 1.086-.381-.047-.987-.179-1.124.06-1.63 2.833-3.69.255-5.42 1.12-.103-1.2.043-2.561-.282-2.77-1.27-.818-.812-1.986-.722-3.155.051-.675.009-1.361.009-2.762-1.05.696-1.8 1.08-2.44 1.652-.615.548-1.092 1.331-1.674 1.944-1.629 1.713-3.324 3.331-4.907 5.107-.913 1.025-1.595.85-2.227-.264-.694-1.224-1.28-2.545-1.986-3.757-.912-1.57-1.917-3.053-2.843-4.612-1.263-2.127-2.44-2.821-3.987-1.9-.819.487-1.469 1.442-2.163 2.23-.55.624-1.019 1.367-1.583 1.97a133.73 133.73 0 0 1-3.744 3.81c-.258.253-.614.356-.93.509-.727.353-1.458.695-2.006.956-.63-.58-1.38-.976-1.767-1.684-1.196-2.185-2.297-4.457-3.344-6.76-.535-1.18-.818-.97-1.487-.117-1.097 1.4-2.37 2.582-3.555 3.875-.91.993-1.935 1.884-2.668 3.057-.937 1.502-1.854 2.723-3.215 2.405-.622-.796-1.054-1.358-1.494-1.91-.906-1.136-1.987-2.124-2.69-3.433-1.3-2.426-2.325-3.163-4.15-2.817L159.8 15.53c-2.6-.847-4.144-2.305-5.812-4.816-.707-1.064-1.837-1.684-2.854-2.576-.386 1.084-.474 1.8-.806 2.182-1.599 1.842-3.179 3.741-4.937 5.32-1.017.911-2.051 2.567-3.343 1.108l-6.422-10.267c-1.478 1.032-2.567 1.872-3.712 2.569-1.093.665-2.286 1.08-3.357 1.793-.848.566-1.577 1.415-2.381 2.16l-1.627-1.892c0-.214.145-1.01-.022-1.13-1.533-1.108-1.597-3.265-2.357-4.914-.677-1.468-1.286-3.045-2.192-4.262-.4-.537-1.754-.757-2.167-.335-1.78 1.808-3.368 3.91-5.03 5.902-1.192 1.427-2.39 2.846-3.81 4.536-1.886-1.242-3.969-2.606-6.042-3.995-.125-.084-.13-.426-.253-.539-1.001-.91-1.993-1.843-3.05-2.64-.194-.147-.76.176-.994.478-.603.775-1.105 1.67-1.666 2.497-.786 1.162-2.391 1.498-2.268 3.6.013.218-.349.458-.521.706-.614.88-1.435 1.656-1.783 2.681-.544 1.6-1.256 2.295-2.289 1.383l-8.01-9.387-9.038 9.86c-1.068-.636-2.173-.926-2.845-1.763-2.219-2.762-4.225-5.793-6.453-8.541-.423-.523-1.757-.67-2.204-.234-1.65 1.608-3.111 3.523-4.628 5.342-.696.836-1.357 1.721-2.151 2.732z"/></g></g></svg>