<svg data-name="Calque 1" xmlns="http://www.w3.org/2000/svg" viewBox="0 0 400 293.29"><path d="M28.65 230.42L5.08 265.3a1.52 1.52 0 001.46 2.38c25.06-3.46 187-31.49 365.11-197.07a1.53 1.53 0 012.61 1.29c-2.09 10-7.36 34.79-13.21 56.8a1.49 1.49 0 001.17 1.86c4.3.82 16.37 2.92 24.57 2.39a1.43 1.43 0 001.4-1.27c1.18-8.71 8.48-64.43 6.74-102.65a1.42 1.42 0 00-1.12-1.39c-6.13-1.47-41.91-3.87-87.95.26 0 0-1.4 14.35.27 18.18.18.41.72.44 1.17.44 5.44 0 44.17 2.74 57.2 3.49a1.47 1.47 0 011.06 2.47C349.85 70.4 237.84 190.65 29.64 229.78a1.55 1.55 0 00-.99.64z" fill="#020202"/></svg>