<svg xmlns="http://www.w3.org/2000/svg" width="13" height="17" viewBox="0 0 13 17"><g><g><g><path fill="#020202" d="M7.123 10.126l-.027.011c-.002 0 .003-.005.004-.008l.022-.007zm.624.934c.01-.005.02-.01.041-.024l-.008.002.02-.015s.006-.001-.004.008c.01-.006.005-.002 0 .003h-.003c-.022.027-.044.057-.032.053.058-.02-.01.024.004.025.004 0 .018-.006.028-.009l.108-.041c-.01.007-.018.016-.03.022-.04.024-.04.034-.017.026.049-.017-.011.02.007.019.013-.002.019.002.04.001a.025.025 0 0 1 .005-.004l.051-.021c-.008.006-.016.011-.047.025.008-.001-.005.004-.018.008a.422.422 0 0 0-.05.022c-.003.011-.013.029.003.027.026-.004.03 0 .004.023-.008.007.005.008.008.012.065-.037.06-.02.059-.009-.002.013-.03.045-.013.041.043-.01-.045.048.019.027.024-.008.015.017.026.024.015.01.03-.013.047-.024a.313.313 0 0 1 .031-.017c.023.006.091-.028.129-.035.006-.001.01.002.006.006a.183.183 0 0 1-.035.025c-.023.013-.062.038-.065.026-.003-.016-.074.033-.085.026-.008.005-.016.01-.021.015-.003.002-.002.005.001.004.017-.003.038-.008.053-.009.026-.002.053-.005-.006.034.01-.002.018-.002.03-.006.021-.008.057-.02.065-.028.026-.02.002-.014-.019-.01-.009.002-.006-.005-.01-.008.017-.006.038-.016.049-.019a.372.372 0 0 1 .058-.008c.05-.003.05-.002-.03.043a.349.349 0 0 0-.08.054c-.003.003.005.004.013.001.013-.004.03-.011.044-.018-.02.018-.053.042-.012.03.004-.001.04-.033.064-.052l.082-.054c-.017-.008.01-.04-.034-.035-.01.002.026-.033.046-.053.022-.024-.068.015-.014-.025.043-.033.048-.046-.004-.03-.005.002.003-.014.007-.016.069-.037.048-.041.05-.054.001-.025.01-.052.011-.077 0-.004-.021-.002-.032.004-.062.032-.108.054-.05.003-.01.003-.02.004-.03.01-.021.01-.042.02-.068.035-.002.003-.003.007-.008.012l-.021.009c.005-.004.01-.009.022-.017-.001 0-.001 0 0 0 .006-.017-.022-.02.056-.062.001-.016.071-.066.003-.047.043-.03-.033-.004.017-.039.016-.011.01-.03-.01-.028-.058.003-.045-.034-.052-.059-.006-.017-.025-.027.007-.066.02-.024-.024-.024-.043-.032a.14.14 0 0 0-.051-.007c-.019 0-.054.01-.065.006-.013-.006.003-.03-.017-.03-.021-.002.065-.053.005-.032-.002.001 0-.006.004-.009.103-.064.07-.068.027-.062-.029.004-.022-.01-.031-.016-.017-.01.018-.05-.049-.03-.008.002-.011-.007-.003-.013.053-.045-.003-.03-.016-.039-.012-.008-.06.005-.012-.036.008-.007-.001-.014-.014-.01-.05.013-.044-.009-.031-.026.052-.067-.001-.073-.067-.073-.004 0 .019-.019.029-.028-.017 0 .046-.034.005-.027-.041.008-.089.013-.047-.032.01-.011-.013-.014-.034-.009-.04.01-.042-.006-.029-.022.055-.064-.008-.067 0-.107 0-.002-.011-.002-.016 0-.08.043-.023.002-.027-.003-.023-.032.009-.094-.066-.097-.018-.001-.005-.023-.004-.037 0-.004.013-.017.01-.016-.109.035-.054-.027-.08-.041.053-.04-.011-.018-.01-.03 0-.013-.013-.01-.045.017-.027.024-.062.05-.097.074-.01.008-.031.016-.047.024.012-.01.022-.018.036-.027.033-.022-.001-.022.064-.056.034-.019.075-.056.013-.041-.028.007-.005-.017.042-.029l.043-.034c-.015.006-.035.015-.045.017-.02.004-.08.031-.027-.01.044-.036-.054.007-.021-.028.02-.021.006-.032-.002-.042-.003-.005-.027 0-.043.003a.22.22 0 0 1-.059-.001l.018-.017c-.064.02-.026-.02-.05-.024a.134.134 0 0 0-.029.011c-.054.026-.035.009-.027-.006.008-.015.071-.058.01-.04.051-.038.024-.033-.007-.028-.015.002-.005-.014-.01-.02-.004-.004-.013-.005-.02-.007l-.067.045-.046.03c0-.008-.01-.013.003-.024a.648.648 0 0 1 .096-.063c.062-.033.058-.04.052-.05-.005-.009-.007-.02-.01-.03-.004-.017-.024 0-.052.023a.192.192 0 0 1-.044.02c-.008.002-.011-.004-.004-.01.017-.015.04-.03.061-.046.04-.03.041-.033-.018-.01-.059.022.007-.015.002-.017-.056-.026-.066-.05-.048-.101.001-.003-.006-.004-.013-.002-.013.004-.03.012-.044.018.018-.015.043-.033.003-.02a.1.1 0 0 1 .018-.02c.021-.017.019-.02.007-.025-.021-.009-.056-.017.02-.075.027-.02.004-.011-.008-.01-.032.004-.027-.011-.025-.027.002-.013.042-.058-.06-.007-.004.002-.01-.012-.009-.021.001-.01.025-.035.012-.033-.073.006-.013-.064-.088-.055.058-.05-.028-.006-.049-.003-.026.004-.044.01-.02-.018.024-.026.086-.078.004-.053.02-.014.056-.037.055-.04-.007-.019.007-.048-.033-.05-.043-.002-.019-.038.045-.093.011-.01.02-.023.013-.022-.065.007-.086-.011-.086-.042 0-.013-.016-.01-.06.013-.001 0-.015-.005-.007-.012.037-.031.016-.034.01-.043-.006-.01-.027-.013-.043-.018-.013-.004.054-.05-.009-.027.03-.028.001-.025-.008-.033-.006-.004.008-.02.013-.031-.12.061.015-.028-.026-.014.044-.036.017-.023-.026 0 .001-.004-.002-.008.004-.012.096-.063.091-.06.015-.05-.018.001.037-.045-.025-.022l-.062-.068c-.011-.012.003-.032.037-.065.029-.027-.085.026-.063-.006.017-.025.018-.043.02-.062.003-.014 0-.025-.047-.01-.019.006-.025 0-.034-.003-.012-.003.053-.045-.007-.024-.02.007-.023-.005-.033-.009-.005-.002-.015-.004-.01-.008.055-.041-.002-.02-.008-.028-.006-.007-.053-.004.039-.054.005-.003.006-.012.012-.02.019-.023-.089.025-.023-.026.044-.033-.064.01.002-.036-.03 0-.058-.004-.093-.001-.013 0-.01-.003-.007-.01.015-.042.015-.076-.062-.066-.066.038-.054.017-.06.009-.005-.008-.006-.017.047-.043-.018-.004.015-.034.003-.041a.15.15 0 0 0-.044.013c-.035.013-.027.007.001-.011.018-.012.013-.035-.001-.034-.013.002-.06.024-.019-.008.016-.011.039-.03.035-.032a.078.078 0 0 0-.053.005c-.057.028-.031.012-.027-.001a.29.29 0 0 1 .028-.065l.025-.035c-.02.013-.041.027-.063.039-.011.006-.032.013-.035.011-.003-.002.004-.011.014-.02l.076-.054c-.093.036.036-.05-.025-.032-.051.016.013-.049-.094.005 0 0-.006-.006-.002-.012a.53.53 0 0 1 .038-.054c.017-.021-.016.001-.03.007a.172.172 0 0 1-.027.009c.009-.014.074-.05.041-.047-.038.004-.02-.009.03-.037.005-.003.011-.008.011-.01-.007-.03.01-.073-.06-.068-.041.004-.085.01-.081-.014.003-.022-.038-.022.008-.066.007-.007.006-.015-.001-.013-.049.016-.032-.007-.038-.017-.006-.008 0-.024-.013-.028-.015-.005.038-.041.006-.037l-.013.004.031-.082c-.026-.023-.077-.03-.092-.06-.053.018-.002-.018-.004-.026-.002-.006-.063.018-.062.011.002-.012.003-.021-.008-.028-.015-.01-.024-.019-.076-.002-.04.012-.054.013-.027-.018.044-.052.03-.087.015-.115-.006-.01-.005-.025.005-.045.018-.034.038-.075-.057-.047-.012.003-.02-.004-.013-.01.04-.033.007-.021-.013-.022-.025 0-.08.013-.003-.044.038-.028.021-.037-.008-.035-.015 0-.11.041-.001-.021.001 0 .001-.007-.002-.006-.07.027-.07.006-.067-.013.002-.015-.063.006-.014-.034-.049.014-.008-.02-.01-.032-.001-.011-.036-.004-.037-.011 0-.022.003-.046-.056-.033-.01.001-.01-.009-.004-.012.077-.051-.013-.02.007-.045.021-.025.003-.036 0-.052l-.014-.043c-.005-.015-.002-.034-.017-.041-.011-.006-.061.011-.07.005-.01-.007.032-.044.016-.044-.04 0 .003-.04.004-.058 0-.007.021-.022-.016-.003-.042.021-.051.017-.035.002.041-.038.031-.052.002-.051-.024 0-.025-.009-.031-.016-.01-.012.004-.042-.027-.033-.06.017.035-.05-.032-.024.009-.027-.042-.024.007-.07.007-.008-.008-.008-.014-.01a.089.089 0 0 0-.022-.007c-.02-.003.043-.049-.009-.037-.031.006-.039-.006-.06-.007-.033-.001-.047-.012-.01-.05.01-.01.057-.037.018-.027-.025.007-.018-.013-.078.022-.046.027-.05.02-.041.003.007-.015.085-.063.022-.046-.042.012.038-.037-.006-.03-.04.007-.036-.022.031-.073.008-.006.002-.013-.008-.012-.062.006-.072 0-.074-.031-.001-.02-.022-.03-.044-.039-.05-.02-.099-.032-.053-.126-.042.015.005-.022-.016-.015-.05.016-.058.008-.029-.02.044-.04-.006-.029-.038-.016-.064.027-.04.01-.026-.01.046-.063.042-.062-.01-.07a.087.087 0 0 0-.039.009c-.034.016-.037.012-.013-.005.054-.037.013-.026.009-.035-.004-.009.04-.042.014-.042-.004 0-.015.005-.03.012-.002.004-.003.007-.007.011l-.021.01c.004-.005.009-.01.021-.018.04-.04.055-.069.008-.063-.031.004.033-.032.01-.03-.021.003-.066.013-.06.008.039-.035-.022-.004-.036-.003-.032.003-.03-.01-.015-.033a.208.208 0 0 0 .037-.068c.002-.013-.079.017-.008-.033l-.045-.017c-.02-.007-.08.007-.015-.044-.024 0-.03-.01-.027-.026.003-.02-.088.011-.043-.037.007-.007-.033.002-.05.004-.059.005-.092-.004-.052-.055.008-.01-.029-.002-.021-.012.011-.015.042-.037.005-.028-.007.002-.005-.005-.002-.01.024-.038.032-.043-.018-.048-.02-.002.056-.056-.022-.023-.007-.013-.016-.025-.018-.04-.001-.014-.03-.014.017-.051.006-.005-.002-.01-.009-.008-.1.043-.065.007-.049-.02.005-.007-.001-.01-.006-.013-.005-.003-.026 0-.02-.006.062-.068.002-.07-.045-.078-.028-.005-.044-.013-.016-.046.02-.022.013-.025-.036 0-.005.002-.014.001-.013-.002.001-.006.017-.024.01-.022-.075.02-.01-.033.016-.051.055-.036.062-.047.016-.031-.084.028-.07.003-.066-.022.003-.028-.007-.05-.045-.058-.037-.008-.023-.048-.097-.035-.007.001.003-.01.006-.017.005-.01.024-.03.014-.029-.052.008-.022-.031-.053-.033-.035 0-.032-.02-.048-.03-.007-.005-.041.008-.063.013.026-.019.054-.038.077-.056.009-.007.014-.019.008-.017-.063.019-.039-.014-.045-.027-.007-.014-.031-.02.017-.06-.074.013-.033-.04-.069-.049-.013-.003-.06.004-.011-.036.008-.006 0-.01-.008-.012-.02-.003-.047 0-.063-.005-.018-.006.013-.04-.044-.023.043-.031-.03-.009.019-.042-.059.018.015-.032-.003-.036-.009-.002.043-.041-.03-.002-.005.002-.016.002-.016 0 .008-.032-.055-.03.03-.1.034-.028.026-.046.031-.066a.362.362 0 0 0-.05.018l-.046.022c.007-.008.012-.015.022-.023.02-.016.03-.034.031-.043 0-.006-.041-.01.044-.033.03-.025.016-.04-.025-.027-.032.01-.066.022-.094.028-.01.003-.013-.004-.007-.012.03-.037.014-.046-.025-.046-.032 0-.09.012-.027-.043.012-.01.006-.02-.007-.019-.038.003-.041-.01-.01-.044.02-.023-.014-.024.037-.064.047-.036-.024.005-.026.003-.015-.012-.1.017-.056-.031.028-.03.023-.046-.018-.041-.026.003-.032-.004.002-.031.078-.063.017-.06.02-.086-.1.047-.056 0-.08-.003-.017-.002-.03-.002.004-.029.038-.03.034-.042-.008-.029-.073.022-.038-.024-.095-.01.058-.042-.008-.018-.01-.027-.003-.01-.024-.013-.029-.022-.003-.007.013-.024.012-.031-.002-.007-.025-.004-.022-.012.011-.047.013-.087-.048-.094-.02-.003-.021-.02-.012-.038.009-.02-.09.024-.028-.025.003-.002-.013-.004-.026 0-.07.024-.01-.033-.074-.012.003-.003.009-.007.01-.01.03-.036.027-.037-.037-.019-.008.002-.016.001-.013-.002.06-.064.066-.08.037-.095-.004-.002-.001-.008 0-.013.001-.01.083-.053.029-.04-.037.008.01-.022.015-.034.002-.004-.014-.005-.018-.003-.067.038-.047.012-.061.01-.008-.001-.042.014-.065.022.02-.014.057-.036.056-.04 0-.012.007-.028-.024-.025-.05.006-.098.007-.042-.048-.051.01-.021-.016.015-.048.012-.01.001-.013.011-.023.04-.04-.075.008-.03-.038.025-.027.006-.039-.002-.052-.006-.01-.022-.013-.044-.013-.025.001.053-.048-.003-.031-.033.01.046-.043-.01-.027-.024.007-.031-.016-.01-.032.06-.048-.002-.026-.016-.03-.024-.006-.035.023-.05.028-.011.003-.023 0-.019-.003.064-.052-.014-.041.048-.092-.052.013-.032-.017-.062-.017-.048 0-.043-.03-.033-.06.017-.055.001-.068-.033-.1-.026-.026-.066-.047-.01-.116.005-.007.005-.015-.003-.013-.072.021-.066-.009-.112-.005-.006 0-.02.007-.025.006-.01 0-.027 0-.02-.006.051-.051-.06-.019-.007-.067.021-.018.037-.032.05-.05.045-.057 0-.067-.001-.1 0-.004-.043.015-.06.019-.005.001.01-.014.015-.021-.085.042-.062.01-.072.001-.011-.011.008-.039-.043-.03-.03.006.005-.045-.09.033a.083.083 0 0 1-.021.006c-.004-.001 0-.006 0-.01.092-.044.018-.046.105-.09-.008-.004-.008-.013-.025-.01-.026.005-.036.005-.005-.02a.077.077 0 0 0 .027-.035c.007-.024-.035-.024.018-.07.002-.003.001-.005-.001-.005-.092.018-.029-.035.036-.09.008-.007 0-.011-.007-.012-.017-.003-.04-.002-.056-.005s-.019-.011.012-.037c.017-.016.006-.018-.036.002-.012.006-.031.008-.032.004-.002-.008.014-.024.012-.031-.002-.007-.033-.002-.025-.009.052-.044-.014-.025-.014-.04 0-.012-.08.023-.028-.02.004-.003-.055.013-.054.005.004-.019.03-.049.021-.062 0-.002.017-.013.02-.018.025-.031-.047-.011-.034-.03.017-.028.038-.053-.008-.046-.004 0-.009.002-.013.004.057-.043-.023-.012-.013-.03.009-.017.002-.025.03-.052.045-.045.074-.086-.002-.07-.038.007-.045.005.018-.033.033-.019.027-.027 0-.019-.085.026-.067-.008-.06-.035.004-.018.022-.042.033-.063.002-.003.001-.007-.003-.005-.074.026-.05-.01-.073-.015-.03-.006-.017-.032-.015-.054.003-.024-.027-.03.014-.074.012-.012 0-.021-.018-.018-.028.005-.034.001-.005-.023.008-.006.01-.015.003-.014C2.21.82 2.23.78 2.235.75c.002-.01-.017-.01-.033-.01a.37.37 0 0 0-.054.03c-.012.01-.014.017-.021.025C2.12.792 2.11.791 2.11.785c.004-.026.005-.028-.06.003-.03.014-.054.027-.055.016 0-.001-.022.008-.03.013L1.83.899c-.087.053-.134.091-.122.107.009.012-.013.03-.058.058-.013.008-.034.025-.031.027.027.015-.066.083-.065.11l-.01.008c-.004.017.114-.04.048.012-.041.034-.04.047-.036.06l.03.09c.001.003-.003.011.005.011.01 0 .03-.01.044-.012.007-.002.017-.002.014 0-.029.033-.048.06-.04.076.005.013.026.06.047.064.006.001.018.003.016.005-.064.044.044.001-.004.038-.037.027-.013.024.017.014.043-.013.053-.011-.012.025-.005.003-.013.017-.007.017.018 0 .039 0 .066-.008.04-.01-.044.044.01.028.022-.007.004.024.026.018.057-.017-.03.032-.005.031.031-.001.047.007.054.022.008.015-.022.048.008.053.028.005.014.036.024.053.01.018-.005.05.048.046.01 0-.019.03.02.023l.009-.007.016-.003c.001 0-.005.005-.02.01.004 0-.002.002-.009.004-.017.01-.03.02-.031.025-.006.019-.005.035-.008.052l-.01.01c.105-.03.032.04.057.056a.167.167 0 0 0 .05-.017c.037-.02.062-.035.032-.003-.015.016-.046.058.054.008l-.004.013c-.01.025-.02.051.028.046.006 0 .013-.001.012.002-.006.011-.023.03-.019.035.002.003.059-.024.06-.02.007.01.012.024-.005.045-.018.022-.003.02.026.011.035-.01.045-.01.006.018-.024.018-.017.018-.004.02.028.005.041.02-.026.072-.03.024-.02.028.031.003.01-.005.02-.007.028-.01-.09.063.054.016-.003.055-.081.054-.048.053-.029.053.057 0 .089.014.081.05-.002.015.06-.01.018.03-.022.02-.006.033.012.037.013.003.015.011.023.017.01.01.011.024.029.028.026.006.065.007.045.037-.011.016-.026.034-.02.043.008.013-.038.057.03.038.007-.002.003.005.002.01-.002.007-.003.014-.01.023-.024.034.082-.005.04.039-.038.038.009.035-.01.062-.018.028.07-.01.038.025-.02.024-.006.035-.01.052-.004.023-.012.048-.015.07-.003.022-.002.043-.002.064 0 .003.003.008.01.005.056-.02.052-.003.057.01.004.01-.001.026.04.014-.04.029-.016.03-.023.043-.017.037.064.02.034.063.039-.011.045-.002.019.02-.04.034.054-.01.017.02-.05.04.053 0 0 .046-.046.038.004.03.028.033.013.003.015.013-.01.038-.018.018-.039.046.042.006.008-.004.022-.004.024-.001.007.01-.006.039.021.031.044-.012-.034.044.032.013l-.024.044c-.007.013.038.005-.037.045-.007.004-.02.017-.019.02.002.016 0 .034.015.042.012.007-.052.052.006.036.01-.003-.02.026-.019.035 0 .008.029.007.023.011-.047.033.03-.002.005.02-.036.03-.029.036.036.001l.034-.018c.051-.028.062-.03.025.001-.013.01-.012.022-.023.027-.094.054-.012.032-.035.055.071-.022.081-.006.1.009.026.018.1.008.058.065-.003.005.016.002.03-.002.05-.015.09-.025.046.02-.02.019.006.022.006.035 0 .028.042.034-.009.087-.009.01-.006.02.006.016.06-.016.014.028.042.031.032.004.015.037-.018.075-.02.024-.032.045-.048.068.04-.014.104-.043.055.002l-.01.01c.075-.018.09-.003.022.056l.034-.011c.035-.009.087-.028.044.013-.01.01.01.01.017.014.01.005.022.01.03.017.012.012-.003.039.046.032.022-.003.025.016.005.035-.034.032.005.017.025.008.063-.027.093-.04.005.013l-.031.066c-.005.007-.027.025-.022.026a.088.088 0 0 0 .053-.005c.11-.056-.002.015.017.012.018-.002.006.018.024.015.029-.005.017.006.005.023-.024.031-.054.07.029.044-.029.03.037.01.023.033-.01.017-.037.048-.02.046.033-.004.036.008.04.02.005.011.004.025.013.034.014.013.014.037.055.03.047-.007-.026.04.005.036.029-.004.061-.009.076-.003.013.005.005.023.005.036 0 .004-.015.016-.011.016.013.001.04-.007.046-.003.006.004-.014.023-.01.028.015.026-.005.071.06.07.012 0 .006.013.008.02.01.052.023.066.105.063.024-.001.036-.008-.014.024-.04.025-.047.047-.01.043.047-.005.065.006.03.047-.012.015-.004.022-.003.03.001.012.022.016.004.033-.047.041-.013.035.015.035.027 0 .071-.01.022.036-.033.031.024.025-.011.062-.03.033.027.02.042.027.02.009.038.017.04.035.007.034.08.03.068.075 0 .004.022-.002.038-.007.052-.02.11-.042.042.013.029.007-.043.066.016.058.017-.002.023.012.008.025-.046.043-.01.033.032.024.02-.004.019.008.023.016.013.022.024.046.036.07.081-.03-.045.05.014.034.042-.012.035.008.017.032-.004.004-.002.008.004.007.01-.002.028-.01.042-.014l-.045.027c-.003.003-.004.008 0 .007.035-.01.033-.002.006.022-.02.016-.016.022.024.005.016-.007.037-.013.04-.01.02.028.07.04.07.08 0 .023-.012.055.051.043-.052.036.016.015-.012.04-.018.019-.03.037.04.008.084-.033.039.022.073.025.024.002-.012.04.037.028.005-.001.005.003.001.006-.056.048-.041.063-.04.085.001.006-.03.028-.043.042-.004.004.007.005.009.004.056-.031.059-.019.048-.006-.022.028-.035.047.028.025.008-.002.017-.002.016-.001-.068.056.014.031.018.048.003.01.06.004-.04.06l.013.003c.05.004.12-.002.101.042-.01.022-.01.035.015.039.024.004-.013.043.049.025.04-.011-.054.044-.003.03.023-.006.018.012.02.022.003.01-.002.024-.004.036 0 .004-.004.01.002.01.077-.002.067.046.086.079.012.022-.012.064.054.057.02-.002.005.016-.023.038.161-.05.027.075.131.059-.066.063.024.05-.031.11-.035.037.041.026-.018.079 0 0 .02-.007.024-.006.014.004.12-.059.075-.017-.038.036.02.008.021.018.004.023-.013.059.05.05.01-.002-.001.012-.005.02-.004.009-.017.021-.017.027.001.019.02.027.044.033.018.005-.024.047-.012.057.03.02.073.035.12.046.01.003-.042.035.004.02.022-.007.016.013.02.022.005.008.011.015.008.026a.145.145 0 0 1-.026.04c-.022.027-.013.04.015.039.033-.001.044.01.047.026.002.01.004.01.065-.024a.151.151 0 0 1 .03-.013c.007 0 .01.003.01.008-.002.003-.018.014-.02.018-.01.016-.086.046-.07.057.015.01-.016.048.058.024.037-.012.038-.005.01.02a.115.115 0 0 0-.03.036c-.003.007 0 .013.011.01.067-.013.074-.015.046.027-.01.014-.017.024.011.015.05-.017.06-.013.01.024-.008.005-.011.01-.016.015.076-.028-.005.027.008.033.007.003.028-.001.038 0a.059.059 0 0 1 .029.013c.004.003-.005.014-.001.018.005.005.014.008.026.009.027 0-.027.043.007.043.03 0 .017.031.022.048l.016.047c.005.016.007.033.016.047.01.018-.005.05.05.045.016-.002-.01.027-.008.036.002.009.021.008.027.016.002.002-.013.014-.021.022-.052.05.087-.012.05.022-.057.048-.042.056.004.048.037-.007.035.008.046.017a.173.173 0 0 0 .056.025l.057-.032-.015.025c-.004.006-.008.013-.008.018 0 .005.002.009.004.013l.029-.012-.027.02c.003.008.017.01.005.023-.022.021-.044.04 0 .029.015-.004.011.012 0 .026-.013.015-.019.023.006.017.033-.007.023.007.01.026-.014.02-.01.034-.002.044.002.003.043-.015.066-.024-.01.01-.023.022-.026.03-.002.003.016 0 .028-.006l.073-.033-.076.045-.05.033c.015-.007.036-.018.045-.02.013-.002.02 0 .024.004.013.01-.046.062.046.024.003-.001 0 .012-.006.016-.084.05-.06.046-.013.035.021-.004.038-.002.038.006 0 .04.059.047.002.115-.004.005.016 0 .019.003.008.008.032.011.016.028-.028.027.013.014.011.022-.004.017.09-.03.04.014-.033.028.015.014.025.019.02.009.032.025-.002.056-.04.037.012.016.03.02l.007-.006.017-.003s-.006.005-.02.01c.002 0 0 .001-.004.003-.051.045-.05.046.02.013.034-.016.056-.027.052-.014-.006.017-.022.04-.02.052.002.01-.057.056.021.024.035-.014.001.008-.002.015-.01.02-.037.053-.016.052.034-.003.018.019.032.025.002.001 0 .004.002.004.016.003.097-.038.047.01-.02.018-.004.027.01.033.012.006.024.01.01.032-.01.015.012.017.005.032-.006.013.062-.02.024.011-.004.003.01.005.024 0 .054-.02.054-.002.072.002.006 0-.002.013-.013.022-.058.05-.054.057.022.03.007-.002.01 0 .015.001l.029-.012-.027.02c-.006.018.024.017-.007.048-.014.014.023.01.028.019.01.017.03-.009.055-.025.008-.005.043-.015.047-.012.003.003-.023.022-.036.034a.178.178 0 0 0-.083.048c.064-.023-.03.04.014.028.04-.01.034.004.013.028-.015.016-.017.034.001.032.027-.003.039-.005.014.022-.013.013.021.011.042.01.008 0 .038-.015.058-.023-.017.012-.036.023-.05.034-.008.005-.014.014-.01.013.058-.015.011.026.013.04.002.014.023.018.026.03.005.016 0 .036 0 .054 0 .013.004.024.052.007a.243.243 0 0 1 .06.02c-.042.032.036-.006.02.012a.211.211 0 0 0-.027.035c-.023.043-.013.077.036.094.008.003.035-.007.005.016-.052.04-.047.055-.015.051.027-.003-.004.015-.003.02.001.004.033-.008.048-.01.006-.002.01.002.005.007-.036.037.022.03-.03.075-.008.008.046-.003.06 0 .019.006.096-.022.029.032-.016.013.008.015.004.027-.006.02.041-.003.066-.007.034-.006.041.002.09-.04 0 0 .022-.008.026-.007.005.002.01.008.004.012-.102.068-.048.065-.01.07a.224.224 0 0 0 .026-.02c.009-.009-.007-.018.035-.022.01 0 .026-.006.041-.01l.029-.01-.022.016c-.016.01-.034.018-.099.048.026-.009.004.003-.019.015a.122.122 0 0 1-.018.007c-.067.04-.026.033-.028.045.011-.008.022-.016.035-.023l.045-.026c-.002.005-.002.009-.007.014-.016.018-.031.036-.052.056-.019.017-.007.016 0 .02.02.015.048.029.03.061-.014.025.008.008.035-.003.009-.004.016.004.009.011-.022.022-.064.051-.048.06.009.004.016 0 .04-.018a.181.181 0 0 1 .046-.019c.006 0-.004.012-.008.018-.002.002-.01.008-.01.01.002.006-.093.042-.034.032.022-.004.023.009.079-.024.04-.023.034-.026.036-.036.005-.016.05-.046.088-.058.01-.002.007.006.008.01l-.022.012c-.018.005-.039.01-.038.022 0 .006.018.003.028.004-.027.015-.054.032-.08.045-.068.034-.03.037-.071.063.015-.006.032-.014.045-.018.007-.003.013 0 .01.003-.053.049-.053.049.009.037.005-.002.004.006.001.008-.086.052-.038.045-.027.053.01.006.03.008.056.004.046-.008-.05.051-.012.046h.016l.018-.015c-.004-.02.03-.027.05-.03.022-.004.033.022.036.035 0 .007.031-.002.033.003.003.006-.103.056-.027.037.026-.006.004.021.037.017.032-.004.04.004.089-.038 0 0 .021-.008.025-.007.004 0 0 .008-.006.012a.806.806 0 0 1-.064.036c-.064.031-.077.055-.114.083.009-.002.016-.002.026-.006.087-.039.093-.037.047.015.001.004.009.006.003.013-.043.051-.02.067.032.071l.008-.006.017-.003s-.006.005-.02.01c.003 0-.004.002-.01.004l.002-.002a.126.126 0 0 0-.03.016c.01.022-.022.067.046.056.027-.004-.052.048.011.026.035-.011.051-.005.083-.013.047-.012.023.002-.02.024-.047.024-.062.039-.035.036.013-.001.028-.007.008.01-.028.026-.013.025.035 0 .02-.01.044-.02.061-.026.063-.022.07-.02.043.014-.012.016-.058.048-.004.03.03-.008-.025.025.005.02.043-.005.03.005-.044.05-.04.024-.04.029-.027.031.01.002.028 0 .034.004.017.015.038-.019.057-.029l.033-.016c-.002.005-.001.008-.007.014-.015.016-.053.04-.035.043.035.007.035.011.01.042-.03.04-.03.04.038.017l.04-.015c-.006.013.07-.016.006.028-.023.016-.017.016.03-.001.008-.003.014-.002.014 0 .001.003-.004.011-.008.013-.06.033-.104.06-.083.072-.07.054.029-.003.03.001.007.014.043.005.093-.015.02-.007.029-.009.013.008-.021.023-.036.045-.036.058.001.021.087-.003.024.054-.005.005.051-.026.07-.021.03.008.042.002-.019.047-.019.014-.034.053-.016.049.099-.025.074.02.055.062-.007.015-.018.026.033.003.023-.011.044-.014.065-.02-.065.039.012.024-.054.063-.02.012-.038.02-.019.02.03.002.048.01.067.018.017.007.056 0 .018.039-.019.018.003.024.007.035zm-.008.012l-.02.01.013-.014.015-.008c-.002.004-.003.007-.008.012zm.081-.76l.014-.011.017-.003-.01.008zm-.39.268zm-.01.009l-.023.01.011-.01.023-.009-.01.009zm1.956 1.504l-.016.004.019-.014.011-.004-.014.014zm-.719.045l-.021.015c-.003.002-.008.002-.012.003l.02-.014zm-.069-.112l.01-.011.01-.003c0 .003-.005.007-.008.011l-.012.003zm-.033-.02l.011-.002c0 .003-.005.008-.008.011l-.013.004.01-.012zM5.66 7.85l-.029.013.027-.021zm2.727 3.95l-.021.015-.012.004.02-.015zm-.043-.253c-.001-.004-.008-.009-.003-.012l.155-.096s.01 0 .012.002c.015.01-.074.076.013.048-.004.004-.008.008-.012.01l-.032.018a.065.065 0 0 1-.022.004c-.03.003-.026-.022-.11.026zm-.008.012c-.001.002-.014.007-.021.01l.014-.014.015-.008c-.002.004-.003.008-.008.012zm.28-.151l-.022.015-.012.003.021-.015zm-.38-.431c-.003.003-.007.007-.01.008l-.023.01.01-.01zm.08.545h-.013l.01-.008.014-.001zm-.034-.004l-.024.01.01-.009.024-.01-.01.01zm.093-.057l.012-.003c-.001.003-.006.007-.009.011l-.013.003.01-.011zm.158-.088c.001-.003.006-.007.009-.011l.011-.003c0 .003-.005.008-.009.012l-.011.002zM6.276 8.758l-.029.012.027-.02zm1.873 2.778l.01-.011.01-.003c0 .003-.005.007-.008.011l-.012.003zm.026-.164l.009-.012c.004 0 .012-.004.011-.002 0 .003-.005.007-.009.01l-.011.004zm-.874-1.754l-.024.01.01-.01.024-.009-.01.009zm2.944 3.42h.012l-.01.008-.013.001zm.11 1.247c-.002.003-.003.007-.008.012l-.02.009.013-.013zm.419.425l-.01.009c-.009.004-.017.006-.024.01l.01-.01zm.251.14l.009-.012.012-.003-.01.012-.01.003zm-3.037-3.486c-.007.001-.02.005-.02.003 0-.004.007-.011.01-.017l.03-.005-.02.02zm.188.054c-.009.007-.017.014-.027.02-.008.005-.02.009-.029.013l.01-.014.046-.02zm.297-.02l-.045.02c.003-.004.006-.01.01-.012l.05-.024c-.007.007-.011.013-.015.015zm-.143.196l-.044.018c.008-.006.016-.013.025-.017.014-.008.03-.014.047-.022-.012.01-.02.017-.028.02zm.698.162l-.017.004.015-.023h.02zM6.68 9.586c-.005-.002-.015-.001-.014-.006 0-.005.01-.015.017-.023l.023.003-.026.026zm-3.78-5.544l-.04.039c-.008.002-.024.008-.023.006.002-.006.012-.016.016-.02l.047-.025zm5.49 7.176c.01.004-.002.023-.005.035-.05.021-.08.048-.119.073a.092.092 0 0 1-.027.01c-.003-.002-.005-.008.003-.014.009-.008.03-.018.044-.027.016-.01.03-.021.044-.032l-.045.013-.028.01.016-.014.058-.03c.006-.003.053-.026.059-.024zm.265.327l-.063.04c-.053.03-.025.028-.024.036.002.01 0 .02-.049.043a.455.455 0 0 0-.112.073c-.015.013-.023.034-.063.044-.012.003.004-.02.014-.033.022-.03.043-.062.131-.11.013-.006.023-.019.034-.028l.024-.022.108-.043zm-.423-.12c-.036.016-.054.025-.02-.002a.286.286 0 0 0 .033-.031c-.05.013-.018-.006.021-.025.02-.01.039-.015.06-.025a.405.405 0 0 0 .055-.031c.012-.01.014-.017.02-.025.006.001.015 0 .017.004.01.018.009.019-.067.061l-.033.018c-.01.008-.024.019-.024.022 0 .006.01.008.015.011a.187.187 0 0 1 .084-.04l.075-.015-.096.054c-.033.018-.032.017-.01.016.005 0-.001.009-.006.012-.103.06-.121.064-.098.02l.012-.026c-.012 0-.021-.005-.038.003zm.221.153c.003-.004.008-.008.009-.011l-.012.003-.01.012zm-.136.125c-.005 0 .004-.013.012-.018.112-.067.083-.073.052-.08-.01-.003.005-.024.038-.049.015-.01.025-.013.027-.005 0 .003-.012.013-.011.013.04-.014.081-.027.124-.044.009-.003.022-.025.044-.026.019 0-.045.044.005.029-.015.012-.032.03-.045.036-.07.034-.095.063-.133.093l-.05.039c-.026.005-.049.012-.063.012zm1.521 1.232zm0 0h.014l.01-.009H9.85zm-.217-.055zm0 0l.014-.001.01-.008c-.003-.002-.008 0-.013 0zm-.05.006zm0 0l-.012.003c-.003.004-.008.009-.009.012l.012-.003.01-.012zm-.11.01c-.004 0-.009.001-.011.003l-.022.015.013-.004zm.111-.39l.024-.01c.003-.001.007-.006.01-.008l-.023.008zm-.105.002c-.003.001-.007.006-.01.009l.023-.01c.003-.001.007-.005.01-.008-.008.003-.015.005-.023.01zm-.503-.161l.011-.003.022-.015-.013.003-.02.015zm.277-.183c.004-.004.008-.008.009-.011l-.011.002-.01.012.012-.003zm-.026-.021l.012-.003.021-.015-.013.003zm-.396.148l-.012.003-.009.012.012-.003c.003-.004.008-.009.009-.012zm.353-.276c.005-.001.01-.002.013-.004l.021-.014-.013.003zm-.097.006l-.008.012.011-.003.01-.012zm-.032-.038l-.012.003-.022.015.013-.003.021-.015zm-.178.064c.004 0 .01-.001.012-.003l.022-.015-.013.004-.02.014zm.163-.088l-.012.003-.009.012.012-.003c.003-.004.008-.009.009-.012zm-.333-.007l-.009.011.012-.002.01-.012zm1.292 1.152c-.003.004-.008.008-.009.011l.012-.003A1.62 1.62 0 0 0 10 13.1zm.049.451l.023-.01c.003 0 .007-.005.01-.008l-.022.009zm.04 0l.011-.004.022-.015-.013.003zm.414.839l-.01.008h.012l.012-.01zm.232-.079l-.023.01c-.003 0-.007.005-.01.008l.022-.008zm.013.22c-.003.003-.008.008-.009.011l.011-.003.01-.012zm.727.035l-.009.011.012-.002.01-.012zm-.031.147l-.01.012.013-.003.01-.012zm-.041.057zm0 0l-.024.01c-.003 0-.007.005-.01.008.008-.003.015-.005.024-.01.002 0 .006-.005.01-.008zm-2.823-2.973zm0 0l.043-.028c-.01.003-.02.005-.031.01l-.027.017.015.001zm.108.026c.002.004.01.004.014.006l.02-.014c0-.005-.005-.006-.01-.01-.011.009-.025.017-.024.018zm.089.256l.028-.012.028-.021-.046.019zm.175-.048l-.048.024c-.005.003-.008.008-.012.013l.046-.021c.004-.002.008-.009.014-.016zm.346.183l.029-.012.027-.021-.046.019a.891.891 0 0 0-.01.014zm-.314.155l-.022.008c-.003.006-.007.013-.007.017l.027-.01c.001-.005.004-.011.002-.015zm.323.11l-.022-.002c-.006.006-.017.014-.019.018-.001.003.009.001.013.002l.028-.019zm1.131 1.387l-.022-.001-.019.018c-.001.003.009.001.013.002l.028-.019zm.289.597zm0 0l.043-.028c-.01.003-.02.005-.031.01-.008.004-.018.012-.027.018zm-2.042-2.572c.005-.007.014-.016.016-.022 0-.002-.011.001-.018.002l-.04.038.042-.018zm.024-.139l-.048.02-.024.018.06-.019.012-.019zm2.053 2.183c-.01.014-.02.024-.02.028.001.002.03-.008.033-.01a.145.145 0 0 0 .03-.028c.002-.003-.019.004-.043.01zM9.192 12.19c-.004-.01-.004-.016-.008-.02-.001-.002-.015.004-.023.008-.003.001-.01.007-.01.008.001.007 0 .015.006.017.01.003-.02.03.029.008l.006-.02zm.049.028l-.038.011c-.008.003-.021.012-.032.018.024.006-.05.037-.062.052l.012-.003a.406.406 0 0 0 .12-.078zm-.448-.394c.01-.003.024-.007.026-.01a1.49 1.49 0 0 0 .07-.057c.003-.002-.014.001-.032.002l-.064.065zm-.14-.01l.01-.006.012-.009-.004.001a.92.92 0 0 1-.018.013zm.01-.006l-.024.019.02-.01c.006-.004.007-.008.009-.012zm.012-.009l.008-.002.014-.013a3.677 3.677 0 0 0-.022.015zm-.004.001c.02-.015.016-.014.015-.013l-.02.014zm.86 1.18v.002h.009l.003-.003a.182.182 0 0 1-.013 0zm0 .002c-.012.001-.017.003-.022.005-.002.002-.006.008-.004.008l.027-.011zm.009 0l-.007.005.02-.006H9.54zm.003-.003c.017-.003.021-.006.02-.006l-.016.003zm.812 1.305zm0 0c.009-.015.036-.045.023-.042-.068.017-.001-.035-.008-.049-.004-.007.046-.043-.029-.003.003-.005.002-.008.009-.014.01-.008.027-.018.04-.027l-.044.02a.087.087 0 0 1-.025.006c-.017-.003.07-.06-.005-.035 0 0 .004-.007.01-.012.04-.03.057-.048-.004-.026-.012.004-.027.005-.024 0 .015-.027-.056-.008-.018-.047-.058.018.025-.045-.034-.026-.026.008.04-.034-.008-.018-.018.006-.012-.012-.018-.019-.006-.008.005-.025-.035-.014-.01.003.018-.03.009-.027-.055.018.024-.029.004-.026a.497.497 0 0 0-.067.013c-.04.011-.07.018-.02-.021.006-.005.002-.007.002-.01-.004-.012-.022-.017-.008-.036.017-.022-.064.019-.025-.016.032-.028.006-.026-.029-.019-.009.002-.003-.008-.005-.012-.01-.01.012-.033.034-.058.02-.023-.088.036-.087.018 0-.004.003-.008.009-.014.015-.013.032-.026-.01-.007-.016.008-.047.027-.027.005.033-.035.008-.042-.004-.055-.003-.002-.05.02-.053.018-.005-.005.011-.02.017-.031.006-.01.016-.024.014-.03-.003-.007-.014-.01-.027-.01-.031-.001.035-.053-.014-.044.02-.04-.063-.024-.028-.073.025-.035-.04-.028.017-.08-.075.038.003-.038-.089.011-.002.002-.01 0-.009-.004 0-.006.014-.02.007-.02-.039-.006-.08-.008-.052-.052.013-.022.01-.04-.015-.041-.037-.001-.083.007.015-.057.003-.002.005-.006.005-.006l-.062.023c.018-.016.04-.033.053-.047.006-.006-.001-.009-.01-.008-.11.009-.116.002-.092-.07.005-.018.006-.034-.05-.014a.31.31 0 0 1-.052.013c-.003 0 .006-.012.01-.014.04-.02.054-.038.034-.033-.038.01-.023-.01-.045-.007-.032.004-.066.013.017-.034l-.007-.006c-.055.032-.05.017-.053.009-.003-.01-.01-.018-.009-.03.002-.014-.021-.014.007-.042.012-.012-.024-.007-.025-.016-.002-.019-.031-.02-.048-.03-.017-.01-.011-.031-.019-.045-.007-.013-.002-.035-.032-.03-.054.007.022-.045.006-.053-.008-.004-.01-.014-.027-.008-.06.02-.06.003-.059-.014.003-.035-.056-.04.003-.103-.075.01-.04-.042-.057-.066-.01-.016-.097.013-.057-.033.002-.002-.012.001-.02.004-.046.016-.056.01-.056-.005 0-.013-.026-.017-.006-.036.056-.05-.05.007-.049-.008.002-.01-.018-.012-.005-.027.03-.03-.004-.023-.013-.03-.016-.012-.016-.036-.057-.029-.042.007.003-.021.002-.03-.003-.015-.048.004-.077.01l.036-.025c.007-.006.014-.016.012-.015-.045.013-.024-.013-.03-.022-.005-.01-.018-.015.01-.043.014-.014-.017-.013-.025-.02-.003-.003-.025-.036-.03-.035-.107.003-.107.003-.12-.036-.008-.022-.01-.049-.028-.065-.02-.017-.016-.027.064-.079.014-.009.018-.018.027-.028-.014.006-.036.013-.041.017-.053.04-.086.052-.097.04-.005-.005-.063.017-.022-.006.069-.04.053-.046.039-.045-.033 0-.01-.026.003-.05h.002c.005-.005.01-.01 0-.003.01-.01.004-.009.003-.008l-.02.015.008-.002a.192.192 0 0 1-.035.017.474.474 0 0 1 .01-.075c0-.003.023-.017.036-.026.022-.015.047-.03.067-.046.02-.015.035-.029.052-.043-.04.01-.057.03-.08.048-.011.009-.034.02-.044.028-.019.015-.044.03-.037.017.01-.022-.097.02-.017-.038-.072.035.004-.04-.091.013-.004.002-.02 0-.017-.007.008-.013.025-.03.04-.046.02-.021.018-.024-.03-.003-.044.018-.043.014.01-.025.029-.022.02-.018-.008-.006-.032.012-.032.01-.01-.005.021-.013.048-.032.014-.017-.071.033-.09.031-.094.015-.001-.005-.011-.007-.026-.003-.047.014-.057.014.007-.027.015-.01.03-.036-.03-.01a.275.275 0 0 1-.036.012l.076-.082c.02-.006.046-.01.045-.026 0-.005.042-.052.052-.06a.181.181 0 0 1 .084-.044c.028-.007.06-.017.092-.027l.075-.023c-.027.022-.049.044-.08.066-.02.014-.055.03-.083.045-.035.018-.065.032-.063.047 0 .006-.047.035-.07.053-.006.005-.004.009-.006.013l.1-.053c.01-.006.012-.017.016-.025a.197.197 0 0 1 .092-.058c.006-.001-.01.013-.014.021l.08-.041c.017-.01.036-.036.046-.023.006.007.086-.024.026.013-.078.05-.046.044-.025.046.027.002.075-.01.037.031-.015.017-.04.058.062.01.006-.004.015 0 .014.005-.004.023.043.017.021.05-.015.025.038-.007.069-.023.034-.006.043.002-.008.033-.05.031-.07.045-.03.037.007 0 .006.005 0 .01-.014.018-.029.036-.051.056-.037.033.002.01.027-.003.042-.023.06-.029.062-.016.001.01.014.014.022.021l.046-.03c.002.006.01.011.005.02-.004.008-.033.026-.003.016.064-.019.073-.008.041.03-.027.032-.01.03.041.006.052-.023.052-.023.014.013-.005.005-.005.011 0 .01.037-.01.066-.017.061.001-.003.013.009.017.036.013.02-.002.024.011-.003.039-.029.029.003.033-.035.067.058-.015.03.022.055.026.012.003.045-.008.069-.012.008 0 .015 0 .024-.002.023-.003.03 0-.016.026-.008 0-.015.002-.022.005-.002.002-.006.008-.004.008l.026-.011v-.002c.011.011-.012.041.045.023-.05.039.042.009-.013.05.062-.02 0 .029.02.03.046.001.021.04.039.057.01.01 0 .032.06.012.026-.008.045.036.041.047-.006.015-.068.06.008.034.003-.001-.011.016-.017.025l.03.026c.058-.019.056 0 .04.023-.006.009-.01.012 0 .014.036.005.019.041.07.038-.046.045-.006.043.015.053.017.008-.003.038.05.025-.033.036.005.03.044.024.013-.002-.01.023-.013.034-.002.006 0 .013.01.011.062-.012.067-.015.046.016-.018.028-.01.04.013.045.02.004.035.014.02.035-.016.022-.028.04.01.03.048-.014-.042.042.01.027.025-.008.03.003.046.005.014.003.022.01.045.006.036-.007-.032.032-.007.033.023 0 .001.031-.009.053a.146.146 0 0 0-.021.017l.02-.009c.005-.004.006-.007.008-.01.047-.018.106-.044.055 0-.032.029-.056.047.019.013.011-.005.02.008.016.02-.024.075-.025.075.086.055.004 0-.008.011-.01.016-.004.006-.011.016-.005.016.075.003.044.065.07.094.01.01-.018.046.043.024.085-.03.001.027.016.033.001 0 .008 0 .012-.003.093-.049.026.001.028.009.004.013.02.021-.018.056-.01.008.007.015.023.01.072-.028.037.007.021.023-.049.05-.013.055-.003.073.002.004.072-.03.07-.01-.002.029.003.055.024.072.02.015.037.031.02.066-.004.01.005.014.014.017.012.004.028.006.044.007l.057.004c.015.002-.049.042-.002.03.018-.005-.02.045-.04.06-.011.011-.03.028-.024.028.02 0 .034-.021.042-.025.023-.008.054-.02.058-.016.012.009.033.018.011.039-.04.039.003.027.017.034.018.009.077-.004.017.048-.01.009.003.011.004.018.006.048.1.045.129.081.004.006.017.004.004.02-.026.029-.031.052.019.039.053-.015.057-.001.056.015 0 .022-.014.052-.011.072.001.011.03.008.04.015.013.007.029.014.027.028-.002.023.04.017.061.024.02.007.075-.001.054.027-.025.032-.034.057-.01.061.028.005-.002.036.01.048.006.006.006.016.04.005.035-.012.061-.018.02.017-.013.01-.013.026 0 .022.052-.013.046.009.039.026-.009.024.06.004.022.042.072-.035.063-.008.097-.014.018-.003.048-.012.048-.006.001.015-.05.032-.076.05-.005.002 0 .006 0 .01.05-.028.058-.03.026 0-.01.01.006.017.023.011.082-.03.092-.035.071-.006-.02.027.02 0 .037-.01.034-.017.053-.026.056-.016.001.005.01.008.025.004.014-.004.055-.034.03-.005-.045.055-.04.076-.025.105.006.014.025.021-.007.056-.024.027-.005.039.008.05.006.004.05-.013.07-.016.026-.004.039.004.07-.007.072-.027-.012.028.014.025.022-.003.043-.002.042.008-.003.032-.017.069-.026.103-.001.006-.009.019 0 .016.063-.016.022.02.001.043-.055.064-.057.065-.05.084.002.008.007.016.007.026 0 .016-.067.07-.123.094-.05.021-.075.03-.069.046l-.034.018c.008-.02-.025-.01-.056-.005-.022.004-.038-.004-.027-.018.022-.026.014-.03-.035-.009-.047.022-.066.026-.036 0 .058-.05.024-.052-.005-.055-.019-.001-.047.001-.022-.018.042-.034-.02-.005-.006-.022l.004-.001c.005-.005.01-.01 0-.003.01-.01.004-.008.003-.008l-.02.015.008-.002c-.036.021-.066.041-.075.035-.011-.007.004-.028-.04-.016-.026.007-.036 0-.046-.006-.013-.007-.005-.024-.04-.02-.02.002-.044 0-.048-.01-.004-.013-.055-.004-.042-.018.032-.036-.02-.013-.047-.009-.009.001-.008-.005-.005-.011.007-.017.074-.069-.035-.015.001-.003 0-.005.004-.01.03-.028.014-.029-.017-.025s-.075.01-.051-.017c.03-.034-.018-.022-.02-.037-.001-.004-.045.013-.008-.013-.03-.003.013-.046-.012-.05-.03-.004-.014-.028.005-.053.016-.02.017-.025-.016-.016-.045.013-.072.016-.034-.02.005-.005-.012-.003-.02-.003-.026 0-.081.012-.071-.003.02-.03.02-.042-.015-.041-.029 0-.006-.032-.075-.009-.034.012-.056.01-.081.013-.019.002-.022-.003.017-.027.08-.05.083-.053.034-.04-.04.009-.063.012-.014-.025.04-.03.046-.046.011-.04-.02.003-.026.002-.012-.015.013-.016.015-.03.01-.038-.006-.01-.044.017-.068.029zM8.695 12.07a.138.138 0 0 1-.002.003l-.007.002a.479.479 0 0 0 .009-.005zm2.473 2.724a.907.907 0 0 1 .005-.001zM1.717 1.182l-.01.009h-.013l.01-.009zm-.036.034l.013-.003-.022.015-.012.003.021-.015zm.062.042l-.01.01H1.72l.01-.009zm-.123.073l.01-.01.013.001-.01.008-.013.001zm.168.09l.013-.004-.022.015c-.003.002-.008.002-.012.003zm.582.079l-.022.008c.003-.003.007-.007.01-.008l.023-.01-.01.01zm-.374.312l.013-.003-.022.015-.012.003.021-.015zm.415-.171l-.012.002c.001-.003.006-.007.01-.011l.01-.003c0 .003-.005.008-.008.012zm.087.005l.013-.003-.022.014-.012.004zm-.43.343c-.003.002-.007.007-.01.008l-.024.01.01-.01.024-.008zm.443-.226l-.01.009-.024.01.01-.01.024-.009zm-.185.104l-.012.002.01-.011.01-.003c0 .003-.005.008-.008.012zm-.09.07l.012-.004-.021.015-.013.003.021-.015zm-.046.078l-.01.01h-.013l.01-.009zm.262.236l-.011.003c0-.003.005-.007.008-.011l.012-.003c-.001.003-.006.007-.009.011zm.341-.069l.013-.003-.022.015-.012.003zm-.268.248l-.011.01h-.012l.01-.009zm4.944 7.584l.013-.004-.021.015c-.003.002-.008.002-.012.003l.02-.014zm-.228.126l-.011.01h-.012c-.001-.001.006-.006.009-.009zM2.786 2.379l-.01.012-.011.002c0-.002.005-.007.008-.01zm-.355.274l-.023.009c.003-.003.007-.008.01-.009l.024-.01zm.11.095l.013-.003-.021.014-.012.004zm.484-.041l.01-.012.012-.003c-.001.003-.006.008-.01.012zm4.168 7.529l-.011.01H7.17c-.001-.001.006-.006.009-.01zm.33-.162l-.011.003c0-.003.005-.008.008-.012l.012-.002c-.001.003-.006.007-.009.011zM2.658 3.138l.023-.008-.01.008-.024.01zm.179.146l.013-.003-.022.015-.012.003zm-.109.188l.023-.008-.01.009-.024.009zm.215.112l-.01.01H2.92l.01-.01zm5.122 7.276l-.023.008.01-.008.024-.01zm-.43-.583l.013-.003-.022.014c-.002.002-.007.003-.012.004zm.043.026l-.012.003c.001-.003.006-.007.01-.011l.01-.003c0 .003-.005.007-.008.011zm-3-4.948l-.012.01h-.012c-.001-.001.006-.006.01-.01h.013zm-.262.519c-.003.003-.007.007-.01.008l-.024.01.01-.009.024-.01zm.632.032l.013-.003-.022.014c-.002.002-.007.003-.011.004zm.37.48zm-.01.008l-.023.01c.003-.003.007-.008.01-.009l.024-.01-.01.01zm.047.994l.013-.004-.022.015c-.003.002-.008.002-.012.003zm2.544 3.79l.023-.008-.01.009-.024.01zm-.39-.662l-.01.008-.024.01.01-.009.024-.01zM6.064 7.642l-.011.01-.013-.001.01-.008.014-.001zm1.534 3.025c-.004 0-.011.004-.011.003l.009-.012c.004 0 .011-.004.011-.002l-.009.01zm.285-.145l-.011.01H7.86c-.001-.001.006-.006.01-.009zM6.182 8.063l-.013.003.022-.014c.002-.002.008-.003.012-.004zm.078-.039l.013-.003-.022.015-.012.003zm-.286.176zm-.01.009l-.024.01.01-.01.024-.009-.01.009zm.31.1l.013-.004-.022.015-.012.003zm1.84 2.698l.012-.003-.021.015-.012.003.02-.015zM6.462 8.253l-.011.01h-.013l.01-.009zm-.024.05l-.01.012c-.004 0-.012.004-.011.003 0-.003.005-.008.008-.012zm.037.26l.013-.004-.021.015-.012.003zm-.143.083l-.013.003.022-.015.012-.003zm.103.035a5.661 5.661 0 0 0-.023.009l.01-.009.024-.009zm.4.227l-.01.01h-.013l.01-.009zm.047.081l.023-.008c-.003.003-.007.007-.01.008L6.872 9zM7.9 10.98l-.012.003.009-.012.011-.002c0 .003-.005.007-.008.011zm-.856-1.44l-.01.012c-.005 0-.012.004-.012.003l.009-.012.013-.003zm.04.122l-.011.01H7.06l.01-.01zm.835 1.239l.013-.004-.022.015c-.003.002-.008.002-.012.003zm-.646-1.105l-.012.003c.001-.003.006-.007.009-.011l.012-.003-.01.011zm.074.002l.023-.008c-.003.003-.007.007-.01.008l-.024.01zm-.346-.402c-.018.01-.033.02-.048.027-.005.003-.01.001-.015.002l.044-.026c.004-.003.01-.002.019-.003zm-.013.43l-.017.02c-.006 0-.018.004-.018.002 0-.004.008-.012.012-.019zm.495.462v.008l-.045.023s-.003-.004-.002-.005l.047-.026zm-.01.206c.005.003.01.004.01.009l-.02.014c-.005-.002-.012-.002-.014-.006l.025-.017zm.207.11a4.7 4.7 0 0 0-.017.02c-.006 0-.018.004-.018.001 0-.004.008-.012.013-.019zm.013.074l-.027.009c0-.004.004-.01.006-.017.008-.003.022-.009.023-.008.002.004-.001.01-.002.016zm.32.16l.046-.02c-.01.007-.017.015-.028.021-.007.005-.019.008-.028.012zm-.038.302a2.83 2.83 0 0 1-.016.02c-.007 0-.019.004-.018.002 0-.005.007-.013.012-.02l.022-.002zm.092-.016h-.015l.027-.018c.011-.005.02-.007.031-.01l-.043.028zM2.346 2.082l-.03.018c-.002.002-.013.002-.012 0 .002-.005.012-.013.019-.02l.023.002zm.068-.003zm-.048.027c-.004.002-.01.001-.014.001l.043-.026c.004-.002.01-.001.02-.002-.02.01-.034.02-.049.027zm.233.347l.046-.02c-.01.008-.017.015-.028.022l-.028.012zm-.092.083zm-.015-.001c.01-.006.019-.014.027-.017.01-.005.02-.007.03-.01l-.042.028-.015-.001zm.352.096zm-.03.018c-.001.002-.013.002-.012 0 .002-.005.013-.013.02-.02l.022.002-.03.018zm-.11.77l-.015.02c-.008.002-.02.006-.023.004-.003 0 .005-.008.008-.012zm2.007 2.153zm.017-.02c.006 0 .018-.004.018-.002 0 .005-.008.013-.013.02l-.022.002zM2.502 2.075c-.012.01-.023.02-.038.03l-.029.012.04-.039zm4.435 7.157l-.06.025c.014-.009.028-.02.042-.027l.06-.027-.042.03zm1.209 1.702c-.02.014-.037.028-.055.042-.005 0-.015.001-.013-.001.01-.01.023-.02.037-.03.005-.003.018-.007.03-.011zM6.405 8.293l-.044.036-.024.005a.38.38 0 0 1 .038-.03c.005-.003.018-.007.03-.011zm1.51 2.694zm-.042.036c-.006 0-.022 0-.018-.003.011-.01.03-.021.047-.032l.012-.001-.04.036zM5.015 6.179zm-.037.036l-.033.024c-.004-.002-.017-.002-.012-.007.012-.01.032-.021.082-.053l-.037.036zM2.816 2.743zm-.022.002l.044-.046c.007 0 .02-.004.018-.001-.01.013-.025.028-.04.045-.01.001-.024.004-.022.002zm-.763-.888c.017-.001.034-.005.031-.001-.007.008-.024.02-.037.03-.01.002-.028.008-.027.004.003-.006.017-.017.033-.033zm.133-.883c-.015 0-.028.002-.03-.002 0-.003.025-.021.028-.023A.111.111 0 0 1 2.2.942c.003 0-.015.014-.035.032zm.682 1.691c0-.003-.004-.004-.002-.008a.094.094 0 0 1 .021-.022l.03-.015-.005.013c-.003.01-.003.017-.007.027a.11.11 0 0 1-.02.014c-.002.002-.011.004-.012.003-.003-.003-.003-.008-.005-.012zm2.747 4.346l.066-.034c.009-.005.018-.007.028-.01l-.008.006-.095.063c-.01.005-.027.01-.04.013l-.025.007c.008-.006.016-.013.025-.018.016-.01.033-.018.049-.027zm2.535 4.178l-.05.026-.03.013.025-.02.058-.054a.2.2 0 0 1 .032-.02c.029-.003.005.033-.035.055zM5.44 7.213c-.005 0-.023.006-.026.003-.005-.003-.004-.014.006-.02a2.94 2.94 0 0 1 .128-.08c.006-.004.028-.008.026-.005a.409.409 0 0 1-.134.102zm.826 1.154c.017.007.027.01.033.01l-.01.002-.002.001a.263.263 0 0 0-.02-.01.037.037 0 0 1 0-.003zm.004.012c-.002.005-.009.011-.013.017l-.025.006c-.008.003-.023.008-.024.006a.056.056 0 0 1 .003-.028s.027-.015.03-.015c.008 0 .014 0 .027.005.002.004.003.006.002.01zm.025.006l-.02.006.012-.011a.808.808 0 0 1 .008.005zm.01-.009s-.001.002-.006.001h.006zm1.76 2.373l-.021.007.007-.006a.55.55 0 0 1 .014 0zm-.007-.005l.017-.003s-.004.003-.02.006zm-.004.003l-.003.003h-.009v-.002l.012-.001zm-.011.005l-.027.01.004-.007.022-.005zM2.9 4.042zm3.068 4.363l.003-.003L5.97 8.4l-.008.006.007-.002zm.825 1.17l.037-.022a.155.155 0 0 0-.01-.002 1.53 1.53 0 0 0-.005.005l-.032.022.01-.003zm.364.635l-.003.003a.17.17 0 0 1 .007-.003h-.004zm.743.92l-.005.005a.678.678 0 0 1 .014-.005H7.9zM4.82 5.554l.007-.003-.007.003zM1.914 1.88a.227.227 0 0 1 .009-.004h-.005l-.005.005h.001zm5.879 9.156l.003-.004a.963.963 0 0 1-.008.005zm.339.012l.007-.004a2.32 2.32 0 0 0-.007.004z"/></g><g><path fill="#020202" d="M4.042 10.097l-.018-.009.01-.003.012.008zm-.804 1.057c.008.003.016.005.034.008l-.004-.003.02.001s.003.003-.01.004c.01.001.004.002-.002.002l-.002-.002c-.031.005-.067.013-.06.018.033.022-.027.011-.025.02 0 .003.01.008.016.011l.068.038c-.01 0-.02 0-.03-.002-.034-.008-.044 0-.03.008.028.017-.025.007-.018.017.005.007.002.013.008.026h.005l.034.017c-.007-.001-.015-.002-.036-.012.002.004-.006 0-.014-.005a.11.11 0 0 0 .004 0 .184.184 0 0 0-.038-.015c-.012.006-.032.012-.026.02.01.014.007.02-.023.02-.009 0-.007.009-.01.013.053.014.034.023.022.03-.013.009-.053.014-.045.022.02.02-.06.007-.023.031.014.01-.013.022-.018.033-.007.017.021.01.037.012a.154.154 0 0 1 .025.007c-.001.019.05.037.066.055.003.003 0 .008-.004.008-.01 0-.024 0-.034-.003-.02-.006-.054-.012-.043-.022.016-.014-.052-.022-.047-.034l-.02-.002c-.003 0-.006.002-.004.003.007.01.017.018.022.027.008.014.018.029-.036.02.004.005.005.01.013.014.013.008.035.02.044.021.027.002.015-.009.006-.019-.005-.004.003-.007.005-.011.011.005.027.01.032.016.01.01.016.02.022.03.015.03.014.03-.051.012a.21.21 0 0 0-.075-.01c-.004 0-.002.006.002.009l.029.014c-.023 0-.055-.003-.033.013.002.002.044 0 .068.003l.075.012c.004-.016.045-.022.028-.046-.004-.006.04-.008.065-.01.03-.003-.031-.03.023-.026.043.003.058-.003.03-.024-.004-.002.014-.008.018-.007.054.016.053 0 .066-.008.026-.017.057-.032.082-.048.005-.004-.003-.015-.011-.018-.048-.015-.083-.028-.016-.029-.006-.004-.009-.01-.017-.012l-.052-.016c-.005.001-.008.003-.014.003l-.015-.006a.106.106 0 0 1 .023.001c.019-.008.014-.027.077-.01.016-.01.085-.003.049-.031.04.006-.005-.023.043-.017.016.001.033-.015.027-.027-.017-.034.024-.052.047-.074.016-.016.022-.035.07-.043.029-.005.018-.032.022-.05a.068.068 0 0 0-.005-.037c-.004-.012-.023-.026-.021-.036.002-.012.03-.02.026-.032-.004-.014.07.003.033-.02-.001 0 .007-.004.01-.003.09.018.087-.006.07-.029-.01-.014.006-.02.01-.03.006-.018.055-.025.02-.052-.005-.004.002-.012.01-.012.06.001.032-.023.037-.037.005-.013-.02-.034.034-.034.009 0 .014-.01.007-.016-.025-.02-.002-.033.019-.037.08-.016.074-.054.059-.094-.001-.003.023-.002.035-.003-.004-.01.046.004.029-.015-.018-.02-.035-.046.022-.053.013-.001.01-.018 0-.027-.02-.019-.003-.03.016-.034.078-.012.066-.053.109-.077.003-.001 0-.008-.005-.01-.062-.018-.007-.013-.002-.02.028-.036.098-.06.084-.11-.004-.012.022-.02.036-.028.003-.003.02-.004.019-.005-.063-.043.014-.053.023-.08.053.004.015-.02.028-.029.013-.008.006-.013-.029-.014-.03 0-.065-.003-.1-.007-.009 0-.023-.008-.034-.012.012 0 .024 0 .036.003.03.005.022-.016.073 0 .027.007.074.006.044-.022-.013-.012.016-.015.04.006l.045.002c-.01-.006-.023-.011-.028-.016-.009-.01-.051-.027.005-.025.046.003-.02-.028.022-.032.027-.003.034-.02.043-.032.005-.005-.007-.016-.013-.024-.003-.004-.018-.036-.013-.037.005-.002.014-.001.021-.001-.036-.026.015-.031.012-.049 0-.002-.01-.007-.018-.01-.04-.015-.017-.015 0-.02.017-.007.077.002.043-.023.051.004.04-.009.027-.025-.005-.008.013-.013.018-.02.003-.005.002-.012.003-.018l-.063-.009-.042-.007c.008-.006.012-.016.026-.016a.372.372 0 0 1 .088.015c.048.015.055.007.063-.003s.018-.02.028-.028c.017-.015-.006-.015-.036-.016a.082.082 0 0 1-.031-.013c-.004-.004.002-.01.01-.01.018 0 .04.003.062.005.039.003.043.002.005-.018-.036-.021.017-.006.018-.012.013-.052.034-.075.092-.101.003-.002.003-.007-.002-.01-.007-.005-.019-.01-.028-.014.019 0 .044.003.02-.013 0 0 .015-.003.025-.003.023 0 .025-.003.028-.014.004-.02.004-.046.081-.04.028.002.013-.006.008-.013-.011-.017.006-.025.023-.035.013-.008.069-.016-.008-.042-.003-.001.01-.015.02-.021.01-.007.04-.01.036-.017-.024-.04.063-.053.035-.094.065 0 0-.02-.009-.032-.01-.013-.02-.02.014-.025.032-.004.1-.002.055-.036.019.002.051.009.054.006.018-.018.051-.03.043-.057-.008-.028.035-.039.106-.038.012 0 .029-.004.026-.008-.023-.035-.01-.062.022-.084.013-.009.006-.017-.027-.027-.002 0 .001-.014.01-.014.04.001.038-.014.046-.024.01-.012.007-.026.008-.04.001-.01.064-.002.026-.025.035-.002.026-.017.031-.028.004-.007.023-.01.036-.015-.092-.03.032-.01.008-.026.047.002.027-.006-.006-.016.004-.002.007-.007.012-.006.088.014.083.014.056-.027-.006-.01.054-.009.016-.031l.055-.088c.009-.015.033-.02.075-.023.035-.002-.048-.033-.01-.043.03-.007.05-.02.069-.032.015-.009.025-.019-.001-.037-.01-.007-.006-.016-.005-.023 0-.01.058 0 .023-.022-.012-.007 0-.018 0-.026.001-.005.001-.013.007-.012.055.004.02-.016.026-.026.006-.009-.008-.035.065-.014.004.001.013-.005.022-.006.03-.006-.045-.038.022-.033.045.003-.025-.034.037-.025-.006-.02-.01-.039-.02-.059-.005-.007 0-.008.009-.012.046-.02.08-.045.05-.085-.053-.014-.029-.022-.022-.03.007-.01.016-.017.054-.003.001-.014.04-.015.044-.027.001-.004-.014-.012-.024-.018-.023-.012-.015-.012.011-.008.016.003.04-.016.034-.024-.004-.007-.039-.02.004-.018.016.002.04.002.04-.001.002-.009-.002-.024-.017-.03-.042-.015-.02-.01-.005-.017a.498.498 0 0 1 .074-.03c.012-.004.027-.006.041-.009-.018-.003-.038-.006-.055-.011-.009-.003-.02-.01-.02-.014.001-.003.013-.006.023-.005.024.001.05.005.075.008-.06-.032.06-.014.027-.039-.03-.02.053-.027-.028-.054 0 0 .004-.008.011-.01a.664.664 0 0 1 .065-.016c.025-.004-.005-.009-.015-.014a.062.062 0 0 1-.015-.01c.016-.004.069.01.057-.007-.013-.02.005-.02.046-.008h.012c.03-.026.078-.048.055-.087-.013-.023-.03-.045-.005-.06.024-.014.014-.04.07-.043.009 0 .017-.007.012-.01-.027-.019 0-.025.009-.035.007-.01.025-.017.026-.028.001-.013.051-.007.039-.023l-.007-.006.092-.04c.016-.032.012-.07.039-.1-.032-.02.017-.013.025-.02.006-.006-.034-.027-.026-.03.012-.009.022-.015.026-.026.006-.016.014-.028-.015-.049-.023-.015-.027-.024.011-.03a.184.184 0 0 0 .121-.072.104.104 0 0 1 .048-.03c.039-.013.085-.03.034-.07-.006-.004-.001-.014.007-.014.043.001.023-.011.019-.024-.006-.015-.033-.04.044-.033.038.003.043-.014.034-.03-.004-.009-.068-.039.022-.016 0 0 .007-.004.005-.006-.044-.025-.023-.038-.003-.05.017-.01-.02-.035.032-.034-.026-.02.019-.02.03-.029.011-.008-.004-.025.003-.03.022-.017.047-.031.02-.06-.004-.004.006-.011.011-.01.071.011.017-.022.047-.028.032-.005.038-.024.054-.038.015-.013.027-.026.04-.04.014-.013.035-.024.039-.04.003-.01-.027-.029-.022-.04.004-.01.052-.01.048-.02-.01-.025.041-.027.06-.04.007-.004.028-.002 0-.012-.032-.01-.03-.019-.01-.02.048-.002.06-.018.052-.036-.007-.014.003-.021.01-.03.009-.014.043-.028.026-.041-.031-.025.06-.013.017-.036.03-.014.014-.043.074-.047.009 0 .005-.01.007-.015a.056.056 0 0 0 0-.019c-.001-.015.061-.008.037-.032-.015-.015-.004-.028-.008-.043-.006-.02 0-.037.049-.041.013-.001.051.009.031-.009-.012-.01.01-.02-.04-.032-.039-.01-.034-.016-.014-.023.018-.007.086.007.053-.02-.023-.018.047-.003.028-.025-.016-.02.015-.038.083-.033.008 0 .014-.008.01-.014-.02-.034-.016-.045.015-.068.02-.015.024-.035.028-.055.01-.047.01-.085.117-.123-.026-.015.024-.013.012-.022-.03-.02-.022-.03.012-.031.052-.002.029-.025.008-.035-.043-.021-.02-.018.004-.024.076-.017.073-.018.07-.056-.001-.005-.008-.014-.019-.018-.025-.01-.022-.014.001-.012.052.007.03-.01.038-.02.008-.008.053-.005.047-.021 0-.003-.01-.006-.02-.01-.004.001-.007.003-.013.003l-.015-.006.023.001.006.002a.907.907 0 0 1-.006-.002c.05-.004.084-.015.067-.04-.012-.017.04-.003.032-.015-.008-.011-.029-.032-.022-.032.046-.001 0-.017-.005-.024-.011-.018.004-.027.03-.033a.32.32 0 0 0 .079-.027c.013-.008-.037-.036.031-.028l.007-.04c.002-.017-.027-.044.041-.041-.005-.015.003-.026.02-.036.022-.012-.032-.046.027-.052.01-.001-.01-.02-.015-.03-.02-.032-.018-.059.043-.07.012-.003-.005-.02.007-.023.018-.003.048 0 .03-.016-.003-.003.004-.006.01-.008.045-.013.052-.012.044-.046-.003-.014.072-.006.019-.03.012-.014.021-.028.037-.04.013-.011.007-.03.056-.026.006 0 .01-.01.006-.012-.068-.03-.023-.035.008-.044.009-.002.01-.008.012-.013.002-.006-.007-.016.002-.017.084-.01.072-.05.068-.084-.001-.02.003-.037.044-.043.027-.004.028-.01-.009-.022-.003-.002-.005-.008-.002-.01.007-.004.03-.006.025-.01-.038-.031.032-.03.057-.026.05.008.062.005.035-.013-.049-.031-.02-.04.007-.056.03-.018.05-.04.048-.07 0-.029.044-.049.013-.085-.003-.004.011-.006.018-.008.012-.004.038-.007.033-.013-.02-.026.028-.036.021-.056-.007-.022.014-.035.02-.052.003-.007-.018-.02-.028-.03.025.003.051.007.075.008.01 0 .022-.005.02-.007-.035-.026.004-.034.016-.048.013-.014.014-.033.067-.032-.033-.036.031-.049.032-.077 0-.011-.019-.035.034-.033.009 0 .011-.008.01-.014-.001-.014-.01-.03-.009-.043.001-.015.044-.02.013-.044.042.005.002-.024.047-.018-.033-.023.036-.013.036-.028 0-.006.052-.003-.005-.02-.003-.001-.006-.008-.003-.01.034-.018.016-.055.11-.053.036 0 .052-.017.074-.028a.134.134 0 0 0-.031-.017l-.033-.014.028-.002a.105.105 0 0 0 .052-.012c.006-.004 0-.033.045.003.032.002.044-.018.02-.034-.018-.013-.038-.025-.051-.038-.005-.005.002-.012.011-.014.045-.007.05-.024.04-.048-.007-.02-.033-.048.039-.048.013 0 .021-.01.017-.018-.012-.021 0-.032.042-.037.03-.004.022-.026.075-.023.048.003-.01-.012-.01-.014.01-.018-.04-.05.02-.057.037-.005.051-.02.037-.04-.01-.015-.004-.024.032-.022.083.003.065-.032.093-.049-.073-.028-.014-.035-.016-.052-.002-.012-.006-.02.03-.018.04.002.05-.01.028-.026-.04-.03.015-.04-.012-.067.056.006.015-.017.024-.025.01-.01.007-.024.016-.034.006-.006.027-.008.034-.015.007-.006-.002-.017.007-.022.05-.026.092-.054.085-.097-.002-.015.015-.027.036-.035.023-.009-.046-.039.019-.035.003 0 0-.01-.007-.016-.041-.026.032-.03-.005-.055h.012c.044-.008.045-.01.01-.037-.003-.004-.004-.01 0-.01.08-.009.098-.016.106-.045.001-.004.008-.007.013-.01.011-.006.075.014.049-.01-.018-.018.024-.01.037-.015.006-.002.002-.012-.001-.013-.055-.015-.023-.02-.024-.031-.001-.006-.025-.016-.04-.024.02.002.052.009.056.006.012-.01.03-.016.019-.033-.018-.028-.03-.056.04-.061-.024-.024.01-.025.052-.024.012 0 .014-.01.026-.01.051-.005-.026-.042.032-.047.033-.003.04-.024.052-.038.008-.01.009-.024.003-.037-.007-.014.062-.001.031-.024-.018-.013.055-.002.025-.025-.013-.01.009-.03.03-.03.064.003.027-.02.027-.031 0-.02-.032-.006-.04-.011-.006-.005-.006-.014-.002-.014.069.002.039-.038.106-.037-.026-.022.01-.031.002-.05-.012-.03.02-.048.053-.063.061-.03.071-.049.096-.093.02-.035.031-.075.115-.09.009 0 .017-.007.013-.01-.04-.03-.007-.048-.022-.073-.002-.004-.012-.008-.012-.011-.002-.007-.007-.017.001-.018.065-.004.005-.05.067-.051.024 0 .041-.001.062-.005.07-.013.07-.049.104-.073.003-.003-.027-.015-.035-.023-.002-.003.017-.005.026-.007-.064-.022-.026-.03-.019-.043.009-.015.041-.023.02-.048-.013-.014.047-.03-.055-.033-.001 0-.011-.006-.011-.009 0-.002.006-.004.01-.006.067.025.051-.023.117 0 .002-.007.012-.015.004-.023-.01-.012-.013-.018.02-.017a.09.09 0 0 0 .042-.008c.026-.013.016-.04.076-.04.003 0 .006-.002.004-.004-.04-.044.03-.043.1-.042.01 0 .013-.008.012-.013 0-.013-.007-.026-.008-.038s.007-.02.04-.02c.02 0 .02-.01-.01-.02-.009-.004-.016-.014-.012-.018.007-.006.028-.008.035-.014.006-.006-.006-.022.003-.022.058 0 .022-.026.037-.037.013-.009-.042-.033.014-.032.004 0-.027-.025-.018-.03.02-.011.057-.016.068-.031.002-.002.018 0 .024 0 .038-.008 0-.038.023-.045.031-.008.063-.013.044-.037l-.007-.005c.058.005.007-.023.028-.03.02-.006.026-.016.06-.019.057-.004.105-.015.071-.051-.017-.018-.016-.024.038-.012.027.007.034-.002.019-.014-.047-.034-.007-.047.022-.063.019-.01.048-.016.072-.024.003 0 .007-.004.005-.005-.045-.028-.003-.038-.003-.056 0-.023.029-.034.052-.048.025-.015.024-.04.079-.045.015-.001.021-.015.014-.024-.011-.014-.01-.02.022-.02.009 0 .018-.004.016-.008-.023-.035.022-.05.056-.07.01-.006.005-.018.002-.028-.001-.002-.03-.01-.045-.01-.012-.002-.02.002-.03.004.002-.006 0-.013.007-.018.027-.016.03-.016-.017-.035-.023-.009-.041-.014-.03-.023l-.02-.01-.117-.024c-.075-.016-.126-.017-.14.001-.01.015-.032.014-.072.006-.012-.002-.034-.003-.035 0-.01.028-.101.018-.128.038h-.012c-.018.01.07.042 0 .04-.045-.002-.058.007-.07.02l-.084.082c-.004.004-.013.007-.01.012.002.005.016.012.022.018.004.003.007.009.003.01-.04.005-.072.012-.087.028-.012.013-.054.06-.054.076 0 .005.001.013-.001.013-.06-.008.009.028-.04.025-.037-.003-.027.009-.01.021.023.018.024.025-.029.01-.004 0-.02.004-.019.008.005.011.01.024.024.036.02.017-.055.003-.026.025.012.01-.024.02-.012.03.031.023-.04.005-.033.02.009.017.004.034-.01.048-.013.016-.054.021-.052.044.001.02-.034.034-.048.052-.016.02-.053.033-.036.063.004.006-.034.01-.019.029h.01l.007.008s-.007 0-.015-.006c0 .003-.003.001-.007-.002-.014-.003-.028-.004-.033-.001-.02.01-.036.022-.055.032h-.011c.055.045-.035.05-.045.077-.001.003.017.013.03.018.028.01.05.014.01.018-.02.003-.07.013.005.04l-.014.006c-.028.012-.057.025-.04.05.002.004.004.008 0 .01-.012.004-.035.006-.04.013-.003.004.038.02.036.023a.073.073 0 0 1-.048.03c-.027.004-.021.012-.005.023.02.014.02.02-.017.017-.024-.002-.022.002-.022.012.002.02-.01.04-.08.035-.032-.001-.033.008.006.021l.017.01c-.087-.01-.004.046-.058.038-.074-.011-.066.009-.061.02.013.036.007.066-.032.087-.016.009.024.03-.025.032-.027 0-.036.02-.036.034 0 .01-.008.018-.012.027-.007.013-.021.024-.022.038 0 .02.009.045-.027.054-.019.005-.04.008-.048.018-.012.015-.068.018-.032.047.003.002-.005.005-.01.008-.007.004-.015.008-.026.01-.04.01.025.048-.03.053-.048.004-.033.03-.065.039-.033.008.027.035-.017.04-.03.005-.037.022-.056.033-.024.013-.052.026-.075.04-.024.014-.044.03-.066.044-.003.003-.007.008-.002.01.034.02.015.03.004.042-.01.01-.028.019-.005.036-.04-.004-.034.01-.05.017-.042.015-.005.053-.057.066.021.016.013.026-.016.026-.044 0 .024.026-.015.025-.053-.003.011.033-.047.032-.05 0-.03.024-.028.042 0 .01-.01.02-.04.021-.024.002-.058.01.003.03.007.002.01.01.007.014-.009.012-.041.025-.027.036.023.018-.053.01-.005.03l-.05.016c-.016.004.002.027-.056.009a.048.048 0 0 0-.026.003c-.015.012-.034.024-.039.04-.004.012-.065.004-.034.028.005.004-.032.007-.041.014-.008.006 0 .023-.006.022-.045-.005.01.018-.02.017-.04 0-.043.008.008.024l.027.008c.041.011.045.017.005.016-.014 0-.025.008-.033.006-.078-.02-.036.014-.064.017.039.028.025.046.015.068-.013.03.016.068-.053.083-.006.001.002.011.01.017.026.021.046.038-.01.042-.024.002-.022.02-.035.03-.028.02-.024.05-.09.057-.012 0-.022.01-.016.015.03.026-.025.029-.022.049.004.022-.033.035-.08.042-.03.005-.055.012-.082.019.024.015.07.033.012.036h-.012c.036.034.023.054-.053.055l.02.012c.017.016.05.034-.003.037-.012 0-.008.013-.01.02-.004.01-.005.021-.01.03-.01.017-.04.028-.022.053.008.011-.01.027-.035.028-.04.002-.016.015-.002.022.043.019.063.029-.012.011l-.075.029c-.009.003-.032.001-.032.005 0 .01.004.025.018.03.084.027-.016.009-.009.019.007.01-.016.016-.009.025.012.015-.002.015-.022.02-.038.008-.084.016-.038.049-.039.005-.001.03-.028.038-.02.006-.058.012-.052.02.012.019 0 .03-.01.04-.011.011-.026.02-.032.032-.01.018-.035.036-.018.057.019.023-.047.011-.036.028.01.015.024.032.022.045-.002.012-.022.02-.036.029-.004.002-.02.002-.02.005.003.008.018.02.015.026-.002.007-.026.008-.031.014-.023.028-.074.048-.057.087.003.008-.012.014-.019.02-.05.043-.061.062-.038.11.007.014.017.016-.028.008-.036-.006-.06.005-.047.025.017.026.01.045-.041.053-.018.003-.023.012-.032.02-.01.008-.01.025-.031.025-.054.001-.04.017-.033.035.007.017.028.037-.032.04-.04 0-.02.032-.066.037-.041.005-.013.03-.017.045-.004.019-.009.036-.026.05-.033.03-.013.072-.06.097-.005.002.007.012.016.018.032.019.07.038-.003.035 0 .023-.078.021-.056.052.006.01-.006.022-.024.023-.054.002-.035.017-.016.037.009.009-.004.018-.01.025-.02.025-.043.049-.064.073.05.029-.062.008-.032.033.023.018.001.028-.028.033-.005.001-.01.005-.006.008.005.005.016.01.024.016l-.038-.008c-.004 0-.01.003-.008.005.02.014.01.019-.02.019-.022 0-.027.006 0 .019.011.004.022.014.02.017-.024.033-.023.072-.064.1-.024.018-.06.033-.033.064-.05-.007-.01.02-.044.022-.023.001-.045.007.002.03.055.028-.013.04-.008.063.004.016-.043.02-.02.043.003.002-.001.005-.005.005-.063 0-.075.02-.096.036-.007.005-.037.002-.054.003-.005 0-.004.008-.003.009.046.012.034.023.019.025-.034.006-.057.013-.02.036.004.003.007.009.006.009-.074-.002-.03.031-.045.046-.01.01.01.04-.07.017 0 .004-.002.007-.001.01.008.035.03.073-.018.093-.025.01-.04.02-.037.038.002.017-.047.023-.014.048.021.017-.058-.002-.031.02.011.01-.008.02-.018.029-.01.008-.025.015-.038.023-.004.002-.01.004-.01.008.02.047-.03.075-.06.11-.019.023-.068.039-.045.075.007.01-.015.015-.044.012.09.064-.07.071-.029.124-.08.004-.045.05-.12.059-.046.005-.016.045-.085.046 0 0 .012.008.012.011-.001.012.089.032.035.034-.046.002-.004.019-.013.026-.023.02-.063.034-.04.067.005.005-.012.008-.022.012-.009.003-.024.004-.03.008-.02.014-.023.032-.024.051 0 .015-.054.02-.06.034a.267.267 0 0 0-.019.107c0 .008-.046-.001-.02.017.013.009-.01.02-.017.029-.007.008-.013.017-.025.023a.194.194 0 0 1-.047.012c-.033.007-.043.02-.036.038.009.02 0 .034-.015.048-.01.008-.01.009.04.023.008.002.02.007.02.009.002.004 0 .009-.006.011-.003.002-.018 0-.023 0-.018.007-.068-.019-.075-.001-.007.017-.053.025-.01.053.021.014.014.02-.018.02a.126.126 0 0 0-.044.007c-.008.003-.014.01-.009.015.03.032.034.035-.016.048-.016.004-.029.006-.012.017.029.02.027.028-.022.023l-.02.001c.047.028-.029.017-.031.029-.002.007.008.016.008.024 0 .01 0 .019-.005.027-.003.005-.016.007-.02.012a.028.028 0 0 0-.002.023c.005.018-.05.014-.043.036.007.019-.027.032-.043.048l-.045.043c-.015.014-.031.028-.044.043-.015.02-.053.034-.034.064.006.009-.03.012-.039.02-.008.008-.003.02-.009.028-.002.004-.018.003-.028.004-.063.003.033.045-.01.046-.063 0-.067.015-.048.038.015.018 0 .027-.007.04a.148.148 0 0 0-.012.053l.047.012-.03.009-.02.008c-.005.003-.008.008-.012.011l.02.01-.028-.002c-.007.007-.007.018-.022.019-.027.002-.051.001-.03.02.008.008-.01.017-.026.02-.018.002-.029.005-.016.016.015.015-.002.02-.024.025a.075.075 0 0 0-.046.03c-.003.003.026.015.04.023-.012.002-.028.002-.036.006-.004.001.004.01.012.013.016.008.034.015.052.022l-.065-.015-.045-.008c.01.005.027.01.03.014.006.006.005.013.002.018-.006.015-.073.015-.013.046.002 0-.012.008-.017.007-.072-.016-.062-.004-.04.018.01.01.012.021.003.027-.04.028-.034.07-.117.084-.006.001.004.01.002.014-.006.01-.004.028-.025.03-.035.003-.011.018-.02.023-.018.009.052.034-.004.034-.037 0-.011.02-.013.03-.005.019-.019.037-.058.039-.048.001-.013.018-.013.033h.007c.003.002.006.005.007.008 0 0-.007 0-.014-.006 0 .002-.002.002-.004 0-.059 0-.06.002-.009.022.025.01.04.016.026.022-.018.01-.045.015-.057.025-.01.009-.071.005-.02.03.023.012-.008.007-.016.01-.023.008-.063.015-.056.027.01.02-.016.025-.019.039 0 .001-.004.002-.003.004 0 .011.063.032.002.035-.024 0-.03.018-.033.03-.003.012-.005.023-.03.03-.018.004-.014.02-.03.025-.016.006.035.025-.007.023-.004 0-.002.011.005.016.034.02.016.031.017.045 0 .005-.014.008-.027.008-.065 0-.07.008-.025.036.004.003.002.006.003.01l.019.009-.027-.002c-.02.009-.011.026-.05.03-.018 0-.005.02-.013.03-.015.019.016.013.038.017.008.001.026.016.024.02-.002.004-.028.002-.043.002-.02-.016-.044-.018-.07-.016.04.023-.048.009-.025.028.021.018.005.024-.025.028-.02.003-.039.014-.032.024.01.014.013.02-.02.024-.016.002-.006.021 0 .034.002.005.024.012.037.019-.015-.002-.032-.006-.047-.007-.007 0-.017.002-.016.004.03.025-.022.025-.037.037-.013.01-.012.026-.024.037-.015.014-.037.026-.055.038-.014.01-.024.02.006.038a.167.167 0 0 1-.006.051c-.043-.002.013.019-.008.022a.242.242 0 0 0-.043.008c-.05.017-.082.048-.087.09-.001.007.016.016-.015.014-.053-.004-.068.01-.056.028.01.014-.017.008-.021.012s.016.015.022.022c.003.003 0 .008-.006.009-.047.004-.026.035-.084.036-.01 0 .014.025.014.037 0 .015.046.043-.026.04-.016 0-.013.016-.026.022-.022.01.013.024.023.036.015.017.007.027.062.028 0 0 .014.008.014.01-.001.005-.006.013-.012.012-.093-.015-.078.017-.074.044l.027.002c.011-.001.017-.018.03.005.004.006.014.012.022.018.004.004.011.007.017.01h-.022a.49.49 0 0 1-.073-.028c.015.01-.003.005-.02-.001a.046.046 0 0 1-.011-.006c-.058-.012-.04.007-.053.014l.032.006c.012.002.024.006.037.01-.005.001-.009.004-.016.005-.022.003-.044.007-.07.008-.022 0-.018.007-.02.015-.01.023-.018.05-.056.062-.028.01-.005.01.012.02.006.002 0 .012-.009.013-.028.002-.068-.003-.072.012-.003.01.003.011.027.013.007 0 .028.01.03.015.003.004-.012.005-.02.008h-.011c-.007.006-.066-.027-.042.002.01.011-.004.021.043.033.033.008.035.002.046-.003.017-.01.059-.003.08.013.005.003-.004.007-.007.01 0 .001-.016-.002-.018-.004-.01-.007-.02-.017-.032-.008-.006.005.001.014.002.02-.022-.005-.045-.01-.065-.017-.051-.017-.045.008-.082.002.01.004.023.009.03.014.005.003.004.008 0 .009-.063.002-.063.002-.036.031.003.003-.006.008-.008.008-.074-.017-.056.008-.06.02-.005.01-.002.025.009.038.018.023-.065.005-.05.026l.004.01h.02c.019-.017.033 0 .042.01.009.01-.014.035-.028.047-.006.005.01.017.005.023-.005.006-.082-.024-.044.01.013.011-.02.017-.008.035.011.017.005.027.06.027 0 0 .013.008.014.011 0 .002-.01.005-.014.004a.403.403 0 0 1-.052-.013c-.048-.017-.076-.008-.113-.011.004.004.006.008.013.011.06.027.06.032-.005.04-.004.004-.004.01-.012.012-.063.01-.073.035-.065.07h.008l.007.01s-.006 0-.014-.007c0 .003-.004 0-.008-.002h.003a.062.062 0 0 0-.024-.007c-.02.021-.073.034-.046.069.01.013-.06.002-.024.025.02.013.018.028.034.042.023.02.003.016-.03.005-.036-.012-.054-.011-.045.004.004.007.014.012-.009.013-.032 0-.028.009.009.021a.218.218 0 0 1 .042.019c.037.023.036.03-.005.037-.019.004-.063-.002-.032.02.017.011-.03.001-.019.017.017.022.002.022-.061.008-.034-.008-.04-.003-.039.006.001.007.008.017.005.023-.011.022.028.01.043.015l.024.009c-.005.002-.008.005-.016.006-.02.002-.054-.005-.052.009.002.026-.003.03-.04.037-.048.009-.049.009-.009.035.007.005.027.013.026.014-.016.006.032.031-.028.024-.022-.003-.02 0 .009.018.004.002.005.007.002.009a.024.024 0 0 1-.015.004c-.048-.014-.086-.021-.093 0-.072-.004.01.015.006.02-.013.014.005.03.038.047.012.006.016.01-.005.013a.156.156 0 0 0-.068.02c-.022.015.024.051-.05.053-.006 0 .04.013.039.028-.001.024.008.028-.053.023-.019-.002-.062.016-.054.024.05.044-.003.061-.05.079-.017.006-.031.007.005.022.017.007.025.018.036.026-.055-.012-.021.025-.077.012-.018-.004-.03-.009-.026.003.006.02.001.037-.002.055-.003.015.014.034-.035.038-.024.002-.024.02-.034.03zm-.014.004l-.015-.007h.017l.012.003-.014.004zm.796-.495h.015l.007.008h-.01zm-.368-.05h-.011l-.016-.008h.013l.014.008zm-1.078 2.293l-.008-.007.02.001.005.005h-.017zm-.22-.413l-.02-.003c-.002 0-.004-.004-.006-.005l.02.002zm.098-.124l.014-.002c.002.001.007.004.006.005l-.014.002c-.002-.001-.007-.004-.006-.005zm.012-.034c.002.002.007.004.006.005l-.014.003-.007-.006.015-.002zm3.554-4.78l-.02-.009.028.001zm-3.382 4.527c-.007 0-.014-.001-.02-.003-.003 0-.005-.003-.007-.005l.02.002zm.248-.209c-.004.002-.008.004-.014.004l-.015-.006.017-.001zm.208.07l-.02-.004c-.002 0-.004-.003-.006-.005l.02.003zm.35-.546H3.43l-.016-.008h.012zm-.539.44L2.9 11.83h.011l.004.008zm-.004-.023c-.006-.002-.01-.005-.015-.008h.01l.016.008h-.011zm.081.016c.003.002.007.005.006.006l-.014.002-.006-.005.014-.003zm.128.036c.003-.002.009-.002.013-.003l.006.005c-.003.002-.009.002-.014.003-.002-.002-.007-.005-.005-.005zm2.11-3.286l.028.001-.008.008zm-2.37 3.165l.014-.002c.002.001.006.004.005.005l-.014.002c-.002-.001-.006-.004-.005-.005zm.174-.102l.014-.002c.002.001.007.004.005.005l-.013.002c-.003-.001-.007-.004-.006-.005zm1.583-1.8l-.015-.009h.01l.016.008h-.011zm-2.788 4.28c.001.003.003.005.003.008h-.01l-.005-.008zm-1.248.964c-.005 0-.008.003-.014.003l-.015-.006.017-.001zm-.335.565H.223l-.016-.009H.22zm-.082.256c.004-.002.01-.002.014-.003.002.002.007.004.006.005l-.014.003-.006-.005zm2.833-4.386c-.003-.004-.01-.008-.008-.01.004-.003.013-.004.02-.007l.012.015-.024.002zm-.01.155c-.01 0-.019 0-.028-.002-.007-.001-.013-.006-.02-.009l.018-.004c.017.01.024.012.03.015zm.093.17c-.012-.004-.022-.01-.033-.014.005 0 .012-.003.015-.002l.037.013c-.01.001-.016.003-.02.002zm-.236.052l-.03-.014c.009 0 .018 0 .025.002l.033.014c-.012 0-.022 0-.028-.002zm.003.549c-.003-.003-.01-.007-.008-.007.007-.003.017-.005.026-.007l.006.01zm1.653-3.013c0-.005-.002-.01.003-.013.005-.003.018-.004.027-.006l.002.016-.032.003zM9.246 3.11l-.049.003c-.004-.003-.014-.01-.012-.01.007-.003.019-.004.025-.004l.036.01zm-6.015 8.556c-.002.01-.023.015-.037.022-.034-.015-.068-.015-.103-.021-.006-.002-.018-.008-.017-.01.002-.004.007-.009.015-.009.01 0 .026.007.038.009l.044.004-.024-.019-.017-.01h.018l.045.014c.004.002.039.015.038.02zm-.258.274c-.009-.002-.02-.004-.025-.007a.022.022 0 0 1-.01-.01c-.01-.017.016-.032-.054-.05.004-.004.008-.012.012-.012l.136.028v.009c-.007.017-.095.008-.046.043h-.013zm-.012.125l-.056-.01c-.045-.011-.036.004-.043.01-.01.01-.02.014-.056 0a.262.262 0 0 0-.101-.016c-.017 0-.04.01-.06-.008-.007-.005.02-.011.036-.015.037-.008.074-.017.144.004.01.003.025 0 .038 0l.028-.001.07.036zm.02-.348c-.025-.011-.038-.016-.002-.015l.04-.001c-.026-.022 0-.016.03-.005.015.005.025.013.04.019a.2.2 0 0 0 .045.012c.013 0 .02-.004.03-.006 0 .005.003.01 0 .014-.016.019-.017.019-.079.002-.009-.002-.018-.007-.026-.007-.01-.001-.025-.002-.028 0-.006.005-.006.012-.008.018.032.002.051.01.062.023l.033.036-.078-.021c-.026-.008-.025-.008-.018.005 0 .003-.01.006-.015.005-.086-.02-.094-.03-.044-.046l.03-.012c-.003-.006 0-.016-.012-.021zm-.103.247l.014-.003-.006-.005-.015.002zm-.16.005c-.002-.003.014-.007.021-.006.096.022.094 0 .094-.025 0-.009.026-.014.06-.011.014.001.019.006.01.013-.001.002-.015.002-.015.002.024.015.048.031.075.046.005.003.03-.004.037.008.005.012-.056.004-.028.024-.016 0-.038.002-.048-.002-.052-.02-.087-.014-.127-.015-.016 0-.032-.003-.052-.004-.012-.012-.024-.022-.028-.03zm-.894 1.828l.004.008h.011c0-.003-.002-.005-.003-.008h-.012zm.004-.175l.005.008h.01c.001-.002-.001-.005-.002-.008h-.013zm-.024-.031c-.005 0-.01 0-.014.002l.006.005.014-.002-.006-.005zm-.03-.056c-.002-.002-.004-.005-.006-.005l-.02-.003.006.005zm.425-.212l.016.008h.011l-.014-.008zm-.012-.055l-.016-.008h-.01l.015.008h.01zm.048-.434l-.02-.002.006.005.02.003-.006-.006zm.248.036l-.006-.005c-.005.001-.01.001-.014.003l.006.005c.005 0 .01-.001.014-.003zm.001-.029l.006.006.02.002-.006-.005zm-.247-.139l-.006-.005c-.005.001-.01.001-.014.003l.006.005c.005 0 .01-.001.014-.003zm.368.021c.002.002.004.005.006.005l.02.003-.006-.005zm-.03-.055c-.005 0-.01 0-.014.002l.006.005.015-.002zm.011-.05l.02.002-.006-.005-.02-.003.006.006zm-.088-.062c.002.002.003.005.006.005.006.002.013.002.02.003l-.006-.006-.02-.002zm.129.038l-.006-.005c-.005 0-.01 0-.014.002l.006.005.014-.002zm-.073-.212c-.005 0-.01.001-.014.003l.006.005.015-.002zm-.866 1.628c-.005 0-.01.001-.014.003l.006.005.014-.002zm-.45.354l.015.008h.012l-.015-.008zm.01.024c.002.002.004.005.007.005.006.002.013.002.02.003l-.007-.006zm-.758.86H.479l.003.008h.012zm.136.088l-.015-.008H.6l.014.008zm-.221.165c-.005 0-.01.001-.014.003l.006.005.014-.002zm.139.476l-.014.003.006.005.014-.002zm-.158.087l-.014.002c-.001.001.004.004.006.006l.014-.003zm-.084.007H.291l.015.008h.012l-.016-.008zm2.415-3.87c-.006-.005-.01-.01-.018-.012-.006-.003-.016-.003-.024-.005 0 .004.002.008.003.01l.039.007zm-.04.08c-.003.003-.002.008-.002.012.006 0 .018.003.02.002.003-.003.004-.008.006-.013-.012 0-.023-.003-.024-.002zm-.24.238c.006.003.013.007.02.009l.027.002-.03-.015zm.09.074zm0 0c-.013-.005-.024-.01-.036-.013l-.015.002c.011.005.021.01.033.013.003.001.01 0 .019-.002zm-.085.342a.966.966 0 0 0-.017.004c.006.003.012.007.019.009.01.002.019.001.028.002l-.03-.015zm-.252-.08l-.014-.008-.019.008.017.01c.006-.003.013-.006.016-.01zm-.034.28zm0 0l-.003-.016c-.009 0-.02 0-.024.002-.003.001 0 .006.002.01.01 0 .02.002.025.003zm-1.15 1.682c-.008 0-.019 0-.024.002-.003.001.001.006.002.009l.026.004-.004-.015zm-.538.623l.04.006c-.006-.004-.01-.009-.018-.012-.006-.002-.016-.003-.025-.004l.003.01zm2.138-3.113c.01-.002.02-.003.027-.006.003-.001-.004-.006-.006-.01l-.049.003.028.013zm.148-.085zm0 0l-.032-.015c-.005-.002-.015-.002-.023-.003l.033.024zm-1.737 2.84c-.016.004-.03.005-.033.008-.002.002.015.013.018.013.013.001.027.001.036-.001.003 0-.009-.009-.02-.02zm1.412-2.22l.02-.02c0-.002-.01-.006-.015-.009h-.01c-.007.005-.016.01-.016.016-.001.008-.036.009-.002.024l.023-.012zm-.037.034c-.005-.003-.017-.005-.026-.007 0 .02-.05-.005-.068 0-.002 0 .003.003.006.004a.233.233 0 0 0 .108.019l-.02-.016zm.397-.552zm0 0l-.082.007c.006.004.014.01.016.01l.076.002c.003 0-.004-.008-.01-.019zm-.104-.088l.007.003.012.001-.002-.002a.56.56 0 0 1-.017-.002zm.007.003l-.024-.002c.005.002.013.007.014.006.006 0 .01-.002.014-.003zm.012.001l.004.004.017-.001a2.2 2.2 0 0 0-.02-.003zm-.002-.002c.02.002.019 0 .018 0l-.02-.002zm-.999 1.38l-.002.002.002.005h.005a.061.061 0 0 1-.005-.007zm-.002.002a.03.03 0 0 0-.01-.01l-.01.003.019.008zm.002.005h-.007l.012.008a.173.173 0 0 0-.005-.008zm.005 0c.006.009.01.009.01.008l-.007-.008zm-1.14 1.44c.018-.005.055-.01.049-.016-.034-.03.035-.025.048-.04.006-.006.055-.002-.004-.02.005-.001.009-.004.016-.004.011 0 .025.004.038.006l-.03-.014c-.007-.004-.014-.008-.014-.01 0-.014.08-.001.035-.029 0 0 .008-.003.015-.002.04.003.063 0 .026-.022-.008-.004-.012-.013-.007-.014.032-.01-.005-.04.045-.045-.033-.023.05-.017.018-.04-.015-.01.044 0 .016-.018-.01-.007.01-.016.015-.025.006-.01.027-.015.006-.031-.006-.005.035-.01.03-.014-.032-.022.035-.006.027-.016a.162.162 0 0 0-.03-.033c-.02-.016-.034-.03.018-.027.006 0 .008-.004.01-.007.012-.01.013-.025.035-.03.027-.005-.034-.027.01-.027.037 0 .029-.015.013-.031-.004-.005.008-.008.01-.012.01-.014.038-.016.069-.02.028-.005-.059-.03-.04-.042a.03.03 0 0 1 .016-.004c.017 0 .035 0 .006-.011-.013-.005-.04-.01-.012-.013.044-.006.045-.026.055-.042.002-.004-.033-.017-.03-.02.003-.007.023-.008.035-.012.012-.004.028-.007.034-.013.006-.007.006-.016.003-.024-.006-.02.064-.017.043-.04.046-.017.008-.057.067-.07.041-.01.019-.045.086-.047-.057-.02.04-.025-.033-.047-.002 0-.001-.007.002-.009.007-.004.023-.005.023-.01-.004-.028-.012-.055.04-.07.025-.007.044-.022.038-.038-.008-.024-.027-.046.062-.032h.007l-.038-.023h.06c.008-.001.01-.008.007-.012-.036-.063-.03-.07.05-.109.018-.008.035-.02.001-.04a.103.103 0 0 1-.025-.023c-.002-.002.013-.005.016-.004.031.01.053.006.042-.002-.02-.016.005-.022-.003-.033-.012-.017-.03-.032.038-.014l.005-.009c-.046-.011-.03-.018-.022-.026.01-.01.016-.02.029-.027.014-.01.009-.024.044-.026.015-.001.001-.02.01-.027.019-.015.014-.034.02-.052.005-.016.029-.029.041-.044.012-.013.036-.026.024-.042-.021-.028.05-.018.055-.034.002-.007.011-.015.001-.022-.034-.023-.017-.035 0-.046.037-.024.027-.063.106-.072-.027-.04.034-.056.054-.083.014-.018-.037-.051.02-.06.002 0-.004-.006-.009-.009-.028-.017-.023-.028-.009-.038.014-.01.012-.029.036-.03.065-.001-.019-.026-.004-.035.011-.007.009-.021.027-.023.037-.003.022-.019.027-.03.009-.018.034-.036.016-.056-.017-.02.023-.013.03-.02.016-.013-.014-.027-.027-.042l.034.005c.008 0 .02-.002.019-.003-.025-.019.006-.024.015-.034.008-.01.01-.022.046-.025.018-.001.01-.02.015-.03.002-.004.03-.04.028-.044-.03-.063-.029-.063.008-.1.02-.02.047-.04.06-.064.012-.025.023-.029.096-.016.012.002.023-.003.035-.004-.01-.005-.021-.013-.027-.014-.054-.004-.074-.016-.064-.032.004-.006-.034-.026 0-.017.057.014.06 0 .056-.008-.01-.02.023-.024.051-.034l.001.001c.006 0 .012 0 .003-.002.012 0 .01-.004.009-.004l-.02-.001.004.003a.084.084 0 0 1-.026-.009c.025-.017.05-.033.08-.048.002-.002.022.002.034.004l.063.009h.057c-.02-.017-.044-.013-.07-.015-.01 0-.026-.006-.037-.007-.02 0-.042-.005-.027-.01.025-.01-.044-.046.035-.038-.054-.02.04-.026-.036-.048-.002 0-.004-.013.004-.015.015-.004.036-.006.056-.008.027-.003.03-.007-.004-.022-.03-.013-.024-.016.028-.011.03.003.023 0 .005-.01-.02-.01-.018-.012.002-.008.019.003.044.006.02-.004-.05-.02-.053-.033-.037-.048.005-.004.005-.012-.003-.018-.026-.02-.028-.025.028-.015.014.003.045-.008.004-.026a.097.097 0 0 1-.021-.014l.102-.011c.01.008.02.021.038.009a.41.41 0 0 1 .074-.011c.032 0 .05.006.065.02.014.013.032.026.05.039l.04.03c-.028-.001-.055 0-.086-.003-.02-.003-.043-.013-.065-.02-.027-.008-.05-.016-.064-.004-.006.004-.047-.004-.071-.005-.007 0-.01.003-.015.004.026.009.052.018.079.024.008.002.02-.004.03-.007.02-.007.068.001.08.015.003.003-.016.004-.025.006.021.007.04.015.062.02.015.004.046-.003.035.013-.006.008.045.036-.008.026-.07-.013-.056.002-.052.017.004.018.028.039-.024.045-.02.002-.069.017.006.045.005.002.003.01-.002.013-.025.014-.008.04-.047.05-.028.007.017.017.04.025.015.016.009.028-.036.019-.043-.009-.062-.012-.044.008.002.003-.004.007-.01.008-.023.003-.044.007-.07.007-.043.001-.01.01.01.015.034.01.043.017.031.027-.01.008-.011.02-.016.029l.042.007c-.007.006-.01.014-.02.018-.008.002-.034-.003-.017.01.035.025.026.039-.02.046-.04.006-.033.015.003.03.037.015.036.015-.01.018-.006 0-.012.004-.01.007.02.015.033.029.013.039-.013.007-.014.017-.004.031.007.01-.006.023-.04.026-.037.003-.033.025-.078.027.03.025-.014.034-.013.052 0 .01.019.023.03.034.002.005.003.01.007.014.008.012.006.02-.03.008l-.01-.01-.01.003.018.009.002-.002c-.01.016-.046.023-.014.046-.05-.004.002.031-.053.026.035.025-.03.022-.026.034.01.03-.036.043-.049.066-.008.014-.033.023.002.046.015.01-.026.054-.039.06-.016.007-.078 0-.032.028.002.001-.02.005-.03.008a.324.324 0 0 0-.02.037c.034.022.015.034-.012.041-.011.003-.016.003-.015.01.004.026-.038.042-.022.07-.057.004-.046.029-.051.049-.004.016-.04.025-.013.048-.045.006-.03.025-.015.045.005.007-.026.01-.037.016-.007.004-.014.01-.009.015.027.029.031.03-.006.04-.032.008-.042.021-.042.04 0 .015-.007.032-.032.037-.026.006-.047.012-.027.028.026.02-.054.004-.026.025.014.01.005.022.006.033.001.01-.005.02.005.032.016.017-.04.003-.035.02.005.014-.032.023-.057.032-.011-.002-.017-.001-.023 0l.015.005c.005 0 .009-.001.012-.003.03.016.07.035.013.035-.037 0-.061-.001-.009.02.008.004-.003.019-.015.025-.084.04-.084.039-.037.093.002.002-.013.003-.019.005-.007.002-.018.005-.017.009.015.048-.055.073-.08.111-.008.014-.05.021-.013.043.052.031-.028.02-.03.034 0 .001.002.004.005.005.073.023.006.018-.001.024-.014.012-.017.028-.062.03-.011 0-.015.015-.005.02.046.025.002.029-.018.03-.063.005-.06.032-.076.05-.004.005.049.023.028.037a.18.18 0 0 0-.068.066.102.102 0 0 1-.063.06c-.011.005-.013.013-.014.021-.002.01 0 .022.003.033.002.012.007.025.01.038.002.01-.055 0-.031.02.01.008-.051.02-.072.02-.013 0-.035 0-.033.003.004.013.03.006.035.009.014.008.032.02.03.025-.006.013-.01.032-.037.034-.05.002-.027.021-.03.034-.005.019.022.046-.046.046-.011 0-.01.01-.017.015-.048.039-.022.095-.052.138-.005.007 0 .014-.019.017-.036.005-.061.019-.035.04.027.023.014.034-.002.046-.023.015-.057.028-.077.044-.011.01-.001.025-.005.036-.005.013-.008.028-.023.037-.024.015-.008.037-.01.055-.002.018.02.046-.014.052-.039.008-.067.02-.065.039.002.02-.038.024-.047.04-.005.008-.014.015.005.028.02.014.033.026-.012.025-.015 0-.03.01-.023.016.026.023.002.034-.018.043-.026.011.011.04-.036.043.052.02.023.033.037.05.008.01.024.021.018.026-.015.011-.045-.008-.069-.012-.004 0-.007.005-.01.007.04.011.043.016.005.017-.012 0-.016.016-.006.022.05.03.058.032.024.04-.032.007.004.012.018.016.027.008.04.014.03.023-.004.005-.005.012.003.018.007.006.048.01.012.016-.067.01-.087.03-.114.06-.012.013-.015.03-.059.035-.032.004-.04.025-.048.04-.004.008.025.022.033.033.01.013.005.027.024.038.045.026-.032.013-.022.027.007.011.012.025.001.032-.033.02-.074.038-.111.058-.007.003-.022.008-.017.012.032.026-.014.026-.044.03-.078.013-.08.012-.097.029-.008.008-.015.016-.025.024-.017.011-.087.008-.126-.01-.034-.016-.049-.024-.064-.009l-.026-.008c.022-.009.004-.023-.009-.038-.009-.011-.005-.027.012-.03.032-.005.035-.014 0-.028-.033-.014-.042-.022-.008-.022.065 0 .06-.023.055-.043-.003-.013-.012-.028.014-.027.045.001 0-.016.02-.02l.003.002c.005 0 .011 0 .003-.002.012 0 .01-.003.008-.003l-.02-.002.004.003c-.03-.007-.058-.01-.053-.022.004-.011.03-.017.006-.036-.013-.01-.008-.022-.005-.032.004-.013.024-.021.011-.04-.007-.01-.01-.027-.001-.036.012-.012-.01-.037.008-.04.045-.005.008-.021-.002-.035-.004-.004.004-.009.01-.011.019-.008.088-.003.007-.032.003-.002.005-.004.01-.004.037-.002.034-.013.022-.03-.01-.016-.028-.039.006-.044.041-.005.018-.027.032-.039.005-.003-.024-.018.012-.014-.004-.02.05-.025.048-.043-.003-.02.025-.029.056-.035.023-.004.03-.008.012-.021-.024-.019-.034-.033.012-.036.006 0 0-.01-.001-.015-.006-.016-.032-.041-.014-.046.034-.008.047-.017.038-.038-.008-.018.031-.027-.01-.053-.02-.013-.023-.027-.032-.041-.006-.01-.003-.016.032-.01.07.015.074.015.05-.007-.02-.018-.029-.03.022-.027.04.003.058-.004.043-.021-.008-.01-.008-.015.012-.019a.068.068 0 0 0 .041-.02c.009-.01-.028-.015-.045-.022zm1.323-1.23l.006.002h-.002a.307.307 0 0 1-.004-.002zm.54-1.39l-.003.002-.003-.003.007.002zm-2.189 3.49a.4.4 0 0 1 .003.003zm2.298-3.032zm9.346-12.6h-.012l-.003-.008h.011zm-.044.002l.007.006-.02-.003c-.003 0-.005-.004-.007-.005l.02.002zm-.028.069h-.012c-.002-.003-.004-.006-.003-.008h.01zM11.71.37h.012l.003.008h-.011A.654.654 0 0 1 11.71.37zm-.051.169l.007.006-.02-.003c-.003 0-.005-.004-.007-.005zm.06.418L11.703.95h.011l.015.008h-.012zm-.41-.008l.006.006-.02-.003c-.003 0-.004-.003-.006-.005l.02.002zm.275.134c-.002-.001-.007-.004-.006-.005l.014-.003c.002.002.007.005.006.006l-.014.002zm.016.058l.006.006-.02-.003c-.003 0-.004-.003-.006-.005zm-.454-.02h-.012l-.015-.009h.011l.016.008zm.337.112h-.012l-.015-.008h.011l.016.008zm-.15-.04l-.006-.005c.003-.002.009-.002.014-.003l.005.005-.013.003zm-.094-.006l.007.005c-.007 0-.014-.001-.02-.003-.003 0-.005-.003-.007-.005l.02.003zm-.091.028h-.013l-.003-.007h.011zm-.179.332c-.002-.001-.006-.004-.005-.005l.013-.002c.002.001.007.004.006.005l-.014.002zm.153.162l.007.006-.02-.003c-.003 0-.005-.003-.007-.005zm-.318.012h-.012c-.001-.003-.004-.006-.003-.008h.01zm-6.563 8.51l.006.006-.02-.003-.006-.006.02.003zm-.185-.051h-.012l-.003-.008h.011zm6.864-8.334l-.015.002c-.002-.001-.007-.004-.006-.005l.014-.003zm-.367-.024l-.014-.008h.011l.016.009zm-.07.137l.007.006-.02-.003c-.003 0-.005-.004-.007-.005zm.158.27c.005 0 .01 0 .015-.002.002.002.007.005.006.006l-.014.002zm-6.694 7.99h-.013c0-.003-.003-.006-.002-.008h.01zm.245.089c-.002-.002-.007-.005-.006-.006L4.2 10.3c.002.001.007.004.006.005l-.014.003zm5.92-7.997l.014.008h-.01c-.007-.002-.011-.005-.016-.008zm-.106.216l.006.006-.02-.003c-.002 0-.004-.004-.006-.005zm-.219.068l.014.008h-.01l-.016-.008zm-.062.213h-.012c-.001-.002-.004-.005-.003-.007h.01zm-6.206 8.4l-.014-.009h.011l.016.008zm.492-.685l.007.005-.02-.002c-.003-.001-.005-.004-.007-.006zm-.016.045l-.006-.005c.003-.002.01-.002.014-.003l.006.005c-.004.002-.01.002-.014.003zm4.337-5.413H8.32c-.002-.003-.004-.006-.003-.008h.01l.005.008zm-.594.21h-.011c-.006-.002-.01-.005-.015-.008h.01l.016.008zm.12.416l.006.005-.02-.002-.006-.006zm-.402.574h-.01l-.016-.008h.011c.006.002.01.005.015.008zm-1.015.741l.006.006c-.007 0-.013-.001-.02-.003-.002 0-.004-.003-.006-.005zm-3.264 4.3l.014.008H3.18l-.015-.008zm.584-.718zm-.012 0l-.015-.008h.011l.016.008h-.012zm2.579-3.022h-.013c-.001-.002-.003-.005-.003-.008h.011l.005.008zM3.604 10.78l-.006-.005c.004-.002.01-.002.014-.003.002.002.007.004.005.005l-.013.003zm.216.072h-.012c-.001-.002-.003-.005-.003-.008h.011zm2.105-2.82l-.006-.005.02.002.006.006zm.059.021l.006.006-.02-.003c-.003 0-.004-.004-.006-.005zm-.25-.051h-.01l-.016-.009h.012l.015.009zm-.038.263l.007.006c-.007 0-.014-.001-.02-.003-.003 0-.005-.003-.007-.005zM3.38 11.344l.006.005c-.007 0-.013-.001-.02-.003-.002 0-.004-.003-.006-.005l.02.003zm2.418-3.001h-.012l-.003-.008h.011zm-.056.021l-.015.002c-.002-.001-.007-.004-.005-.005l.013-.003zm-.257.21l.007.005c-.007 0-.014-.002-.02-.003-.003 0-.005-.003-.007-.005zm-.12-.03L5.36 8.54l.02.002c.003.001.005.004.007.006zm-.011.09a2.455 2.455 0 0 0-.014-.008h.011c.006.002.01.005.015.008zm-.135.411h-.013c0-.003-.003-.005-.003-.008h.011zm-.072.087l.014.008h-.01l-.016-.008zm-1.79 2.059c-.002-.002-.007-.005-.005-.006l.013-.002c.002.001.007.004.006.005l-.014.003zm1.267-1.565zm-.015.002c-.002-.002-.007-.004-.006-.005l.014-.003.007.006-.015.002zm-.1.11h-.013l-.003-.007h.011zm-1.066 1.408l.007.005c-.007 0-.014-.001-.02-.003-.003 0-.005-.003-.007-.005zm.974-1.194l-.006-.005.014-.003c.002.002.007.005.005.005-.003.002-.009.002-.013.003zm.015.048l.015.008h-.012L4.42 10zm.328-.504l-.04-.01c-.003-.001-.002-.005-.004-.008l.037.008c.003.001.004.006.007.01zm-.443.3a6.2 6.2 0 0 0-.024.005c-.002-.004-.009-.008-.006-.01.004-.003.014-.004.022-.006zm-.352.64l-.009.005a.506.506 0 0 1-.034-.011l.005-.005.038.01zm-.213.141zm-.007.013l-.02-.002c0-.005 0-.01.003-.013l.024.002c-.002.005-.003.01-.007.013zm-.056.194a5.208 5.208 0 0 0-.024.004c-.002-.003-.009-.008-.006-.01.004-.003.014-.004.022-.006zm-.072.061c-.008-.005-.018-.009-.017-.01l.02-.008c.004.003.014.007.013.008-.003.004-.01.007-.016.01zm-.087.313l.03.015c-.009 0-.018 0-.027-.002-.007-.001-.013-.006-.02-.009zm-.318.194a3.524 3.524 0 0 1-.024.004c-.003-.003-.009-.008-.007-.01.005-.003.015-.004.023-.006l.008.012zm.038.046l-.002-.01.024.004.018.012-.04-.006zM11.117 1.36c-.005-.001-.016-.002-.026-.005-.002 0-.005-.007-.002-.009l.024-.001.004.015zm.02.04l-.04-.01c-.003-.002-.003-.006-.005-.008l.038.008c.003 0 .003.005.007.01zm-.338.383l.03.015c-.01 0-.018 0-.028-.002-.006-.002-.013-.006-.019-.01zm-.107.002l-.003-.01.024.005c.008.003.012.008.018.012l-.04-.007zm-.017.278l-.025-.005c-.002 0-.005-.007-.002-.009l.024-.001.004.015zm-.839.478l-.025.006c-.003-.004-.01-.008-.01-.012.001-.002.01-.002.016-.003zM8.118 5.332zm.024-.004c.002.004.009.008.006.01-.004.003-.014.004-.022.006l-.008-.012zm3.02-3.876l-.04-.003c-.005 0-.012-.006-.019-.009l.049-.002zm-6.25 7.887l-.04-.018c.012.002.026.003.037.006.015.005.028.012.043.018a10.103 10.103 0 0 0-.04-.006zm-1.45 1.972l-.056-.004c0-.003-.005-.008-.002-.009.012 0 .026 0 .04.002.004 0 .011.006.019.01zm2.282-2.975l-.048-.002c-.004-.004-.012-.011-.01-.011.012 0 .026 0 .04.002.004 0 .01.006.018.01zm-2.391 2.87h-.047c0-.005-.006-.013-.002-.013.013 0 .03.003.044.006.002 0 .004.005.005.006zm4.218-5.25l-.046.003-.032-.003c0-.005-.002-.013.003-.012.013 0 .03.004.075.012zm2.984-3.83c-.004-.006-.01-.012-.008-.012.018-.003.038-.004.057-.006.003.004.01.01.006.01l-.055.008zm.716-1.123zm.009.018c-.01.002-.026 0-.04-.001-.004-.005-.014-.012-.01-.013.006-.003.021-.003.04-.004.006.01.014.018.01.018zm.921-.59a.087.087 0 0 1 .03.002c.009.006.016.013.017.018 0 .002-.019 0-.042 0-.003-.01-.008-.016-.005-.02zm-1.56 1.658c.003-.003.003-.006.009-.008a.088.088 0 0 1 .027-.002c.005 0 .015.005.023.008l-.016.006-.028.015a.07.07 0 0 1-.02-.002c-.002 0-.007-.004-.006-.005.003-.005.007-.008.011-.012zM6.86 6.912l.051.016c.007.002.012.006.017.01h-.009c-.029-.004-.058-.008-.086-.014-.009-.002-.016-.01-.023-.015-.006-.004-.01-.007-.013-.011.008 0 .016 0 .024.002l.039.012zm-3.662 4.57l-.039-.011-.02-.01.027.002c.023-.001.045-.003.069-.003.007 0 .027.004.028.005.01.016-.033.027-.065.018zm3.419-4.52c-.002-.002-.012-.01-.01-.014a.025.025 0 0 1 .023-.01c.037.005.075.013.112.022.005 0 .015.011.012.013a.28.28 0 0 1-.137-.01zm-.98 1.341zm-.013.011l-.02.004-.013-.01c-.004-.004-.013-.01-.011-.011a.128.128 0 0 1 .029-.018l.023.006c.002.005.003.01 0 .022-.003.004-.004.006-.008.007zm0 .02l-.01-.008h.014a.63.63 0 0 1-.003.008zm.004-.008a.242.242 0 0 0 .005-.02.092.092 0 0 1 .003-.003.067.067 0 0 0-.003.028l-.004-.005zm.008.008s-.002 0-.003-.003a.02.02 0 0 1 .003.003zm-2.003 2.795l-.011-.009h.007a.173.173 0 0 1 .004.009zm.004-.009c.003.003.006.006.007.009 0 0-.004 0-.01-.009zm-.004 0h-.004a.09.09 0 0 0-.002-.004l.002-.003a.063.063 0 0 0 .004.007zm-.008-.003l-.017-.009.009-.003.01.01zM9.246 3.11zM5.53 8.143H5.52l.004.002h.004v-.002zM4.527 9.497a.548.548 0 0 1 .031.007v-.007h-.006l-.03-.004.005.004zm-.562.682h-.004l.005.002-.001-.002zm-.615 1.206a.914.914 0 0 0-.006-.002l.006.002zM11.225.946h-.005a.11.11 0 0 1 .007.002l-.002-.002zm-7.95 10.218h.004l-.007-.002zm-.079.136a.24.24 0 0 1 .01.005.064.064 0 0 1-.003-.005h-.007z"/></g></g></g></svg>