<svg xmlns="http://www.w3.org/2000/svg" width="256" height="7" viewBox="0 0 256 7"><g><g><path d="M94.48 4.562l.064.046c-.027.005-.073.02-.08.015-.022-.016-.03-.039-.044-.06zm-.06.002c.357-.134.421-.125.543.071.014.022.067.035.102.053.104-.093.33-.14.286-.288-.014-.048.001-.1.02-.15.005-.013.078-.029.11-.023a.221.221 0 0 1 .088.053c-.208.13-.044.137.131.199.18.064.39-.001.491.052.296.157.197-.084.296-.085.092-.001.189.062.28.059.206-.008.621-.012.73.032.102.04.26.108-.035.12-.025 0-.047.03-.07.046.037.01.078.017.113.03.208.075.296-.157.526-.066.133.052.301.088.46.1.177.012.434.106.498-.102a.277.277 0 0 1 .126-.004c.282.124.28.124.549-.018.019-.01.1 0 .12.014.036.027.05.066.073.1.05-.099.363-.033.33-.188-.013-.062.009-.127.014-.19.089.017.181.052.266.047.168-.01.076-.053.015-.091-.014-.01 0-.052.004-.052.06-.001.15-.013.176.006.117.08.05.192-.135.216-.112.014-.195.006-.214.101-.026.133.15.12.261.166.284.117.084-.09.186-.093.016 0 .027-.022.046-.026.06-.014.142-.045.181-.032.048.015.103.085.083.102-.071.06-.067.077.062.09.22.02.3-.084.434-.145.046-.02.197-.014.215.006.05.06-.02.115.21.067.305-.063.681-.026 1.02-.002.111.008.183.03.28-.02.107-.057.235-.102.358-.148.04-.015.092-.017.14-.025-.005.035-.003.072-.015.106-.01.03-.035.057-.053.086.145-.016.332.066.396-.094-.019-.013-.037-.026-.04-.04-.013-.052-.01-.105.06-.05-.076-.147-.086-.186-.078-.225.005-.02.043-.037.067-.056.022.021.038.045.066.062.049.031.097.067.158.087.25.079.015.059-.042.083a.273.273 0 0 0-.086.065c.347.066.705.167.867-.083.01-.014.129-.011.192-.003a.218.218 0 0 1 .09.053c-.207.13-.039.134.126.202.122.05.16.158.38.127.127-.018.331.023.388-.017.24-.174.421-.007.617.022.157.024.395.133.437.109.235-.137.561-.024.795-.125a.246.246 0 0 1 .138.002c.073.03.135.1.197.098.073-.002.094-.077.245-.025.18.063.427.057.576-.075.086-.077.144-.018.24-.006.577.073 1.1.059 1.508-.022a1.75 1.75 0 0 0 .274-.084c.12-.045.184.132.316.025.01-.007.68.082.688.09.118.105.292.103.472.09.236-.018.47-.045.706-.051.194-.006.393.028.586.019.209-.01.408-.134.628-.013.011.006.087-.013.105-.03.04-.038.061-.083.09-.124.034.044.05.112.106.127.143.039.364.102.446.067.167-.071.237-.048.392.004.105.035.316.014.432-.027.172-.062.31-.088.462-.003.162.093.31-.141.466-.002.123-.056.182-.118.05-.196.062-.036.129-.102.182-.098.071.004.197.077.185.097-.037.06-.227.121.069.124.155.001.368.072.454.034.192-.087.387-.03.571-.06l.086-.067.048.064c.038.009.094.01.113.027.192.164.318.165.563.011a.375.375 0 0 1 .206-.045c.185.03.405.013.535.131.031.028.168.054.181.044.14-.1.193.056.322.033.145-.027.327.012.46-.022.177-.044.324-.027.496-.01.172.018.416.04.52-.015.267-.137.307.05.452.077.02.004.045-.003.067 0 .186.019.366-.03.573.034.133.041.381-.04.572-.077.065-.012.12-.095.185-.02.146.175.321.023.472.017.183-.008.36-.06.541-.084.143-.02.167.03.196.106.062.16.089.161.319.025-.011-.009-.012-.014.015-.01-.047-.03-.027-.048-.022-.046.03.008.056.022.083.033l-.028.018c.187.03.278.144.482.036.17-.09.46-.085.73-.057.136.015.302.116.438.03.21-.132.276.082.47.059.086-.011.204.076.375 0 .103-.046.32-.005.485.003.06.002.137.044.171.032.49-.17 1.03-.067 1.544-.106.112-.008.261.02.348.064.193.096.325.144.379-.058.004-.014.16-.032.164-.026.17.205.432.048.648.062.079.005.167.015.23.04.041.018.043.067.063.102.025-.04.057-.08.072-.122.023-.06.033-.122.05-.183.028.055.047.114.09.165.022.027.096.063.129.057.074-.013.138-.049.206-.075.052.05.102.142.157.143.19.004.4 0 .568-.046.153-.042.275-.073.411-.007.106.052.174.033.282-.005.095-.033.284-.055.346-.023.175.09.252.031.385-.029.072-.032.215-.01.326-.012l.086-.068.048.065c.067-.002.135 0 .2-.006.062-.005.121-.019.18-.031.076-.016.15-.034.226-.051-.008.047-.03.133-.02.134.245.033.492.065.741.08.191.01.376-.008.556.066.224.091.431.112.677-.036.17-.102.361.21.638.07.047-.024.104-.061.154-.06.133.003.265.038.396.034.144-.003.327-.08.422-.048.32.105.641.045.961.048.245.003.49-.009.736-.014l.736-.016c.267-.006.569-.06.793-.005.255.062.42-.077.635-.028.096.021.201.035.304.039.077.003.158-.023.235-.019.124.006.248.021.369.041.098.017.186.059.285.07.164.017.31-.183.496-.018.03-.013.073-.023.09-.042.124-.126.243-.113.383-.006.08.061.161.036.277.007.36-.09.385-.077.682.059a.47.47 0 0 0 .225.01.811.811 0 0 0 .267-.089c.12-.075.223-.08.327-.001.207.158.489.066.74.085.254.018.106-.151.255-.183.038-.007.058-.048.094-.053a.53.53 0 0 1 .178.009c.024.005.038.044.038.067-.004.144-.006.148.149.142.238-.01.462 0 .688.06.196.052.416.058.623-.008.109-.035.223-.07.342-.085.128-.016.266-.011.4-.011.151 0 .375-.03.44.017.14.099.189-.028.302-.011.484.075.976.14 1.472.174.216.014.468-.103.669-.075.256.037.5.065.757.049.078-.006.15-.041.228-.055.08-.016.192-.048.243-.029.33.123.686.059 1.023.043.131-.006.185.126.382.023.235-.123.159.13.318.152.038.005.093.05.095.05.278-.16.686-.009.932-.108.392-.158.87.02 1.223-.16.533.205 1.24-.16 1.73.184a.368.368 0 0 1 .336-.08c.38.128.773.044 1.158.046.56.003 1.125-.06 1.665.083.037.01.094-.002.14-.006.148-.014.294-.037.442-.043.15-.005.362-.03.443.016.189.108.247-.116.379-.033.206.13.468.026.686.066.225.041.405.028.632-.01.449-.075.867.058 1.283.146.046.01.096.014.144.02.01-.238.327-.125.493-.13.254-.008.514.165.77-.012a.224.224 0 0 1 .092.03c.166.136.337.094.543.027.095-.031.28-.038.268.095 0 .003.095.022.12.011.087-.037.158-.115.244-.12.301-.017.608-.003.84-.152a.15.15 0 0 1 .09-.004c.199.1.438 0 .634.042.286.06.698-.076.852.109.132.158.285.118.39.067.152-.075.354.069.457-.06.299.126.639.074.951.051.53-.038 1.038.043 1.557.054.056.002.138.047.159.081.055.091.157.092.242.04.119-.07.212-.084.33-.008.012.008.082 0 .088-.009.023-.034.03-.07.044-.107.035.03.062.068.11.09a.244.244 0 0 0 .131 0c.183-.055.388-.087.54.002.21.123.371-.184.558-.007.396 0 .792-.003 1.189-.001.127 0 .289-.012.373.027.182.085.314.162.545.037.075-.04.29-.043.386-.01.322.115.598-.072.898-.025.237-.178.35-.05.478.064.038.034.122.081.167.076.506-.064.99.073 1.49.052.255-.01.504.014.758.041.207.022.44.14.655.053.246-.1.577.01.75-.08.258-.134.444-.044.639.006.205.052.36.118.576-.006.084-.048.299-.014.453-.022.129-.007.278 0 .38-.035.294-.103.574-.081.845.01.215.073.451.037.504-.06.066-.12.055-.093.216-.047.544.152.827.164 1.587.133.11-.004.24-.027.331-.003.447.118.905.039 1.357.042.1.001.204-.053.298-.045.102.008.191.065.294.087.033.008.089-.032.138-.036.172-.013.354-.044.518-.024.177.02.342.086.502.141.174.061.271-.118.507-.025.204.081.531.06.805.072.177.008.356-.007.535-.01.192-.002.37-.008.562.056.098.033.31-.044.464-.08.208-.047.403.093.61.012.255.174.543.083.792.01.132-.037.192-.07.336-.012.093.036.274-.005.37.03.104.038.239-.235.288.018.008.042.194.084.31.103.05.008.125-.05.197-.064.216-.044.436-.08.655-.12.06-.212.108-.143.2-.003.028.044.11.13.288.038.106-.055.384-.068.504-.023.257.094.509.042.761.054.147.007.292.025.438.037.105.009.254.047.307.02.234-.12.349-.006.487.066.038.02.062.048.092.073.301-.178.61-.167.925-.012 0 0 .026-.02.043-.029.253-.132.318.014.424.1.188-.05.385-.092.56-.154.271-.095.583-.157.859-.103.246.048.5-.076.722.048.045.025.196.02.257-.005.336-.143.72-.073 1.081-.099.177-.012.408.031.525-.02.274-.123.42-.043.593.064.047.029.148.066.187.055.45-.131.853.016 1.28.044.332.022.615.026.845.175.135-.062.434.109.466-.115.003-.025.147-.034.196-.066.148-.097.2-.077.196.044-.001.026.004.053.004.08.006.15.128.16.277.064.106-.068.201.107.301-.01.013-.015.208.038.312.031.12-.008.304-.088.336-.068.197.121.33-.038.505-.023.217.02.445 0 .668-.011.05-.003.138-.038.137-.056-.013-.173.214-.084.333-.11.134-.03.27-.057.405-.084.071.15.251-.046.402.045.095.058.379.006.577.01.054.001.15.025.154.044.042.187.266.123.377.07a.73.73 0 0 1 .43-.052c.226.04.474.139.654.02.21-.14.434.084.608-.045.129-.095.217.118.378.014.106-.069.278-.066.405.016.359-.096.716.068 1.08.002.14-.026.316.018.413-.084.135.088.312.063.479.06.197-.003.4-.026.537.096.018.016.092.016.139.013.279-.02.558-.037.835-.064.272-.026.54-.065.81-.095.211-.023.46-.005.628-.066.25-.09.371.105.605.045.23-.06.518.03.76-.075.272-.119.518.111.798.035.075-.02.159-.03.24-.041.046-.006.118-.019.138-.006.238.144.493.019.738.021.156.002.277-.043.415-.078.258-.064.542.005.814.047.184.028.385.017.578.027.133.008.262.005.4.026.186.029.47.046.584-.015.209-.112.336.024.509.005a3.483 3.483 0 0 1 1.25.101c.139.036.373.097.509-.102.097-.142.506.166.705-.06.024.021.064.04.07.061.027.119.157.135.254.055.211-.171.502-.161.767-.116.125.022.18.035.24-.025.096-.098.18-.08.287-.006.088.06.167.09.33.037.159-.052.375-.055.564-.054.055 0 .105.13.162.13.11.003.222-.046.336-.067a.276.276 0 0 1 .117.02c.27.091.541.05.813.007l.141-.019c.054.23.386.133.491.092.215-.086.182-.025.204.062.01.04.07.102.119.106.387.03.803-.17 1.17.05.016-.01.03-.026.046-.027.212-.021.426-.035.635-.063.054-.007.098-.04.105-.08-.02-.015-.038-.027 0-.021-.048-.031-.027-.048-.022-.047.03.009.056.022.083.034l-.037.023c.201.076.39-.006.454.014.322.1.644.041.964.044.29.003.6-.052.864-.006.284.05.509-.035.764-.036.245-.002.475.02.681.078.163.046.196-.16.386-.039.075.047.352-.016.426.032.178.114.28-.093.435-.01.105.057.244.096.378.13.043.01.167-.017.168-.03.014-.153.103-.136.243-.045.096.064.214.11.32.017.137-.121.352.116.474-.043.005-.006.115.015.175.024.216.034.99.03 1.196.028a1.97 1.97 0 0 0 .707-.146c.022-.008.087.01.117.025.055.027.09.074.15.091.053.015.13 0 .197 0 .469-.011.937-.023 1.405-.031.202-.004.374-.014.522-.123.233-.17.317.1.512.078.017-.002.029-.027.046-.027.36-.023.584-.259.988-.223.038.003.115-.05.131-.083.051-.11.125-.164.35-.16.3.007.473-.115.547-.324.039-.109.085-.216.118-.324.007-.021-.03-.068-.043-.067-.156.008-.156-.047-.186-.118-.063-.148-.08-.143-.4-.112-.078.008-.166-.012-.25-.018.06-.02.146-.032.174-.062.035-.036.045-.122.023-.128-.116-.029-.252-.063-.369-.051-.38.039-.755.115-1.132-.012a.292.292 0 0 0-.173.02c-.112.075-.194.068-.334.013-.093-.036-.29-.05-.372-.016-.279.117-.589.067-.883.095-.276.026-.533.072-.83.024-.239-.038-.532.04-.72-.12-.01-.009-.062-.006-.09 0-.196.04-.385.097-.586.12-.312.038-.643.104-.912-.076-.087-.058-.233-.061-.253.017-.04.15-.124.141-.294.065-.345-.154-.678-.064-.948.064-.157.074-.312.07-.47.102-.175.036-.34-.141-.495.005-.016-.01-.03-.02-.05-.027-.233-.092-.416-.029-.651.028-.172.041-.422-.11-.664-.035-.038.012-.063.055-.092.054-.243-.005-.448.073-.672.097-.098.011-.311-.112-.326-.102-.192.134-.304-.045-.464-.034-.205.015-.416-.124-.633.013-.034.022-.193-.04-.292-.037-.11.003-.215.047-.324.051-.061.003-.174-.035-.183-.062-.029-.095-.149-.114-.224-.067-.13.08-.262.083-.413.056-.158-.027-.308-.07-.466-.097-.07-.013-.188-.023-.222 0-.26.169-.509.335-.931.15a.11.11 0 0 0-.064.002c-.235.141-.541.064-.81.099a.666.666 0 0 0-.271.082c-.11.08-.178.063-.3.01-.08-.033-.209-.025-.316-.036.052.202-.511.067-.44.28-.042.003-.088.013-.127.007-.028-.004-.072-.04-.069-.043.342-.248-.088-.138-.225-.196-.238-.102-.467-.04-.698-.051-.197-.01-.448.063-.5-.132-.062.017-.156.057-.18.046-.072-.034-.124-.13-.17-.127-.45.029-.914-.044-1.354.093-.13.041-.2.082-.297.138-.25.143-.625-.09-.93.052-.04.019-.158-.015-.235-.032-.039-.009-.062-.04-.1-.051-.273-.088-.63-.048-.867-.2-.029-.018-.14-.01-.192.007-.514.168-1.082.114-1.61.09-.672-.032-.962-.048-1.579.037-.33.045-.69.083-1.03-.005-.213-.056-.475.01-.664-.098-.235.162-.65.01-.888.175-.017.01-.136-.008-.167-.032-.043-.03.257-.08.004-.117-.157-.023-.305-.155-.508 0-.07.053-.419.061-.5.011-.192-.117-.324.076-.43.007-.182-.12-.274.07-.439.025a1.973 1.973 0 0 0-.482-.069c-.238-.002-.539-.026-.705.045-.289.125-.478-.13-.725-.02-.061.028-.188.012-.235.043-.15.097-.288.177-.514.074-.33.153-.659.065-.949-.031-.183-.06-.34-.033-.504-.023-.053.004-.09.092-.134.141-.054-.049-.092-.126-.165-.14-.129-.024-.328.04-.317-.12 0-.01-.12-.038-.167-.03-.11.022-.172.135-.327.06-.229-.112-.204.078-.327.091-.06.006-.123.017-.18.012-.406-.04-.574-.014-.995.157-.022.008-.092-.006-.118-.021-.226-.134-.252-.138-.538-.05-.02.006-.031.019-.046.028-.182-.137-.516.025-.699-.124a.412.412 0 0 0-.181-.048c-.197.16-.33-.063-.524-.027a1.722 1.722 0 0 1-.595.013c-.54-.105-1.062-.063-1.594.002-.1.012-.216-.033-.322-.029-.11.004-.215.05-.323.05-.168 0-.337-.035-.503-.03-.142.003-.292-.14-.425.004-.237-.116-.596-.008-.825-.162a.39.39 0 0 0-.447.013c-.113.089-.198.063-.35.034-.213-.041-.528.083-.623-.144-.332.031-.714-.083-.987.12-.117.086-.26.081-.407.031a.993.993 0 0 0-.674.006c-.325.126-.546-.056-.82-.073-.03-.002.002-.169-.147-.05-.165.132-.42.069-.582.13a.913.913 0 0 1-.65.023c-.082-.026-.254-.029-.304.003-.269.17-.541.052-.77-.007-.28-.073-.518-.093-.786-.003a.4.4 0 0 1-.221-.002c-.114-.056-.204-.129-.3-.197-.123-.088-.424-.1-.53-.021.307.178-.057.105-.133.112-.105.01-.272.045-.347.098-.036.025-.09.041-.136.062-.017-.036-.028-.073-.054-.106-.031-.04-.09-.112-.113-.11-.223.03-.518.033-.645.119-.33.223-.745.107-1.116.15-.033.004-.107-.016-.108-.027-.015-.17-.164-.04-.249-.053-.188-.03-.323.152-.5.027-.091.12-.322-.033-.421.075-.182-.121-.42-.032-.623-.06-.18-.024-.348-.076-.524-.109-.07-.012-.192-.024-.222-.003-.18.128-.418.036-.559.014-.378-.058-.786.067-1.133-.082-.187.128-.445.09-.676.09-.23.001-.485.076-.69-.057-.019-.012-.14.008-.17.032-.073.058-.123.127-.181.192-.092-.044-.177-.12-.277-.128-.251-.02-.496.005-.759-.057-.24-.057-.55.036-.818-.066-.054-.02-.19.034-.288.052-.06.012-.144.041-.176.028-.36-.15-.793-.084-1.167-.145a4.215 4.215 0 0 0-1.091-.027c-.308.03-.545.08-.768-.1-.123-.099-.21-.076-.3.058a.46.46 0 0 1-.566.078c-.026-.015-.143.03-.22.04-.037.003-.113-.012-.116-.023-.026-.114-.105-.122-.262-.066-.234.083-.46.06-.728.014-.435-.078-.898-.185-1.355-.008-.045.017-.15-.024-.227-.03-.075-.006-.162-.016-.227 0-.232.056-.464.152-.605-.07-.009-.015-.151-.024-.17-.01-.148.121-.365.07-.552.08-.219.011-.44.005-.661.006-.129-.176-.3.016-.473-.019-.421-.086-.431-.068-.775.012-.043.01-.113.02-.138.007-.147-.076-.217 0-.33.035-.077.024-.24-.05-.315-.027-.388.12-.742.068-1.096-.043-.11-.034-.276-.115-.32-.096-.308.128-.545-.069-.79-.044-.204.021-.368.02-.546-.025-.22.167-.46.043-.692.016l-.552-.067c-.153.176-.333 0-.49.017a4.169 4.169 0 0 0-.644.13.933.933 0 0 1-.548.005c-.084-.026-.109-.167-.297-.06-.025.013-.22-.078-.337-.12-.124-.044-.141.108-.318.046-.258-.09-.535-.034-.78.075a.198.198 0 0 1-.076.056c-.01-.016-.034-.043-.026-.047.026-.013.062-.018.094-.025-.014-.033-.023-.06-.047-.066-.186-.046-.321.065-.467.066-.15 0-.292-.085-.404.049-.051.06-.114.058-.153-.02-.017-.034-.099-.068-.164-.08-.483-.086-.492-.095-1.003.049-.168.047-.214.104-.324-.038-.053-.07-.266-.172-.49-.055a.417.417 0 0 1-.461-.034c-.063-.045-.224.076-.325-.015-.911.172-1.411.097-2.056.023a4.67 4.67 0 0 0-.823-.044c-.424.026-.588.014-.95-.106-.058-.02-.196-.023-.219-.003-.197.172-.557.205-.752.127-.22-.087-.29.105-.439.017-.222-.133-.304.055-.455.083-.171.032-.272.032-.248-.078.033-.144-.181-.11-.275-.162-.149-.082-.168.028-.232.057-.234.104-.473.088-.726.03-.173-.039-.39-.04-.524-.104-.223-.106-.377.054-.566.018a3.491 3.491 0 0 0-.243-.034c-.076-.008-.184-.035-.225-.015-.275.132-.6.038-.893.079-.14-.148-.337.09-.541-.036-.106-.066-.418-.012-.636-.018-.146-.004-.28.003-.437-.042a.95.95 0 0 0-.67.052c-.085.044-.206.031-.221-.066-.014-.085-.07-.033-.152-.027-.244.02-.454.136-.742.063-.116-.029-.315.081-.466.072-.153-.01-.283-.118-.438-.134-.215-.02-.444.004-.667.009-.223.005-.447.007-.67.015-.24.01-.515-.014-.708.048-.186.06-.415-.134-.533.056-.009.014-.148.022-.19.003-.265-.12-.545-.09-.848-.07-.095.005-.258-.066-.416-.058-.162.008-.32.115-.49.012-.179.127-.37-.012-.56.007-.233.024-.492.044-.655-.11-.008-.007-.087 0-.088.002-.046.257-.193.046-.285.018-.19-.055-.433-.078-.531.019-.198.196-.425.081-.605.037-.147-.037-.237-.11-.384-.005-.027.02-.178.01-.218-.014-.32-.2-.716-.125-1.042-.06a2.804 2.804 0 0 1-.565.052c-.476-.002-1.05.007-1.416.137-.22.078-.31.05-.428-.033-.157-.112-.353-.119-.58-.137a2.229 2.229 0 0 0-.43.012c-.087.008-.205-.126-.303-.124-.118.004-.22.131-.37.017-.494.001-.97-.085-1.458-.112l-.867.134c-.016-.008-.031-.019-.05-.026-.167-.063-.274.068-.445.045-.147-.02-.31.007-.466.004-.168-.003-.353.05-.498-.053-.021-.015-.134-.01-.172.01-.251.125-.552.05-.826.077-.293.03-.523-.057-.773-.135-.423-.132-.892-.062-1.344-.046-.016.001-.043.019-.044.028-.008.121-.059.165-.276.092-.186-.063-.2.09-.322.119-.01.002-.05-.035-.069-.056-.028-.032.029-.113-.127-.064a5.856 5.856 0 0 1-.45.122.736.736 0 0 1-.173.006c-.05-.245-.45-.066-.61-.176-.188-.128-.415.19-.6-.016-.061.065-.113.133-.185.192a.28.28 0 0 1-.16.044c-.041-.004-.1-.049-.1-.076 0-.05.036-.1.058-.151-.09.027-.178.058-.272.079-.217.048-.439.083-.666.114-.149.02-.176.082-.215-.05-.013-.045-.198-.085-.315-.1-.046-.007-.133.054-.178.093-.122.106-.168-.002-.24-.027-.083-.028-.428-.014-.454.03-.042.07-.067.089-.14.012-.035-.037-.088-.089-.143-.093-.179-.015-.339.073-.527.046.043.12-.086.126-.232.124-.144-.002-.333.04-.312-.116-.42-.152-.87-.12-1.31-.052-.085.013-.11.022-.196-.004-.219-.066-.455-.113-.685-.168-.124.164-.343-.074-.47.037-.191.169-.336-.073-.513-.016-.054.018-.165.027-.166.04-.002.215-.295.127-.436.122-.149-.004-.287-.128-.436.011-.015.014-.116-.002-.176-.01-.123-.014-.299-.008-.355-.052-.158-.128-.249.03-.368.011-.1-.015-.23-.02-.286-.06-.14-.098-.31-.094-.482-.078-.228.022-.465.043-.673.097-.272.07-.376-.188-.534-.11a1.128 1.128 0 0 1-.586.13l-1.355-.05c-.144-.135-.362.01-.464-.025-.433-.147-.42-.159-.566.077-.008.013-.081.01-.124.016-.006-.099-.037-.16-.192-.047-.105-.088-.319.244-.373-.034-.108.02-.22.06-.323.054-.169-.01-.334-.064-.492.016-.15-.136-.28.03-.425.01-.183-.025-.367-.061-.551-.063-.165-.001-.352-.037-.499.06-.032.02-.212 0-.213-.004-.008-.1-.085-.132-.253-.12-.411.03-.81.008-1.18-.118-.041-.014-.159.016-.204.045-.26.169-.572.247-.91.17-.31-.07-.604-.018-.903-.012-.047 0-.09.09-.134.137-.264-.173-.497-.01-.672.057-.187.07-.25.032-.388-.019-.109-.04-.143-.238-.38-.086-.426-.146-.929.031-1.367-.11-.078-.024-.233.042-.355.054-.119.01-.345.013-.347.004-.059-.235-.37-.12-.521-.104-.198.02-.374.042-.549-.018-.072-.025-.116-.076-.193-.007-.218.194-.575.138-.846.108-.15-.016-.201-.019-.29.038a.546.546 0 0 1-.131.05c-.11-.086-.173-.022-.241.024-.025-.032-.041-.07-.079-.096a.209.209 0 0 0-.118-.023c-.56.082-.94.085-1.68.009-.074-.008-.085.147-.215.019-.13-.13-.158-.124-.263-.024-.055.053-.1.111-.172.155a.28.28 0 0 1-.17.003c-.04-.018-.07-.082-.047-.099.104-.073.189-.127-.073-.118-.156.005-.312.011-.468.01-.168 0-.297 0-.28.142.008.078-.062.172-.147.235-.048.036-.2.022-.304.03.022-.037.04-.076.066-.112.038-.057.08-.11.121-.166-.081-.01-.162-.027-.244-.03-.111-.004-.251.03-.329 0-.165-.06-.296-.115-.43.015-.199-.13-.316.027-.458.056-.138.027-.228.08-.278-.044-.01-.023-.03-.058-.057-.063-.222-.041-.487.066-.682-.07-.03.016-.057.038-.093.049-.032.01-.391-.092-.433-.107-.089-.032-.182-.08-.275-.082-.195-.004-.44-.021-.576.038-.215.093-.363-.128-.511-.014-.179.137-.24.002-.336-.038-.05-.022-.07-.065-.104-.098-.05.038-.149.107-.143.11.176.096.035.16-.075.104-.251-.127-.455-.018-.45.062.01.152-.239.09-.284.17-.018.033-.063.062-.096.092-.012-.037-.054-.083-.031-.108.08-.088.17-.176.283-.249.127-.083.08-.11-.073-.097-.165.013-.336-.125-.492.008-.373-.033-.8.127-1.124-.106-.007-.006-.086.03-.135.034-.172.014-.37.059-.516.026-.586-.132-1.175-.017-1.76-.028-.105-.001-.245.14-.255-.046 0-.01-.073-.032-.107-.028-.467.051-.962-.06-1.42.1a.717.717 0 0 1-.498-.032c-.09-.044-.29-.083-.36-.055-.299.12-.573.027-.771-.056-.192-.08-.205.067-.315.036-.056.028-.134.086-.165.078-.475-.12-.935-.21-1.454-.052-.134.04-.383.07-.563-.032-.048-.028-.207-.037-.24-.015-.193.125-.375.026-.566.011-.206-.016-.42-.132-.63.008a.316.316 0 0 1-.19.005c-.23-.14-.506-.04-.757-.06-.145-.011-.282.014-.438-.041-.238-.084-.527-.141-.636.107-.004.01-.081.022-.087.017-.158-.13-.213.076-.378.038-.153-.035-.357.017-.527-.003-.136-.016-.249-.09-.383-.123a3.616 3.616 0 0 0-.472-.086c-.248-.029-.565-.11-.736-.05-.283.097-.553.07-.824.077-.384.009-.774.068-1.158-.042-.124-.036-.408-.03-.444.01-.11.125-.314-.038-.393.068-.237-.143-.398.032-.596.05-.007.183-.242.134-.42.161 0 .002 0 .003 0 0-.024.03-.05.043-.075.056-.01-.016-.033-.043-.025-.047.027-.013.066-.018.1-.026-.003-.062.001-.11-.014-.156-.008-.025-.06-.043-.093-.064-.27.154-.302.048-.324-.096-.004-.025-.125-.067-.183-.062-.315.025-.625.067-.94.095-.162.013-.36-.02-.36.14 0 .01-.148.04-.165.028-.163-.11-.302-.088-.42.021-.148.137-.282-.064-.43 0-.125.053-.323.154-.384.132-.243-.086-.477-.005-.708-.028-.042.067-.07.14-.129.201-.061.063-.233.157-.221.165.135.087.215.004.304-.049.024.033.04.07.076.097.022.017.095.032.114.024.108-.048.144-.11.147-.198.007-.19.025-.191.345-.096.11.033.221.069.317.114.047.023.06.07.089.106-.06-.002-.137.008-.177-.01-.09-.04-.182-.092-.268-.025-.027.022.057.1.107.146.028.026.088.04.134.06.096-.144.256-.092.406-.044.093.03.174.072.263.107.015.006.053.005.063-.002.023-.014.035-.035.05-.053-.178-.012-.03-.19-.271-.18-.176.006-.12-.089-.123-.145-.002-.03.043-.065.084-.087.022-.011.092-.006.122.007.176.075.222.232.47.268.007 0 .005.05-.01.072-.024.041-.228.093.023.11.17.012.43-.027.5.025.18.137.317-.079.496.01.07.034.294-.049.451-.063.144-.013.33-.038.31.115.076.002.186.025.222.004.117-.07.194-.067.336-.015.085.032.244-.005.367-.02.01-.002 0-.056-.052-.121a.272.272 0 0 0-.016.009c-.03-.028-.06-.056-.012-.04-.048-.07-.03-.09-.014-.111.029.038.062.074.082.113.002.004-.004.008-.013.014.142.04.236.046.312.072.104.035.17-.11.292-.006.056.049.196.04.222-.056.007-.026.05-.05.078-.075l.236.237c.027.02.047.052.081.059.116.024.2-.14.368-.016.034.026.27-.043.459-.108l-.013-.006c.025-.013.05-.027.039-.002.052-.029.082-.017.08-.014-.015.018-.037.033-.057.05l-.033-.018c-.025.05-.023.074-.022.098.178-.004.408.032.524-.02.235-.107.426-.028.633-.005.244.029.493.054.722.107.146.034.121-.004.135-.055.043-.158.406-.001.453-.158.072.045.182.085.207.138.054.116.122.084.273.057.408-.074.833-.162 1.222.043.07.036.475-.029.525-.076.161-.154.177-.126.502-.079.198.029.19.161.213.148.304-.17.602.01.893-.008.177-.011.364-.06.511-.12.107-.045.154-.026.193.015.105.111.233.185.471.184.072 0 .016.233.24.056.298.026.355-.079.352-.22 0-.01.07-.028.108-.028.038-.001.095.008.113.025.112.102.147.114.196.056.134-.157.285.008.422-.016.01-.002.047.061.083.088.192.147.193.146.492.053.238-.074.304-.077.638-.02.172.03.22-.062.318-.106.037-.016.091-.017.138-.025.007.025.015.05.019.075.006.044-.288.114.037.132.1.005.193.04.292.058.116.02.19.016.22-.078.058-.178.11-.212.342-.127.159.057.206-.073.297-.01.163.116.255.001.376-.036.254-.08.34-.07.505.064.046.038.072.09.082.136.024.113.12.14.252.065.093-.054.12-.019.197.006.163.051.24.009.223-.1-.015-.098-.004-.157.184-.058.124.065.322.09.415.163.17.136.287-.057.426-.003.349.133.72.033 1.08.032.013 0 .026-.033-.005-.072l-.011.008c-.022-.015-.045-.03-.004-.023-.047-.031-.027-.049-.022-.047.03.008.056.021.083.033l-.031.02c.436.092.809.12 1.177-.008.05-.017.13-.005.195-.006zM77.516 4.34l-.076.038c-.01-.017-.034-.044-.026-.047.027-.013.066-.018.1-.026zm9.336-.92c.015-.01.036-.027.04-.026.03.01.056.022.083.034l-.057.036zm-.684 1.01l.05.049-.045.03c-.016-.018-.037-.034-.045-.053-.003-.006.025-.018.04-.027zM52.053 2.304zm0 0l.075-.039c.016.009.046.021.043.024-.014.018-.037.033-.056.049zm4.626 1.384l-.044.052c-.016-.009-.046-.019-.044-.026.006-.018.025-.036.039-.053zm1.94-.007c-.011.001-.03-.016-.046-.024.03-.01.057-.022.088-.027.011-.001.03.015.046.024-.03.01-.057.022-.088.027zm.41.073l-.05-.027c.03-.01.058-.022.089-.027.01-.001.03.015.046.024l-.085.03zm76.221 1.393l-.048-.064.134-.003-.086.067zM63.124 3.862l-.044.052c-.016-.008-.046-.019-.044-.025.006-.019.025-.036.039-.054zm3.63-.152c-.027.012-.052.025-.078.038-.01-.016-.033-.043-.025-.048.027-.013.065-.017.1-.025zm-.061-.638l-.045.052c-.015-.009-.045-.019-.043-.025.006-.02.025-.036.038-.054zm8.464.31l-.045.029c-.016-.018-.038-.034-.046-.053-.003-.006.026-.017.04-.026zm-7.823.291l.088.026c-.014.01-.031.027-.042.026-.032-.003-.061-.015-.091-.023zm.252.088c-.003-.007.025-.017.04-.027.016.018.037.034.045.052.003.007-.026.018-.04.027-.016-.017-.037-.034-.045-.052zm.094-.225l-.084.03-.05-.028c.03-.009.057-.021.088-.026.011-.002.03.015.046.024zm.02-.371c-.01.001-.03-.016-.045-.024.03-.01.057-.022.088-.027.011-.001.03.016.046.024-.03.01-.057.022-.088.027zm51.046 1.716l-.048-.065.134-.003-.086.068zm-50.455-.86c-.01.001-.03-.015-.045-.024.029-.01.057-.022.088-.027.01-.001.03.016.046.024-.03.01-.057.022-.089.027zm1.998-.202c-.01.001-.03-.016-.045-.024.029-.01.057-.022.088-.027.01-.002.03.016.045.024-.029.01-.057.022-.088.027zm29.6-.062c-.002-.006.026-.017.04-.027.017.018.038.034.046.053.003.006-.026.017-.04.026-.016-.017-.037-.033-.045-.052zM33.198 1.64l-.088-.026c.014-.01.031-.027.042-.026.032.004.061.015.092.023zm-17.316.983l-.076.038c-.01-.016-.034-.043-.026-.047.027-.013.066-.018.1-.026zm-8.62-.347l-.046.03c-.016-.018-.037-.034-.045-.053-.003-.006.026-.017.04-.027zm-3.76-.402c.03-.01.058-.022.09-.027.01-.001.03.016.045.024-.03.01-.057.022-.089.027-.01.001-.03-.016-.045-.024zm68.24 2.28l.117-.055.14.059c-.054.012-.107.03-.163.034-.03.001-.062-.024-.095-.038zm-1.996-.192l-.113.031c-.017-.02-.053-.045-.046-.063.01-.026.052-.047.08-.07l.08.102zm-1.941-.664c-.002-.01.051-.022.1-.041.012.043.03.077.03.112-.001.01-.054.02-.083.031-.017-.033-.041-.067-.047-.102zm-1.58.448c-.005-.019.037-.04.07-.072.023.04.053.074.057.107.003.02-.038.041-.059.062-.024-.032-.06-.064-.068-.097zm-7.047-1.174l.122.036c-.064.017-.126.036-.192.048-.014.003-.042-.021-.064-.033zm45.604 2.288l.153-.07.205.038c-.06.018-.117.046-.18.053-.056.005-.119-.013-.178-.02zm100.892 1.776c-.03.011-.084.038-.145.049-.021.003-.063-.032-.095-.05l.233-.108.007.109zM70.774 3.279c.07.008.104.115.115.128.005.084.015.112.006.136-.006.016-.04.028-.061.041-.024-.02-.045-.041-.072-.06-.048-.032-.099-.062-.148-.093-.04.036-.089.07-.116.11-.022.033.001.083-.033.106-.032.021-.115.022-.173.018-.024-.001-.065-.043-.057-.059.047-.094.184-.175.112-.285.144-.017.295-.058.427-.042zm-4.573.048c.003-.01.028-.019.047-.031.26.185.488-.039.737-.021.04.003.113.018.112.02a3.005 3.005 0 0 1-.156.374c-.007.012-.124.004-.19.006.025-.2-.276-.172-.457-.228-.035-.01-.079-.025-.093-.044-.016-.021-.007-.05 0-.075zm-1.678-.224l.209.239c-.037.02-.078.041-.118.064-.052.03-.147.06-.146.089.008.206-.249.275-.5.344-.11.03-.297.08-.341.056-.147-.082.065-.118.13-.158.133-.08.21-.16.166-.273-.043-.11.065-.124.22-.13.106-.004.275.048.304-.08.012-.05.05-.1.076-.15zm4.635.66c-.022-.037-.162-.05-.236-.071-.109.019-.19.03-.269.046-.406.084-.491.046-.432-.198.003-.012.087-.032.113-.024.148.043.143.046.148-.032.004-.075.014-.15.022-.226.113.05.221.105.34.15.137.053.162.114.071.193.083.007.168.023.248.017a.218.218 0 0 0 .123-.065c.018-.02-.004-.05 0-.077.02-.18.021-.18.33-.18.06 0 .12.017.18.025-.065.02-.154.03-.186.062-.034.034-.03.089-.014.131.017.046.086.086.097.131.023.09.01.168-.18.063a.79.79 0 0 0-.174.09c-.123.088-.134.046-.181-.034zm-3.575-.232l.084-.03c-.015-.009-.035-.025-.046-.024-.03.005-.059.018-.088.027zm-1.012.214c.054-.049.091-.092.143-.13.136-.097.342-.169.28-.33-.012-.03.105-.078.163-.117.155.106.283-.053.413-.017.144.04-.05.085-.03.104.09.094.204.18.314.268.002.002.057-.03.089-.031.119-.005.165.016.128.052a.496.496 0 0 1-.374.116c-.323-.05-.6-.098-.686.17-.006.02-.124.051-.16.04-.093-.026-.17-.073-.28-.125zm-27.046-1.49l.046-.029c-.03-.008-.06-.02-.091-.022-.011-.002-.028.016-.043.025.03.01.06.018.088.026zm2.3.345l.047-.03c-.03-.008-.06-.019-.092-.022-.01-.001-.028.016-.042.026l.088.026zm.275.095l-.084.03c.015.009.034.026.045.024.031-.005.06-.017.088-.027l-.049-.027zm.62.263l.05.027c.013-.018.032-.035.038-.054.002-.006-.028-.016-.043-.025zm4.477-.652l-.05-.05c-.015.01-.043.02-.04.027.008.018.029.035.045.052zm.634.172c-.014.009-.043.02-.04.027.008.018.029.035.045.052.014-.01.043-.02.04-.027-.008-.018-.029-.035-.045-.052zm5.86.768l-.05-.027c-.013.017-.032.035-.038.054-.002.006.028.016.044.025l.044-.052zm.382-.63c.015.009.034.026.045.024.031-.004.06-.017.088-.026-.015-.009-.034-.026-.045-.024-.031.005-.06.017-.088.027zm.515-.022l-.05-.027c-.013.018-.032.035-.038.054-.002.006.028.016.044.025zm.75.943c.015.008.034.025.045.023.031-.004.06-.017.088-.026-.015-.009-.034-.025-.045-.024-.031.005-.06.017-.088.027zm1.258-.988l-.05-.026c-.014.017-.032.035-.038.053-.002.007.028.017.043.025zm.52.209l-.084.03c.016.008.035.026.046.024.031-.005.059-.017.088-.027zm.745.102l.049.027c.014-.018.033-.035.038-.054.002-.006-.027-.016-.043-.025l-.044.052zm.515.282zm-.05-.027c-.013.018-.032.035-.038.054-.002.007.028.016.044.025a6.33 6.33 0 0 1 .044-.052zm-.084-.275c.016.009.035.026.046.024.03-.005.06-.017.088-.027-.015-.008-.035-.025-.045-.023-.032.005-.06.017-.089.026zm2.534.548l-.084.03c.015.009.035.026.045.024.031-.005.06-.017.089-.027zm-24.61-1.273l-.085.03c.015.009.035.026.046.024.03-.005.059-.017.088-.027zm-6.251.336l-.05-.05c-.015.01-.044.021-.04.027.007.019.028.035.044.052zm-.274-.096l-.05-.027c-.013.019-.032.036-.038.054-.002.007.028.017.044.025zm-14.272.062l-.046.03c.03.008.06.019.092.022.011.002.028-.016.042-.025zm-.593-.444l.051.05c.015-.009.043-.02.04-.027-.008-.018-.029-.035-.045-.052zm-3.007.13l-.085.03c.016.008.035.025.046.023.031-.005.06-.017.088-.027zM4.056.805l-.084.03c.015.009.035.025.046.024.03-.005.059-.017.088-.027zm-1.73.196l-.084.03c.015.009.035.026.046.024.03-.005.059-.017.088-.026zm-.411.156c-.014.01-.043.02-.04.027.008.019.029.035.045.052.014-.009.043-.02.04-.027-.008-.018-.029-.035-.045-.052zm59.838 2.348l.117.027c.014-.022.047-.047.037-.065-.013-.025-.057-.045-.088-.067l-.066.105zm-1.065-.234c-.073-.005-.133-.013-.192-.01-.018.001-.032.033-.047.05.059.009.118.02.177.021.016 0 .033-.032.062-.061zm-3.981.11l-.08-.103c-.028.023-.07.045-.08.07-.007.019.029.042.046.064zm-.747-.335c-.048.02-.102.032-.1.041.006.035.03.069.048.103.029-.01.082-.02.082-.032.001-.034-.017-.07-.03-.112zm-4.802-.492l-.08-.101c-.028.022-.07.044-.08.07-.006.018.03.042.046.063a8.81 8.81 0 0 0 .114-.032zm-.107.772c.032.028.054.06.07.059.058-.004.115-.018.173-.029-.017-.016-.035-.048-.053-.048-.059 0-.118.01-.19.018zm-3.586-.506l-.045.069c.037.008.08.027.11.022.043-.008.076-.034.113-.052l-.178-.04zm-26.588-.755l-.046.07c.038.007.08.027.11.021.044-.008.077-.034.114-.052l-.178-.039zm-10.016.038l.118.027c.014-.022.046-.048.037-.066-.013-.025-.057-.045-.088-.067l-.067.106zm48.882 1.3zm.07.094l.215-.11c-.035-.013-.075-.038-.104-.034-.064.01-.123.033-.181.05l.07.094zm1.6-.27l-.16.04.188.127c.02-.02.063-.043.056-.06-.016-.038-.055-.073-.084-.107zm-43.787-1.69c-.096-.049-.154-.093-.177-.087a.38.38 0 0 0-.156.082c-.009.008.067.07.1.068.064-.001.125-.03.233-.062zm34.45 1.197l-.239.03c.065.111.21.03.316.045.083.01.175 0 .263-.005.016 0 .046-.02.043-.025-.01-.019-.03-.05-.049-.05-.087-.004-.175.001-.335.005zm-.73-.063c-.141.02-.253.226-.168.293.013.01.039.027.046.025.119-.035-.005-.201.253-.163 0-.026.018-.058-.001-.077-.032-.03-.088-.054-.13-.078zm8.864.266c-.112-.033-.193-.067-.205-.06a2.08 2.08 0 0 0-.26.182c-.007.006.043.038.067.057l.398-.178zm.8.38l-.017-.008-.027.03.001.024a.637.637 0 0 1 .042-.045zm-.045.01c-.034.008-.073.013-.1.027-.008.003.016.03.025.047.018-.009.035-.018.076-.062zm.073-.073l-.076.038.03.017.046-.055zm-.014.072c.02-.016.042-.031.057-.049.002-.002-.017-.01-.072.04zm-21.878-.464a1.36 1.36 0 0 1-.076-.025l-.015.01.051.016.04-.001zm-.06.001c.014.02.022.043.045.06.006.004.052-.01.08-.015-.015-.01-.03-.021-.105-.045zm-.126-.043l.067.045.028-.018a5.267 5.267 0 0 0-.095-.027zm.124.008c-.027-.011-.053-.024-.083-.033-.004-.001-.019.01.069.042zM15.88 2.588c-.023-.056.056-.15-.116-.152-.144 0-.306.014-.43.055a.343.343 0 0 1-.283-.01c-.172-.07-.333-.042-.45.058-.146.126-.265.08-.424-.001-.196-.102-.218-.093-.301.1-.04.095-.127.092-.235.057-.147-.05-.329-.087-.42-.161-.18-.147-.449-.075-.65-.129a1.125 1.125 0 0 0-.654.012c-.125.033-.362-.08-.55-.127-.062-.014-.16-.047-.187-.034-.206.103-.363.051-.511-.044-.107-.068-.184-.06-.332-.014-.192.06-.405.11-.666.061-.229-.042-.485.077-.741.025-.09.091-.169-.005-.236-.002-.21.01-.4-.088-.632-.003-.19.07-.424-.016-.597-.076-.175-.061-.304-.09-.466-.007-.022.01-.061.01-.092.016-.075-.25-.279-.078-.444-.05a.462.462 0 0 1-.195.001c-.14-.052-.206-.17-.458-.076-.098.036-.335-.065-.539-.061a1.591 1.591 0 0 1-.47-.076c-.2-.07-.378-.038-.565-.055-.14-.013-.313-.026-.405-.08-.16-.092-.33-.044-.497-.057-.16-.012-.104-.086-.084-.17l.027.014c.02-.016.042-.03.057-.049.002-.003-.027-.015-.08.013.012-.024-.014-.01-.039.003l.015.008c-.125.043-.18-.1-.328.01-.087.063-.256.01-.408-.023-.242-.05-.53-.11-.776.043-.126.078-.203.04-.256-.066-.054-.11-.182-.12-.373-.056-.103.034-.317.012-.425-.032-.15-.061-.27-.132-.47-.099l-.01-.078c.257-.004.204-.057.124-.17C.218.98.448.808.667.792c.132-.01.267-.007.4-.01.294-.007.29-.012.74-.172.17-.06.348-.17.575-.04.035.02.148-.006.222-.015.393-.049.782-.109 1.178-.144a1.1 1.1 0 0 1 .413.068c.151.052.27-.155.437.002.072.069.279.085.412.136.107.04.188.136.292.142.239.015.536.037.714-.031.24-.092.47-.065.696-.066.492-.003.81-.012 1.206-.147.215-.073.115.032.165.061a.5.5 0 0 0 .225.042c.155-.004.183.04.185.117.001.041-.074.138.147.077.23-.064.232-.041.424.135.042.038.262.06.315.032.165-.086.205-.07.202.05.044-.005.119 0 .127-.013.042-.063-.098-.173.113-.185.083-.005.18.058.266.093.167.069.451.028.517.191.23-.104.456.04.702.001.19-.029.427-.061.627.046.05.027.244.013.297-.022.163-.107.275-.052.378.023.1.072.222.063.355.069.234.01.437-.076.698-.03.228.041.493.002.746-.074.22-.066.5.042.736.073.248.031.472.114.758.088.186-.016.385.006.576.022.164.014.327.069.484.061.295-.014.584-.068.878-.09.213-.016.414-.022.607.09.181.103.453.071.665-.003.11-.04.18-.013.28-.01.681.016 1.324.192 2.015.158.09-.005.217.017.262-.01.255-.158.509-.04.765-.014.186.018.346.11.572-.002.121-.06.39-.03.587-.017.078.006.156.073.205.122.018.019-.169.062-.017.1.037.01.129-.039.178-.07.08-.05.46-.168.526-.13.174.097.249-.059.378-.032.155.032.308.07.465.1.136.028.274.056.415.074.104.013.224.027.32.01.343-.064.678-.048 1.03-.027.374.022.761.008 1.134-.025.25-.022.291.14.36.14.314 0 .648.06.95-.076.097-.044.316-.14.468.017.033.035.245.057.29.032.186-.102.404-.08.617-.086.11-.003.293-.173.314.045.001.009.03.022.048.024.184.021.348-.188.558-.003.15.133.41.048.62.056.584.02 1.177-.094 1.757.039.049.011.123-.011.183-.023.048-.008.116-.042.137-.033.527.22.525.219 1.359.103.12-.017.357-.013.37.012.09.168.163.108.307.022.225-.135.307-.002.406.1-.03.006-.062.012-.086.023-.008.004.016.03.025.047a.198.198 0 0 0 .076-.055c0 .002 0 .001 0 0a.683.683 0 0 1-.015-.015.693.693 0 0 0 .014-.003l.001.018c.217-.039.468-.108.643-.067.187.045.218-.117.383-.044.109.047.27.053.408.078.138.025.32.025.405.079.17.11.268-.109.432-.009.132.08.28.041.458-.008.17-.048.421-.03.618.001.24.038.45.042.68-.018.265-.068.267-.055.55.069a.53.53 0 0 0 .224.008c.12-.014.28-.081.349-.056.212.077.4.153.647.058.204.109.455.045.682.068.282.029.557.104.824-.023.317.097.676.03.996.09.097.019.118.008.196-.012.202-.05.42-.07.59.053.004.003.553.032.56.03.075-.02.208-.062.217-.055.186.165.339.007.497-.018.114-.018.848-.024.921.031.17.128.388.088.603.099.344.016.683-.065 1.04.018.142.033.357-.126.543.006.143-.14.408.057.555-.07.174.122.405.05.64.06l-.027.001c.014.02.023.043.045.06.006.004.052-.01.08-.016-.022-.015-.043-.03-.095-.044.004 0 .004 0 0 0-.003-.109.096-.099.22-.054.048.017.101.03.152.045.11.048.21.118.334.139.24.04.52-.045.742.075.185-.102.468-.048.645-.127.17-.076.38-.08.488-.042.15.052.284.07.428.052a.66.66 0 0 1 .463.11c.02.011.098.005.128-.01.21-.102.207-.103.27.014.063.116.15.149.376.07.272-.095.486-.089.69.046.097.064.126-.006.191-.018.096-.018.207-.01.312-.013l-.072.113c.149.008.299.028.445.021.179-.008.234.03.23.13-.004.057-.015.15.158.05.104-.059.235-.102.36-.146a.259.259 0 0 1 .136-.01c.202.083.234.032.283-.088.05-.123.224-.114.384-.046.013.07-.026.198.178.147.288-.072.556.021.83-.01.058-.006.172.007.178.021.083.234.456.15.566.106.28-.109.46-.01.68.037.175.037.328.102.423-.09.072-.143.237.033.373.036.248.007.041.064.032.107-.014.06.014.123.024.185.062-.017.155-.058.18-.046.13.057.058.189-.109.223-.076.016-.206.03-.213.053-.02.076.006.155.014.234.04-.008.099-.008.12-.025.074-.059.127-.172.202-.177.213-.01.188-.08.182-.16-.006-.065-.048-.143-.004-.194.067-.079.194-.14.296-.209.076.053.15.107.229.159.103.066.202.135.317.194.125.064.146.12.022.194a2.336 2.336 0 0 1-.428.153c-.23.014-.095.064-.024.106-.18.074-.357.148-.54.218a.336.336 0 0 1-.1-.078c-.084-.133-.336-.082-.355-.044-.078.154-.15.136-.304.037a.479.479 0 0 0-.23-.045c-.244.008-.403-.024-.483-.186-.038-.076-.094-.01-.122.042-.03.053-.065.055-.125-.014-.056-.063-.065-.082-.143-.007-.137.132-.186.138-.251.041-.073-.109-.135-.111-.273-.052-.101.043-.204.09-.318.115a.517.517 0 0 1-.212-.023c.006-.223-.44-.014-.485-.179-.198.201-.41-.035-.626.005-.133.024-.104-.036-.039-.085.034-.027.015-.077.048-.105.073-.06.21-.109.064-.193-.068.045-.147.086-.202.136-.055.05-.084.11-.126.166-.025.032-.044.087-.079.09-.31.036-.623.064-.935.09-.01 0-.029-.032-.02-.08l.029.015c.019-.016.041-.031.056-.049.002-.003-.027-.015-.08.013a.16.16 0 0 0-.005.02l-.026-.014.031-.006c.012-.024-.013-.01-.038.002l.007.004c-.23.046-.414.114-.636.052-.094-.026-.292-.049-.318.114-.016.098-.136-.03-.229-.034-.248-.008-.323-.08-.176-.215.016-.014-.05-.06-.079-.091-.061.025-.16.042-.178.075-.112.196-.206.213-.583.193-.351-.02-.71.003-1.064.01-.617.012-.617.013-1.335-.185-.038-.01-.63-.02-.688-.023-.153-.007-.361-.065-.448-.025-.168.076-.335.058-.5.057-.167-.001-.354.062-.507-.034a.262.262 0 0 0-.104.037c-.034.026-.05.06-.073.09-.136-.059-.215-.16-.439-.15-.118.006-.17.115-.374.032-.201-.082-.529-.06-.802-.077-.163-.01-.315-.077-.498.004-.088.038-.262.003-.393.016-.173.018-.18-.232-.457-.082-.1.055-.343.012-.52.025-.188.013-.35 0-.467-.099-.022-.018-.08-.045-.094-.04-.317.117-.557-.07-.848-.074-.43-.007-.874.104-1.29-.042-.417.169-.896.065-1.343.103-.213.018-.434.034-.604-.093-.05-.038-.196-.032-.298-.042-.224-.023-.371.166-.658.06-.16-.06-.42-.03-.636-.03-.245-.001-.496.03-.734.009-.251-.023-.49-.075-.755-.06-.128.006-.314-.063-.384-.03-.169.077-.342.035-.508.05-.153.015-.311.01-.468.013-.13.003-.283.026-.261-.104l-.132-.007c-.018.195-.147.125-.325.061-.116-.041-.285.004-.42-.074-.074-.043-.204 0-.196.093 0 .01-.09.038-.106.031a.763.763 0 0 1-.197-.105c-.143-.122-.359-.106-.541-.08-.806.112-.931.108-1.612-.103-.05-.015-.14-.025-.176-.01-.089.039-.156.093-.232.142-.05-.045-.1-.09-.152-.134-.002-.002-.04.006-.043.013-.143.24-.364.15-.644.082a1.591 1.591 0 0 0-.657.012c-.383.091-.71.019-1.057-.047-.063-.012-.149.025-.225.032a.369.369 0 0 1-.123-.013c-.006-.214-.445 0-.489-.172-.278.153-.657.028-.938.106-.402.11-.783-.058-1.166.018-.237-.1-.455.072-.693.016a1.382 1.382 0 0 0-.327-.04c-.1.002-.199.032-.296.053-.098.02-.194.065-.287.061-.054-.002-.097-.111-.151-.113-.255-.01-.524-.049-.76.044-.146.057-.114-.016-.13-.055-.04-.094-.095-.05-.161-.01a.303.303 0 0 1-.113.028c-.243.02-.237-.233-.395-.175-.173.064-.317.124-.525.118-.066-.002-.157.02-.196 0-.149-.069-.324-.119-.462-.035-.174.106-.223-.08-.392-.03-.144.044-.35.016-.528.02-.042.002-.107-.002-.125.012-.159.129-.284.068-.425-.015-.09-.053-.2-.095-.31-.135-.106-.039-.154.15-.313.032-.026-.02-.26.064-.298.041-.138-.082-.289-.046-.436-.05-.13-.004-.328.024-.377-.015-.13-.102-.214.058-.296.002-.182-.125-.418.086-.594-.038-.246.107-.507-.041-.76.013a.268.268 0 0 1-.163-.045c-.152-.132-.266-.082-.384.017a.253.253 0 0 1-.087.03c-.195-.161-.333.053-.502.025-.034-.006-.063-.032-.083-.053-.03-.031-.05-.066-.074-.1-.02.035-.031.073-.065.101-.02.017-.076.02-.116.029-.006-.176-.137-.05-.25-.05-.232.001-.436.172-.703.032-.051-.027-.26.05-.396.08zm35.802-.24h0zM3.229 1.578a.194.194 0 0 0 .024-.01.239.239 0 0 1-.004.02zM252.28 6.009c-.014.009-.03.027-.042.026-.032-.004-.061-.015-.091-.023l.045-.029zm-.327.126c-.015-.009-.045-.019-.043-.025.006-.019.024-.036.038-.054l.05.027-.045.052zm-.877-.1c-.015.01-.032.028-.043.026-.032-.003-.061-.014-.091-.022l.046-.03zm-.165.27a17.525 17.525 0 0 1-.088-.027c.014-.008.031-.027.042-.025.032.003.062.014.092.022l-.046.03zm-2.443-.172c-.015-.009-.046-.018-.044-.025.006-.019.025-.036.039-.054l.05.027zM243.26 5.09c.018-.01.032-.02.046-.029.016.017.037.033.045.052.003.006-.026.018-.04.027l-.05-.05zm-1.45.98l-.045.052c-.015-.008-.045-.018-.043-.025.005-.018.024-.036.038-.054l.05.027zm-.71-.92c.03-.01.057-.023.088-.027.011-.002.03.015.046.023-.03.01-.057.022-.088.027-.011.001-.03-.015-.046-.024zm-.744-.103c-.015-.008-.045-.018-.043-.025.006-.019.025-.036.038-.054l.05.027zm-1.406 1.059c.015.017.036.033.044.052.003.006-.025.017-.04.027-.016-.018-.036-.034-.045-.053-.003-.006.026-.018.04-.026zm-.155-.971c.003.006-.026.018-.04.026-.016-.016-.037-.033-.045-.051-.003-.007.026-.018.04-.027.016.017.037.033.045.052zm-.084.383zm0 0c.029-.01.057-.022.088-.027.01-.001.03.016.046.024-.03.01-.057.022-.089.027-.01.002-.03-.015-.045-.024zm-.273.232l-.044.052c-.016-.009-.046-.019-.044-.025.006-.019.025-.036.039-.054l.05.027zm-.639.183c-.014.01-.031.027-.043.026-.031-.004-.06-.015-.091-.023l.046-.029zm-5.023-.308c.01-.002.03.015.045.024-.029.009-.057.021-.088.026-.01.002-.03-.015-.046-.023.03-.01.058-.022.089-.027zm-1.67-.61c-.016-.009-.046-.019-.044-.025.006-.019.024-.036.038-.054l.05.027zm-1.23.699c-.014.009-.03.027-.042.025-.032-.003-.061-.014-.091-.022l.046-.03zM93.371 3.875c-.016-.008-.045-.018-.043-.024.006-.019.024-.036.038-.054l.05.027-.045.052zm.1.512c-.015.01-.032.027-.043.026-.032-.004-.061-.015-.092-.023l.046-.03zm135.165.802c-.029.01-.057.022-.088.027-.01.001-.03-.016-.045-.024l.084-.03zm-1.084.854c.016.017.036.033.045.052.003.006-.026.018-.04.027l-.051-.05zm-2.147-.032c-.016-.008-.046-.018-.044-.025.006-.019.025-.036.039-.054l.05.027zm-2.946-1.001c.03-.01.057-.022.088-.027.011-.002.03.015.046.024l-.084.03zM92.544 4.566c-.015.009-.032.026-.043.025-.032-.003-.061-.014-.091-.022l.046-.03zm-.23-.81c.01-.002.03.015.045.023-.029.01-.057.022-.088.027-.01.002-.03-.015-.045-.024.029-.009.057-.021.088-.026zM219.38 6.145c-.016-.018-.036-.034-.045-.053-.003-.006.026-.017.04-.026.018.016.035.033.051.05zm-3.227-.166c-.015-.009-.045-.019-.044-.025.006-.02.025-.036.04-.054l.048.027zm-1.72.354c-.016-.017-.037-.034-.045-.052-.003-.006.026-.018.04-.027l.05.05zm-2.9-.291c-.015.009-.032.026-.043.025-.032-.003-.061-.014-.091-.022l.046-.03zM77.931 3.506c.016.017.038.034.046.052.003.007-.026.018-.04.027l-.052-.05zm10.744.316c-.016-.009-.046-.019-.043-.025.005-.02.024-.037.038-.054l.05.027zm-.61-.106c.03-.009.057-.021.088-.026.011-.002.03.015.046.024-.03.009-.057.021-.088.026-.011.002-.03-.015-.046-.024zm87.449.83c-.015.01-.031.028-.042.027-.033-.004-.062-.015-.092-.023l.046-.03c.029.01.058.018.088.027zm-5.1.944c.015.017.036.033.044.052.003.006-.025.017-.04.027-.016-.018-.037-.034-.045-.053-.003-.006.026-.017.04-.026zm-5.029-1.074c-.015-.009-.045-.019-.043-.025.005-.02.024-.037.038-.054l.05.027zm-8.953-.224c.003.007-.026.019-.04.027-.016-.017-.037-.033-.045-.051-.003-.007.025-.018.04-.027.016.017.037.033.045.051zm-13.658.882c-.015-.008-.046-.018-.044-.025.006-.019.025-.036.039-.054l.05.027zm-68.7-1.087c-.015-.018-.036-.034-.044-.052-.003-.007.025-.018.04-.027l.05.05zm11.666.057c.016.018.037.034.045.053.003.006-.025.017-.04.026-.016-.017-.037-.033-.045-.052-.003-.006.026-.017.04-.027zm49.315.106l.089.026c-.015.01-.032.027-.043.026-.032-.004-.061-.015-.092-.023l.046-.03zm-51.16.03c.011-.002.03.015.046.023-.03.01-.057.021-.088.027-.011.001-.03-.016-.046-.024.03-.01.057-.022.088-.027zm-.128-.605c-.015.009-.032.026-.043.025-.032-.003-.06-.014-.091-.022l.046-.03zm44.882.705c.015.009.045.019.044.025-.006.02-.025.036-.04.054l-.049-.027zm-.14-.076c-.014-.008-.045-.018-.043-.025.006-.018.025-.036.04-.054l.049.027zm-.227.638c.016.017.038.033.046.052.003.006-.026.017-.04.027-.017-.018-.038-.034-.046-.053-.003-.006.026-.017.04-.026zm-3.644-.394c-.015-.008-.045-.018-.043-.025.006-.019.024-.036.038-.054l.05.027zm-49.067-.861zm0 0l-.044.051c-.015-.008-.046-.018-.043-.025.005-.018.024-.036.038-.053zm48.571.438c-.014.008-.031.026-.042.025-.032-.004-.062-.015-.092-.023l.046-.029zm-.53.09c-.03.01-.057.022-.088.027-.011.001-.03-.015-.046-.024l.084-.03zm-3.807.203c-.016-.008-.046-.018-.044-.025.006-.019.025-.036.038-.054l.05.027zm.015.237c.015.008.045.018.043.025-.006.018-.025.036-.039.054l-.049-.027zm-1.215-.131c.016.017.037.033.045.052.003.006-.026.017-.04.027a5.392 5.392 0 0 0-.051-.05zm-5.86-.464c-.015.01-.032.027-.043.026-.032-.003-.061-.014-.091-.022l.046-.03zm-1.542-.005c-.016-.017-.038-.033-.046-.052-.003-.006.026-.018.04-.027l.052.05zm-33.712-.004zm0 0c.029-.01.057-.022.088-.027.01-.002.03.015.045.024-.029.009-.057.021-.088.026-.01.002-.03-.015-.045-.023zm25.299.202zm0 0l.049.027c-.03.01-.057.022-.088.026-.011.002-.03-.015-.046-.023l.085-.03zm-1.825.068c-.014.01-.03.027-.042.026-.032-.004-.061-.014-.091-.023l.045-.029zm-22.607-.33c-.015-.008-.046-.018-.043-.024.005-.019.024-.036.038-.054l.05.027zm19.375.086c.029-.01.057-.022.088-.027.01-.002.03.015.045.024-.029.01-.057.021-.088.026-.01.002-.03-.015-.045-.023zm-.61-.105c-.016-.018-.037-.034-.045-.053-.003-.006.026-.017.04-.026l.05.05zm7.988.26c-.002.035-.022.07-.035.104-.03-.009-.084-.017-.086-.028-.006-.034.008-.07.016-.113.05.017.105.028.105.037zm-5.598.438c-.054.014-.107.035-.164.04-.031.003-.069-.022-.104-.034l.148-.05zm-9.824-.513c-.003.041-.003.076-.012.11a.462.462 0 0 1-.083.002.305.305 0 0 1-.007-.103c0-.004.056-.005.102-.009zm-2.666.212c-.029.03-.047.062-.063.062-.059-.001-.117-.013-.176-.02.015-.018.029-.05.047-.051.059-.003.119.005.192.01zM84.2 4.04c-.055.015-.108.036-.165.04-.03.003-.069-.022-.103-.034l.147-.05zm-1.012-.014c.019 0 .036.03.054.048-.058.01-.115.024-.174.028-.016.001-.037-.03-.07-.059.073-.007.132-.018.19-.017zm-4.732-.385c-.017-.021-.052-.045-.045-.064.01-.025.051-.046.079-.07l.08.102zm-3.508.367c-.054.014-.107.035-.164.04-.03.003-.069-.022-.103-.034l.147-.05.12.044zm-.511-.332c.03.022.075.042.088.067.01.018-.024.043-.037.065l-.118-.027.067-.105zm161.27 2.012l.18.04c-.036.018-.07.044-.112.052-.03.005-.107-.016-.105-.021.006-.03.03-.059.037-.07zm-.451-.128c.05.017.105.027.104.037-.002.035-.022.07-.035.104-.03-.009-.084-.017-.085-.028-.006-.035.008-.07.016-.113zm-6.413.047c-.017-.02-.053-.045-.045-.063.01-.026.051-.047.079-.07l.08.102zm-.328.215c.04-.06.053-.083.067-.105.03.022.075.042.088.067.009.018-.023.043-.037.065l-.118-.027zm-3.69-.525l.18.04c-.037.018-.07.044-.112.052-.03.005-.107-.016-.106-.022.007-.03.03-.058.037-.07zm-9.405 1.067c-.036.01-.077.031-.108.027-.043-.006-.08-.03-.119-.047l.173-.047zm-43.131-1.699zm0 0l-.12-.043c.054-.014.107-.035.164-.04.03-.003.068.022.103.034zm62.529.782l-.218.11c-.016-.022-.053-.05-.042-.064.027-.036.077-.067.114-.097zm-127.1-1.493c.025.046.065.09.071.136.005.033-.035.068-.056.1l-.098-.13.083-.106zm-31.4-.495c.03.027.078.055.07.066a.434.434 0 0 1-.13.096c-.014.007-.07-.014-.108-.022l.168-.14zm47.698.748a.441.441 0 0 1-.126.098c-.007.003-.074-.03-.113-.047l.167-.115c.031.026.08.053.072.064zm-46.662-.251c-.024.04-.046.086-.094.115-.018.011-.106-.019-.163-.03l.187-.109c.015.005.072.02.07.024zm84.696.728c-.07.12-.079.17-.124.2-.02.014-.112-.01-.17-.016.026-.027.046-.057.08-.081.027-.021.07-.035.214-.103zm61.486.768c.113-.041.211-.082.317-.114.02-.006.067.021.101.033-.095.043-.19.087-.29.124-.016.006-.067-.021-.128-.043zm17.424.599c-.093.044-.141.08-.203.091-.033.006-.088-.034-.133-.053.043-.034.077-.075.133-.097.024-.008.094.026.203.059zM251.74 4.97c.09-.053.142-.1.165-.095a.416.416 0 0 1 .166.075c.01.007-.057.072-.091.072-.064.001-.128-.025-.24-.052zm-27.39.352c-.065.002-.13.005-.196.004-.017 0-.048-.02-.045-.025.009-.019.025-.048.047-.051.1-.016.203-.024.305-.037.046-.006.092-.016.137-.024.007.024.034.056.017.07a.371.371 0 0 1-.136.059c-.037.01-.086.003-.13.004zm-77.525-.794c-.005.021-.04.041-.06.062-.032-.018-.067-.034-.095-.053-.041-.027-.117-.062-.108-.084.03-.08.09-.157.14-.234.007-.009.03-.013.044-.02.022.02.057.04.062.06.012.051.009.103.012.154.002.038.013.077.005.115zm-73.772-.796c.003-.095.311-.173.475-.117.012.004-.003.06-.032.078-.093.055-.201.103-.3.155-.035.019-.06.043-.09.065-.015-.022-.038-.043-.043-.066-.01-.038-.007-.077-.01-.115zm72.188 1.15c-.007-.151.183-.31.383-.343.034-.005.133.04.129.053-.033.105-.07.212-.138.31-.018.025-.153.035-.23.03-.061-.003-.117-.04-.144-.05zm-21.284-.42l-.061.001a15.838 15.838 0 0 0-.268-.026l.004-.003-.05-.021c.046.01.149.026.375.05zm-.061.001c.16.018.22.03.274.045.017.005.01.067 0 .068-.114.015-.23.028-.347.032-.03 0-.063-.032-.094-.05-.031-.016-.061-.034-.092-.051.042-.013.082-.031.126-.04.032-.005.066-.004.133-.004zm-.268-.026l-.053.034-.067-.045.12.01zm-.045-.024c-.042-.01-.036-.013-.034-.012a.363.363 0 0 1 .034.012zM79.44 3.456l-.028.017-.066-.044.094.027zm.015-.01c-.087-.032-.072-.044-.068-.043.03.01.055.022.083.034zm.077.025h-.039a2.421 2.421 0 0 0-.053-.015l.015-.01.077.025zm-.039 0a.32.32 0 0 1 .103.045c-.027.006-.073.02-.08.015-.022-.016-.03-.039-.044-.059zm46.127 1.564l-.015.01.019.014.03-.02a.536.536 0 0 0-.034-.004zm-21.483-.48a.324.324 0 0 1-.02.09c.01.006.02.013.028.02.02-.027.037-.055.063-.08l.014-.015a4.022 4.022 0 0 0-.085-.015zm-11.119.017l.015.015.015-.009a6.557 6.557 0 0 1-.03-.006zM77.546 4.19a5.022 5.022 0 0 1-.026.008l.016.01a.479.479 0 0 1 .01-.018zm-2.624-.6l-.001-.017v.017zm96.832.842a.373.373 0 0 1-.006.002.53.53 0 0 0 .008.016l-.002-.018zm69.757 1.832a.064.064 0 0 1 0 .02l.004.003.02-.013a.48.48 0 0 1-.024-.01zM75.472 4.091a1.702 1.702 0 0 1-.055-.017c.01.011.02.021.028.032l.027-.015z"/></g></g></svg>